<?xml version="1.0" encoding="UTF-8" standalone="no" ?>
<!DOCTYPE svg PUBLIC "-//W3C//DTD SVG 1.1//EN" "http://www.w3.org/Graphics/SVG/1.1/DTD/svg11.dtd">
<svg xmlns="http://www.w3.org/2000/svg" xmlns:xlink="http://www.w3.org/1999/xlink" version="1.1" width="1080" height="1080" viewBox="0 0 1080 1080" xml:space="preserve">
<desc>Created with Fabric.js 5.2.4</desc>
<defs>
</defs>
<rect x="0" y="0" width="100%" height="100%" fill="transparent"></rect>
<g transform="matrix(1 0 0 1 540 540)" id="6644c123-d97d-4fbd-9522-d7dee0530633"  >
</g>
<g transform="matrix(1 0 0 1 540 540)" id="e970de2f-5a1b-4ae3-a2fa-2df6885bc2d5"  >
<rect style="stroke: none; stroke-width: 1; stroke-dasharray: none; stroke-linecap: butt; stroke-dashoffset: 0; stroke-linejoin: miter; stroke-miterlimit: 4; fill: rgb(255,255,255); fill-rule: nonzero; opacity: 1; visibility: hidden;" vector-effect="non-scaling-stroke"  x="-540" y="-540" rx="0" ry="0" width="1080" height="1080" />
</g>
<g transform="matrix(45 0 0 45 540 540)"  >
<path style="stroke: none; stroke-width: 1; stroke-dasharray: none; stroke-linecap: butt; stroke-dashoffset: 0; stroke-linejoin: miter; stroke-miterlimit: 4; fill: rgb(255,255,255); fill-rule: nonzero; opacity: 1;"  transform=" translate(-12.14, -11.86)" d="M 3.114 20.31 L 4 15 L 15.585 3.414 C 16.365999702971628 2.633236123334275 17.63200029702837 2.6332361233342745 18.413 3.4139999999999997 L 20.585 5.586 C 21.365763876665724 6.366999702971628 21.365763876665724 7.633000297028373 20.585 8.414000000000001 L 9 20 L 3.6900000000000004 20.885 C 3.530661214096736 20.911455546069725 3.3683567431597523 20.85930970619613 3.254244052509602 20.744998558692675 C 3.140131361859452 20.630687411189218 3.0882676239028046 20.468292575718934 3.115 20.309 Z M 8.038 18.133 L 16.378 9.793 L 14.206 7.620999999999999 L 5.866 15.960999999999999 L 5.4319999999999995 18.567 L 8.038 18.133 Z M 17.792 8.379 L 19.171 7 L 16.999 4.827999999999999 L 15.620999999999999 6.207999999999999 L 17.791999999999998 8.378 Z" stroke-linecap="round" />
</g>
</svg>