<?xml version="1.0" encoding="UTF-8" standalone="no" ?>
<!DOCTYPE svg PUBLIC "-//W3C//DTD SVG 1.1//EN" "http://www.w3.org/Graphics/SVG/1.1/DTD/svg11.dtd">
<svg xmlns="http://www.w3.org/2000/svg" xmlns:xlink="http://www.w3.org/1999/xlink" version="1.1" width="1080" height="1080" viewBox="0 0 1080 1080" xml:space="preserve">
<desc>Created with Fabric.js 5.2.4</desc>
<defs>
</defs>
<rect x="0" y="0" width="100%" height="100%" fill="transparent"></rect>
<g transform="matrix(1 0 0 1 540 540)" id="6644c123-d97d-4fbd-9522-d7dee0530633"  >
</g>
<g transform="matrix(1 0 0 1 540 540)" id="e970de2f-5a1b-4ae3-a2fa-2df6885bc2d5"  >
<rect style="stroke: none; stroke-width: 1; stroke-dasharray: none; stroke-linecap: butt; stroke-dashoffset: 0; stroke-linejoin: miter; stroke-miterlimit: 4; fill: rgb(255,255,255); fill-rule: nonzero; opacity: 1; visibility: hidden;" vector-effect="non-scaling-stroke"  x="-540" y="-540" rx="0" ry="0" width="1080" height="1080" />
</g>
<g transform="matrix(45 0 0 45 540 540)"  >
<path style="stroke: none; stroke-width: 1; stroke-dasharray: none; stroke-linecap: butt; stroke-dashoffset: 0; stroke-linejoin: miter; stroke-miterlimit: 4; fill: rgb(255,255,255); fill-rule: nonzero; opacity: 1;"  transform=" translate(-12, -12.18)" d="M 10.55 20.03 L 12 21.35 L 13.45 20.040000000000003 L 13.489999999999998 20.004 C 18.616 15.344 22 12.27 22 8.5 C 22 5.42 19.58 3 16.5 3 C 15.384 3 14.296 3.745 13.372 4.617 C 12.888421584765288 5.082882664796226 12.430418128444645 5.574602118994703 11.999999999999998 6.090000000000004 C 11.61 5.631 11.144 5.104 10.628 4.617 C 9.704 3.745 8.616 3 7.5 3 C 4.42 3 2 5.42 2 8.5 C 2 12.277000000000001 5.394 15.355 10.537 20.018 L 10.55 20.03 Z M 12.107000000000001 18.558 L 12.105 18.56 L 12.005 18.65 L 11.896 18.551 L 11.893 18.548 C 9.278 16.177 7.2700000000000005 14.349999999999998 5.892 12.665 C 4.536 11.008 4 9.733 4 8.5 C 4 6.525 5.525 5 7.5 5 C 7.697 5 8.107 5.121 8.75 5.631 C 9.359 6.115 9.943 6.76 10.477 7.3870000000000005 L 12 9.175 L 13.523 7.3870000000000005 C 14.057 6.760000000000001 14.641 6.115 15.25 5.631 C 15.893 5.121 16.303 5 16.5 5 C 18.475 5 20 6.525 20 8.5 C 20 9.733 19.463 11.008 18.108 12.667 C 16.729 14.353 14.722000000000001 16.182 12.108 18.557 Z" stroke-linecap="round" />
</g>
</svg>