<?xml version="1.0" encoding="UTF-8" standalone="no" ?>
<!DOCTYPE svg PUBLIC "-//W3C//DTD SVG 1.1//EN" "http://www.w3.org/Graphics/SVG/1.1/DTD/svg11.dtd">
<svg xmlns="http://www.w3.org/2000/svg" xmlns:xlink="http://www.w3.org/1999/xlink" version="1.1" width="1080" height="1080" viewBox="0 0 1080 1080" xml:space="preserve">
<desc>Created with Fabric.js 5.2.4</desc>
<defs>
</defs>
<rect x="0" y="0" width="100%" height="100%" fill="transparent"></rect>
<g transform="matrix(1 0 0 1 540 540)" id="e970de2f-5a1b-4ae3-a2fa-2df6885bc2d5"  >
<rect style="stroke: none; stroke-width: 1; stroke-dasharray: none; stroke-linecap: butt; stroke-dashoffset: 0; stroke-linejoin: miter; stroke-miterlimit: 4; fill: rgb(255,255,255); fill-rule: nonzero; opacity: 1; visibility: hidden;" vector-effect="non-scaling-stroke"  x="-540" y="-540" rx="0" ry="0" width="1080" height="1080" />
</g>
<g transform="matrix(1 0 0 1 540 540)" id="6644c123-d97d-4fbd-9522-d7dee0530633"  >
</g>
<g transform="matrix(45 0 0 45 540 540)"  >
<g style=""   >
		<g transform="matrix(1 0 0 1 -1 -1)"  >
<path style="stroke: none; stroke-width: 1; stroke-dasharray: none; stroke-linecap: butt; stroke-dashoffset: 0; stroke-linejoin: miter; stroke-miterlimit: 4; fill: rgb(255,255,255); fill-rule: nonzero; opacity: 1;" vector-effect="non-scaling-stroke"  transform=" translate(-11, -11)" d="M 11.675 13.771 C 11.240301927128789 14.390796004886335 10.917431180156878 15.081888316538999 10.721 15.813000000000002 C 9.651343086608666 15.76776149992096 8.6072830324853 15.471807468830873 7.672999999999997 14.948999999999998 C 7.338 15.112 6.968 15.406 6.616 15.865 C 6.521999999999999 15.988 6.436 16.113 6.359 16.240000000000002 C 7.5137565269536015 17.266168468082935 8.976704757750642 17.87962884666193 10.517999999999997 17.984 C 10.57 18.694000000000003 10.736 19.372 10.998000000000001 20 C 7.292576777397008 19.998894175729998 3.9665377258429535 17.72688094549786 2.617933820945442 14.27558698682844 C 1.2693299160479299 10.824293028159017 2.1738246531486443 6.899185493151915 4.89683843932898 4.386147809048332 C 7.619852225509316 1.8731101249447484 11.6047831590277 1.2858236991687697 14.937004662345148 2.906460097094495 C 18.269226165662594 4.527096495020222 20.267610278581614 8.024386993112323 19.972 11.717999999999991 C 19.353585148758125 11.399065231795138 18.687651090431252 11.182265198607588 18 11.076 L 18 11 C 17.99962124936519 8.035977834561205 16.132492644809282 5.393493353463137 13.338806102537188 4.4031686369219845 C 10.545119560265093 3.4128439203808316 7.430544697904455 4.289380790995082 5.563424532032315 6.591399432721973 C 3.6963043661601738 8.893418074448864 3.4814294628680695 12.12184218455742 5.026999999999996 14.650999999999994 C 5.789 13.656 6.847999999999999 12.901 8.029 12.801 C 8.882 13.444 9.903 13.819 11 13.819 C 11.229 13.819 11.454 13.803 11.675 13.771 Z" stroke-linecap="round" />
</g>
		<g transform="matrix(1 0 0 1 2.56 1.81)"  >
<path style="stroke: none; stroke-width: 1; stroke-dasharray: none; stroke-linecap: butt; stroke-dashoffset: 0; stroke-linejoin: miter; stroke-miterlimit: 4; fill: rgb(255,255,255); fill-rule: nonzero; opacity: 1;" vector-effect="non-scaling-stroke"  transform=" translate(-14.56, -13.81)" d="M 14.375 8.975 C 14.375 7.111038969321072 12.863961030678928 5.6 11 5.6 C 9.136038969321072 5.6 7.625 7.111038969321071 7.625 8.975 C 7.625 10.838961030678927 9.136038969321072 12.35 11 12.35 C 12.863961030678928 12.35 14.375 10.838961030678927 14.375 8.975 Z M 12.375 8.975 C 12.375 9.73439153101734 11.759391531017341 10.35 11 10.35 C 10.240608468982659 10.35 9.625 9.73439153101734 9.625 8.975 C 9.625 8.215608468982659 10.240608468982659 7.6 11 7.6 C 11.759391531017341 7.6 12.375 8.215608468982659 12.375 8.975 Z M 16.455 13 L 17.548 13 C 17.79012246706967 13.000094471389996 17.997386460982412 13.173657002877905 18.04 13.412 L 18.207 14.348 C 18.239972651305802 14.512230237421072 18.345990326660154 14.652482787108601 18.495 14.729000000000001 C 18.593 14.781 18.686 14.839 18.777 14.9 C 18.91900016591615 15.001700490787076 19.100864633262468 15.029908040824465 19.267 14.976 L 20.317999999999998 14.608 C 20.53934389715696 14.530729240013791 20.784653607497997 14.617627086558327 20.907999999999998 14.817 L 21.426 15.654 C 21.560794650729164 15.871959153202019 21.50897300846981 16.15654633860963 21.305999999999997 16.313 L 20.362999999999996 17.038 C 20.228722847527308 17.146024286790787 20.152841888520054 17.310741490489463 20.157999999999998 17.483 L 20.157999999999998 17.541 C 20.152841888520054 17.71325850951054 20.228722847527308 17.877975713209214 20.362999999999996 17.986 L 21.305999999999997 18.712 C 21.50897300846981 18.86845366139037 21.560794650729164 19.15304084679798 21.426 19.371 L 20.909999999999997 20.208 C 20.78655044166737 20.407841787677874 20.540636444671026 20.494806297613973 20.318999999999996 20.416999999999998 L 19.265999999999995 20.048 C 19.099864633262463 19.994091959175535 18.918000165916144 20.02229950921292 18.775999999999996 20.124 C 18.685999999999996 20.186 18.591999999999995 20.243 18.493999999999996 20.294999999999998 C 18.344365414261752 20.371494163228224 18.23791402388509 20.512201537359314 18.204999999999995 20.677 L 18.038999999999994 21.612 C 17.996320305757532 21.850714718420107 17.788499733473387 22.024390328523694 17.545999999999996 22.023999999999997 L 16.452999999999996 22.023999999999997 C 16.210877532930326 22.02390552861 16.003613539017582 21.850342997122095 15.960999999999995 21.612 L 15.793999999999995 20.677 C 15.761306175189768 20.512397120119815 15.655251287988044 20.37172709612308 15.505999999999995 20.294999999999998 C 15.409062137053425 20.2429920263782 15.314931674440514 20.18591291607037 15.223999999999995 20.124 C 15.081830578650521 20.022639724732016 14.899978859713555 19.99480527795595 14.733999999999995 20.049 L 13.683999999999994 20.416 C 13.462363555328961 20.493806297613975 13.216449558332624 20.406841787677877 13.092999999999995 20.207 L 12.575999999999995 19.37 C 12.441205349270831 19.152040846797984 12.493026991530183 18.86745366139037 12.695999999999994 18.711000000000002 L 13.635999999999994 17.987000000000002 C 13.77065146628888 17.87917890112486 13.846917083105582 17.714430359943147 13.841999999999993 17.542 L 13.841999999999993 17.482000000000003 C 13.847158111479938 17.309741490489465 13.771277152472683 17.14502428679079 13.636999999999993 17.037000000000003 L 12.694999999999993 16.312 C 12.49202699153018 16.155546338609632 12.440205349270828 15.870959153202019 12.574999999999994 15.653 L 13.091999999999993 14.816 C 13.215044828479366 14.616252010990241 13.460421265848163 14.528914634977617 13.681999999999993 14.606 L 14.733999999999993 14.975999999999999 C 14.900135366737524 15.029908040824465 15.081999834083843 15.001700490787076 15.223999999999993 14.899999999999999 C 15.313999999999993 14.838 15.408999999999994 14.78 15.506999999999993 14.727999999999998 C 15.657017943569938 14.651739435463993 15.763866147291887 14.510994560216458 15.796999999999992 14.345999999999998 L 15.962999999999992 13.411999999999999 C 16.005613539017578 13.173657002877903 16.21287753293032 13.000094471389994 16.45499999999999 12.999999999999998 Z M 17 19.09 C 17.58035963092157 19.115306884312318 18.127799536255914 18.820103854161637 18.425531981565396 18.32129213556728 C 18.723264426874877 17.822480416972926 18.723264426874877 17.200519583027074 18.425531981565396 16.70170786443272 C 18.127799536255914 16.202896145838363 17.58035963092157 15.90769311568768 17 15.933 C 16.14980256129787 15.963263034658919 15.476204981985573 16.66126412086804 15.476204981985573 17.512 C 15.476204981985573 18.362735879131957 16.14980256129787 19.060736965341082 17 19.091 Z" stroke-linecap="round" />
</g>
</g>
</g>
</svg>