<?xml version="1.0" encoding="UTF-8" standalone="no" ?>
<!DOCTYPE svg PUBLIC "-//W3C//DTD SVG 1.1//EN" "http://www.w3.org/Graphics/SVG/1.1/DTD/svg11.dtd">
<svg xmlns="http://www.w3.org/2000/svg" xmlns:xlink="http://www.w3.org/1999/xlink" version="1.1" width="1080" height="1080" viewBox="0 0 1080 1080" xml:space="preserve">
<desc>Created with Fabric.js 5.2.4</desc>
<defs>
</defs>
<rect x="0" y="0" width="100%" height="100%" fill="transparent"></rect>
<g transform="matrix(1 0 0 1 540 540)" id="6644c123-d97d-4fbd-9522-d7dee0530633"  >
</g>
<g transform="matrix(1 0 0 1 540 540)" id="e970de2f-5a1b-4ae3-a2fa-2df6885bc2d5"  >
<rect style="stroke: none; stroke-width: 1; stroke-dasharray: none; stroke-linecap: butt; stroke-dashoffset: 0; stroke-linejoin: miter; stroke-miterlimit: 4; fill: rgb(255,255,255); fill-rule: nonzero; opacity: 1; visibility: hidden;" vector-effect="non-scaling-stroke"  x="-540" y="-540" rx="0" ry="0" width="1080" height="1080" />
</g>
<g transform="matrix(45 0 0 45 540 540)"  >
<path style="stroke: none; stroke-width: 1; stroke-dasharray: none; stroke-linecap: butt; stroke-dashoffset: 0; stroke-linejoin: miter; stroke-miterlimit: 4; fill: rgb(255,255,255); fill-rule: nonzero; opacity: 1;"  transform=" translate(-12, -12)" d="M 13.5 2 C 13.223857625084603 2 13 2.2238576250846034 13 2.5 L 13 3.5 C 13 3.7761423749153966 13.223857625084603 4 13.5 4 L 15 4 L 15 20 L 13.5 20 C 13.223857625084603 20 13 20.2238576250846 13 20.5 L 13 21.5 C 13 21.7761423749154 13.223857625084603 22 13.5 22 L 18.5 22 C 18.7761423749154 22 19 21.7761423749154 19 21.5 L 19 20.5 C 19 20.2238576250846 18.7761423749154 20 18.5 20 L 17 20 L 17 17 L 20 17 C 21.104569499661586 17 22 16.104569499661586 22 15 L 22 9 C 22 7.8954305003384135 21.104569499661586 7 20 7 L 17 7 L 17 4 L 18.5 4 C 18.7761423749154 4 19 3.7761423749153966 19 3.5 L 19 2.5 C 19 2.2238576250846034 18.7761423749154 2 18.5 2 L 13.5 2 Z M 17 9 L 20 9 L 20 15 L 17 15 L 17 9 Z M 4 7 L 13 7 L 13 9 L 4 9 L 4 15 L 13 15 L 13 17 L 4 17 C 2.895430500338413 17 2 16.104569499661586 2 15 L 2 9 C 2 7.8954305003384135 2.895430500338413 7 4 7 Z" stroke-linecap="round" />
</g>
</svg>