<?xml version="1.0" encoding="UTF-8" standalone="no" ?>
<!DOCTYPE svg PUBLIC "-//W3C//DTD SVG 1.1//EN" "http://www.w3.org/Graphics/SVG/1.1/DTD/svg11.dtd">
<svg xmlns="http://www.w3.org/2000/svg" xmlns:xlink="http://www.w3.org/1999/xlink" version="1.1" width="1080" height="1080" viewBox="0 0 1080 1080" xml:space="preserve">
<desc>Created with Fabric.js 5.2.4</desc>
<defs>
</defs>
<rect x="0" y="0" width="100%" height="100%" fill="transparent"></rect>
<g transform="matrix(1 0 0 1 540 540)" id="e970de2f-5a1b-4ae3-a2fa-2df6885bc2d5"  >
<rect style="stroke: none; stroke-width: 1; stroke-dasharray: none; stroke-linecap: butt; stroke-dashoffset: 0; stroke-linejoin: miter; stroke-miterlimit: 4; fill: rgb(255,255,255); fill-rule: nonzero; opacity: 1; visibility: hidden;" vector-effect="non-scaling-stroke"  x="-540" y="-540" rx="0" ry="0" width="1080" height="1080" />
</g>
<g transform="matrix(1 0 0 1 540 540)" id="6644c123-d97d-4fbd-9522-d7dee0530633"  >
</g>
<g transform="matrix(45 0 0 45 540 540)"  >
<g style=""   >
		<g transform="matrix(1 0 0 1 0 0)"  >
<path style="stroke: none; stroke-width: 1; stroke-dasharray: none; stroke-linecap: butt; stroke-dashoffset: 0; stroke-linejoin: miter; stroke-miterlimit: 4; fill: rgb(255,255,255); fill-rule: nonzero; opacity: 1;" vector-effect="non-scaling-stroke"  transform=" translate(-12, -12)" d="M 12 20 C 7.581722001353652 20 4 16.418277998646346 4 12 C 4 7.581722001353652 7.581722001353652 4 12 4 C 16.418277998646346 4 20 7.581722001353651 20 11.999999999999998 C 20 16.418277998646346 16.41827799864635 20 12.000000000000002 20 Z M 12 22 C 17.523 22 22 17.523 22 12 C 22 6.477 17.523 2 12 2 C 6.477 2 2 6.477 2 12 C 2 17.523 6.477 22 12 22 Z" stroke-linecap="round" />
</g>
		<g transform="matrix(1 0 0 1 0 0)"  >
<path style="stroke: none; stroke-width: 1; stroke-dasharray: none; stroke-linecap: butt; stroke-dashoffset: 0; stroke-linejoin: miter; stroke-miterlimit: 4; fill: rgb(255,255,255); fill-rule: nonzero; opacity: 1;" vector-effect="non-scaling-stroke"  transform=" translate(-12, -12)" d="M 11.5 7 C 11.223857625084603 7 11 7.223857625084603 11 7.5 L 11 11 L 7.5 11 C 7.223857625084603 11 7 11.223857625084603 7 11.5 L 7 12.5 C 7 12.776142374915397 7.223857625084603 13 7.5 13 L 11 13 L 11 16.5 C 11 16.7761423749154 11.223857625084603 17 11.5 17 L 12.5 17 C 12.776142374915397 17 13 16.7761423749154 13 16.5 L 13 13 L 16.5 13 C 16.7761423749154 13 17 12.776142374915397 17 12.5 L 17 11.5 C 17 11.223857625084603 16.7761423749154 11 16.5 11 L 13 11 L 13 7.5 C 13 7.223857625084603 12.776142374915397 7 12.5 7 L 11.5 7 Z" stroke-linecap="round" />
</g>
</g>
</g>
</svg>