<?xml version="1.0" encoding="UTF-8" standalone="no" ?>
<!DOCTYPE svg PUBLIC "-//W3C//DTD SVG 1.1//EN" "http://www.w3.org/Graphics/SVG/1.1/DTD/svg11.dtd">
<svg xmlns="http://www.w3.org/2000/svg" xmlns:xlink="http://www.w3.org/1999/xlink" version="1.1" width="1080" height="1080" viewBox="0 0 1080 1080" xml:space="preserve">
<desc>Created with Fabric.js 5.2.4</desc>
<defs>
</defs>
<g transform="matrix(1 0 0 1 540 540)" id="e970de2f-5a1b-4ae3-a2fa-2df6885bc2d5"  >
<rect style="stroke: none; stroke-width: 1; stroke-dasharray: none; stroke-linecap: butt; stroke-dashoffset: 0; stroke-linejoin: miter; stroke-miterlimit: 4; fill: rgb(255,255,255); fill-rule: nonzero; opacity: 1; visibility: hidden;" vector-effect="non-scaling-stroke"  x="-540" y="-540" rx="0" ry="0" width="1080" height="1080" />
</g>
<g transform="matrix(1 0 0 1 540 540)" id="6644c123-d97d-4fbd-9522-d7dee0530633"  >
</g>
<g transform="matrix(45 0 0 45 540 540)"  >
<path style="stroke: none; stroke-width: 1; stroke-dasharray: none; stroke-linecap: butt; stroke-dashoffset: 0; stroke-linejoin: miter; stroke-miterlimit: 4; fill: rgb(255,255,255); fill-rule: nonzero; opacity: 1;"  transform=" translate(-12, -11.51)" d="M 16.066 7.245 C 17.380755993123586 6.485428972562599 17.83109914410881 4.804028500295706 17.072 3.4890000000000003 C 16.747 2.926 16.269 2.3890000000000002 15.582999999999998 2.149 C 14.871999999999998 1.9020000000000001 14.097999999999999 2.0300000000000002 13.314999999999998 2.482 C 13.019999999999998 2.652 12.786999999999997 2.914 12.606999999999998 3.17 C 12.420999999999998 3.435 12.256999999999998 3.7439999999999998 12.116999999999997 4.0649999999999995 C 11.881065565648687 4.617080112524499 11.701812448615886 5.19169524469506 11.581999999999997 5.779999999999998 C 11.125131309999828 5.221048146869229 10.602335096769405 4.7194055376423485 10.024999999999999 4.286 C 9.753199396908194 4.081057941747792 9.461778428591137 3.903525627715561 9.154999999999998 3.7559999999999993 C 8.869999999999997 3.623999999999999 8.536999999999997 3.5139999999999993 8.196999999999997 3.5139999999999993 C 7.2929999999999975 3.5139999999999993 6.5589999999999975 3.789999999999999 6.0669999999999975 4.359999999999999 C 5.591999999999998 4.909999999999999 5.446999999999997 5.613999999999999 5.446999999999997 6.263999999999999 C 5.446999999999997 6.922999999999999 5.676999999999998 7.526999999999999 6.062999999999997 7.999999999999999 L 5 7.999999999999999 C 3.895430500338413 7.999999999999999 3 8.895430500338412 3 10 L 3 13.53 C 3 13.806142374915396 3.2238576250846034 14.03 3.5 14.03 L 4 14.03 L 4 19 C 4 20.104569499661586 4.8954305003384135 21 6 21 L 18 21 C 19.104569499661586 21 20 20.104569499661586 20 19 L 20 14.030000000000001 L 20.5 14.030000000000001 C 20.7761423749154 14.030000000000001 21 13.806142374915398 21 13.530000000000001 L 21 10 C 21 8.895430500338414 20.104569499661586 8 19 8 L 14.758 8 L 16.066 7.245 Z M 15.773 4.239000000000001 C 16.11790523732147 4.836608038567544 15.913353805430939 5.6006546342724395 15.315999999999999 5.946 L 12.933 7.322000000000001 C 12.919785682323722 7.009672031716956 12.940574546941313 6.696833149649 12.994999999999997 6.389000000000005 C 13.090871392001286 5.796030754629015 13.258084741963188 5.21682788578508 13.492999999999999 4.6640000000000015 C 13.586051147031437 4.442652855638391 13.700600115898718 4.230971720187743 13.834999999999999 4.032000000000003 C 13.953 3.8640000000000017 14.034999999999998 3.798000000000002 14.065 3.782000000000002 C 14.581999999999999 3.483000000000002 14.898 3.499000000000002 15.09 3.5660000000000016 C 15.307 3.6420000000000017 15.546 3.846000000000002 15.773 4.239000000000002 Z M 6.947 6.264 C 6.947 5.8100000000000005 7.051 5.514 7.202 5.34 C 7.334 5.187 7.6 5.014 8.197 5.014 C 8.231 5.014 8.335999999999999 5.03 8.521999999999998 5.1160000000000005 C 8.698999999999998 5.199000000000001 8.907999999999998 5.3260000000000005 9.133999999999999 5.493 C 9.586999999999998 5.827 10.056999999999999 6.283 10.426999999999998 6.737 C 10.679999999999998 7.048 10.848999999999998 7.315 10.946999999999997 7.514 L 8.196999999999997 7.514 C 7.506999999999998 7.514 6.946999999999997 6.954000000000001 6.946999999999997 6.264 Z M 18 19 L 13 19 L 13 14.100999999999999 L 18 14.100999999999999 L 18 19 Z M 19 12.030000000000001 L 13 12.030000000000001 L 13 10 L 19 10 L 19 12.03 Z M 11 12.030000000000001 L 5 12.030000000000001 L 5 10 L 11 10 L 11 12.03 Z M 11 19 L 6 19 L 6 14.100999999999999 L 11 14.100999999999999 L 11 19 Z" stroke-linecap="round" />
</g>
</svg>