<?xml version="1.0" encoding="UTF-8" standalone="no" ?>
<!DOCTYPE svg PUBLIC "-//W3C//DTD SVG 1.1//EN" "http://www.w3.org/Graphics/SVG/1.1/DTD/svg11.dtd">
<svg xmlns="http://www.w3.org/2000/svg" xmlns:xlink="http://www.w3.org/1999/xlink" version="1.1" width="1080" height="1080" viewBox="0 0 1080 1080" xml:space="preserve">
<desc>Created with Fabric.js 5.2.4</desc>
<defs>
</defs>
<rect x="0" y="0" width="100%" height="100%" fill="transparent"></rect>
<g transform="matrix(1 0 0 1 540 540)" id="01f93f24-0a71-466b-884f-34353520e32d"  >
<rect style="stroke: none; stroke-width: 1; stroke-dasharray: none; stroke-linecap: butt; stroke-dashoffset: 0; stroke-linejoin: miter; stroke-miterlimit: 4; fill: rgb(255,255,255); fill-rule: nonzero; opacity: 1; visibility: hidden;" vector-effect="non-scaling-stroke"  x="-540" y="-540" rx="0" ry="0" width="1080" height="1080" />
</g>
<g transform="matrix(1 0 0 1 540 540)" id="41863433-d0f9-453e-9966-3d360fad4fd6"  >
</g>
<g transform="matrix(45 0 0 45 540 540)"  >
<g style=""   >
		<g transform="matrix(1 0 0 1 -1.15 0)"  >
<path style="stroke: none; stroke-width: 1; stroke-dasharray: none; stroke-linecap: butt; stroke-dashoffset: 0; stroke-linejoin: miter; stroke-miterlimit: 4; fill: rgb(255,255,255); fill-rule: nonzero; opacity: 1;" vector-effect="non-scaling-stroke"  transform=" translate(-10.85, -12)" d="M 5.001 12 C 5.001484876429402 8.74484985521516 7.245774318177339 5.919609300595621 10.416427179461438 5.182748979076764 C 13.587080040745537 4.445888657557907 16.847247479019835 5.991892397600021 18.283148390374084 8.913226215048818 C 19.719049301728333 11.834560032497613 18.951698010893487 15.360179309484607 16.431544511087743 17.420477597989162 C 13.911391011282003 19.480775886493717 10.303594066841516 19.53196668150683 7.725999999999993 17.543999999999997 C 7.519062636005324 17.378949857027223 7.221895107774976 17.392632390701138 7.031000000000001 17.576 L 6.3180000000000005 18.289 C 6.220141488209589 18.38345590165486 6.167154332145735 18.51512634376451 6.17230823861572 18.65103676623227 C 6.1774621450857055 18.78694718870003 6.240269027399903 18.914226564747594 6.345000000000001 19.001 C 9.615334979674481 21.64317012197973 14.279223541184471 21.66911790763071 17.57875486380511 19.06349957721273 C 20.878286186425747 16.457881246794756 21.934221051376653 11.915026267517405 20.12215041637019 8.121274319048432 C 18.310079781363726 4.327522370579459 14.112873306880193 2.293809605138531 10.012477334503455 3.222737321638311 C 5.912081362126718 4.151665038138091 3.001144695256922 7.79569817783878 3.0010000000000012 12 L 1.208 12 C 1.0054911194976035 11.999637676202275 0.8227615214277146 12.121462873583322 0.7452156903226078 12.30853671472389 C 0.667669859217501 12.49561055586446 0.7106231589901688 12.710985806917948 0.8539999999999998 12.854 L 3.6470000000000002 15.645999999999999 C 3.8422499257429075 15.84119096916643 4.158750074257093 15.84119096916643 4.354 15.645999999999999 L 7.147 12.854 C 7.290247397105559 12.711114284866307 7.333263798431091 12.495982059093414 7.255974687962233 12.308999338582355 C 7.1786855774933755 12.122016618071296 6.996326821058965 12.000042976243671 6.794 12 L 5 12 Z" stroke-linecap="round" />
</g>
		<g transform="matrix(1 0 0 1 1.73 -0.96)"  >
<path style="stroke: none; stroke-width: 1; stroke-dasharray: none; stroke-linecap: butt; stroke-dashoffset: 0; stroke-linejoin: miter; stroke-miterlimit: 4; fill: rgb(255,255,255); fill-rule: nonzero; opacity: 1;" vector-effect="non-scaling-stroke"  transform=" translate(-13.73, -11.04)" d="M 12.001 7 C 11.448715250169206 7 11.001 7.447715250169207 11.001 8 L 11.001 12.036 C 10.984790682715149 12.408871938589868 11.177575391485805 12.759740108552462 11.501 12.946 L 14.966 14.946 C 15.443859964986759 15.21769029046477 16.051420454485925 15.052741565051047 16.32627453211096 14.576694302604482 C 16.601128609735998 14.100647040157918 16.44021361359641 13.492005771072858 15.966 13.214 L 13.001 11.502 L 13.001 8 C 13.001 7.447715250169207 12.553284749830793 7 12.001 7 Z" stroke-linecap="round" />
</g>
</g>
</g>
</svg>