<?xml version="1.0" encoding="UTF-8" standalone="no" ?>
<!DOCTYPE svg PUBLIC "-//W3C//DTD SVG 1.1//EN" "http://www.w3.org/Graphics/SVG/1.1/DTD/svg11.dtd">
<svg xmlns="http://www.w3.org/2000/svg" xmlns:xlink="http://www.w3.org/1999/xlink" version="1.1" width="1080" height="1080" viewBox="0 0 1080 1080" xml:space="preserve">
<desc>Created with Fabric.js 5.2.4</desc>
<defs>
</defs>
<rect x="0" y="0" width="100%" height="100%" fill="transparent"></rect>
<g transform="matrix(1 0 0 1 540 540)" id="01f93f24-0a71-466b-884f-34353520e32d"  >
<rect style="stroke: none; stroke-width: 1; stroke-dasharray: none; stroke-linecap: butt; stroke-dashoffset: 0; stroke-linejoin: miter; stroke-miterlimit: 4; fill: rgb(255,255,255); fill-rule: nonzero; opacity: 1; visibility: hidden;" vector-effect="non-scaling-stroke"  x="-540" y="-540" rx="0" ry="0" width="1080" height="1080" />
</g>
<g transform="matrix(1 0 0 1 540 540)" id="41863433-d0f9-453e-9966-3d360fad4fd6"  >
</g>
<g transform="matrix(45 0 0 45 540 540)"  >
<g style=""   >
		<g transform="matrix(1 0 0 1 0.01 -0.02)"  >
<path style="stroke: none; stroke-width: 1; stroke-dasharray: none; stroke-linecap: butt; stroke-dashoffset: 0; stroke-linejoin: miter; stroke-miterlimit: 4; fill: rgb(255,255,255); fill-rule: nonzero; opacity: 1;" vector-effect="non-scaling-stroke"  transform=" translate(-12.01, -11.98)" d="M 11.104 8.068 C 10.973999999999998 8.113999999999999 10.856 8.186 10.577 8.432 C 10.325 8.655000000000001 10.121 9.023 10.034 9.48 C 9.982000000000001 9.75 9.764000000000001 9.977 9.488000000000001 9.977 L 8.488000000000001 9.977 C 8.211000000000002 9.977 7.985000000000001 9.752 8.014000000000001 9.477 C 8.117 8.522 8.518 7.582000000000001 9.254000000000001 6.933 C 9.577000000000002 6.648 9.930000000000001 6.3629999999999995 10.433000000000002 6.183 C 10.915000000000001 6.012 11.451000000000002 5.966 12.108000000000002 5.966 C 13.515000000000002 5.966 15.130000000000003 6.4430000000000005 15.778000000000002 8.013 C 16.402 9.522 15.758000000000003 11.099 14.331000000000003 11.763 C 14.203000000000003 11.823 14.029000000000003 11.898 13.877000000000002 11.965 L 13.624000000000002 12.077 C 13.46093979160033 12.146936400842677 13.303766712732537 12.229870280755893 13.154000000000002 12.325 C 13.09590727006156 12.35884831471117 13.04495962227557 12.403682244762837 13.004000000000001 12.456999999999999 C 13.001000000000001 12.462 12.988000000000001 12.480999999999998 12.988000000000001 12.546999999999999 L 12.988000000000001 13.499999999999998 C 12.988000000000001 13.776142374915395 12.764142374915398 13.999999999999998 12.488000000000001 13.999999999999998 L 11.488000000000001 13.999999999999998 C 11.211857625084605 13.999999999999998 10.988000000000001 13.776142374915395 10.988000000000001 13.499999999999998 L 10.988000000000001 12.547999999999998 C 10.988000000000001 11.623999999999999 11.488000000000001 11.035999999999998 12.035000000000002 10.666999999999998 C 12.287000000000003 10.496999999999998 12.559000000000001 10.363999999999997 12.797000000000002 10.255999999999998 C 12.933000000000002 10.193999999999999 13.035000000000002 10.149999999999999 13.132000000000003 10.107999999999999 C 13.244000000000003 10.059 13.348000000000003 10.014 13.488000000000003 9.948999999999998 C 13.951000000000002 9.733999999999998 14.142000000000003 9.288999999999998 13.930000000000003 8.775999999999998 C 13.744000000000003 8.324999999999998 13.200000000000003 7.9659999999999975 12.108000000000004 7.9659999999999975 C 11.514000000000005 7.9659999999999975 11.255000000000004 8.013999999999998 11.104000000000005 8.067999999999998 Z M 11 16.5 C 11 16.2238576250846 11.223857625084603 16 11.5 16 L 12.5 16 C 12.776142374915397 16 13 16.2238576250846 13 16.5 L 13 17.5 C 13 17.7761423749154 12.776142374915397 18 12.5 18 L 11.5 18 C 11.223857625084603 18 11 17.7761423749154 11 17.5 L 11 16.5 Z" stroke-linecap="round" />
</g>
		<g transform="matrix(1 0 0 1 0 0)"  >
<path style="stroke: none; stroke-width: 1; stroke-dasharray: none; stroke-linecap: butt; stroke-dashoffset: 0; stroke-linejoin: miter; stroke-miterlimit: 4; fill: rgb(255,255,255); fill-rule: nonzero; opacity: 1;" vector-effect="non-scaling-stroke"  transform=" translate(-12, -12)" d="M 22 12 C 22 17.523 17.523 22 12 22 C 6.477 22 2 17.523 2 12 C 2 6.477 6.477 2 12 2 C 17.523 2 22 6.477 22 12 Z M 20 12 C 20 7.581722001353652 16.418277998646346 4 12 4 C 7.581722001353652 4 4 7.5817220013536515 4 11.999999999999998 C 4 16.418277998646346 7.581722001353652 20 12 20 C 16.418277998646346 20 20 16.418277998646346 20 12 Z" stroke-linecap="round" />
</g>
</g>
</g>
</svg>