<?xml version="1.0" encoding="UTF-8" standalone="no" ?>
<!DOCTYPE svg PUBLIC "-//W3C//DTD SVG 1.1//EN" "http://www.w3.org/Graphics/SVG/1.1/DTD/svg11.dtd">
<svg xmlns="http://www.w3.org/2000/svg" xmlns:xlink="http://www.w3.org/1999/xlink" version="1.1" width="1080" height="1080" viewBox="0 0 1080 1080" xml:space="preserve">
<desc>Created with Fabric.js 5.2.4</desc>
<defs>
</defs>
<rect x="0" y="0" width="100%" height="100%" fill="transparent"></rect>
<g transform="matrix(1 0 0 1 540 540)" id="e2edc9b0-2ce0-4d1c-affa-7a87703252ae"  >
</g>
<g transform="matrix(1 0 0 1 540 540)" id="c13ede39-bfcc-456a-957e-a17291cc78a6"  >
<rect style="stroke: none; stroke-width: 1; stroke-dasharray: none; stroke-linecap: butt; stroke-dashoffset: 0; stroke-linejoin: miter; stroke-miterlimit: 4; fill: rgb(255,255,255); fill-rule: nonzero; opacity: 1; visibility: hidden;" vector-effect="non-scaling-stroke"  x="-540" y="-540" rx="0" ry="0" width="1080" height="1080" />
</g>
<g transform="matrix(2.11 0 0 2.11 540 540)" id="Layer_2"  >
<path style="stroke: none; stroke-width: 1; stroke-dasharray: none; stroke-linecap: butt; stroke-dashoffset: 0; stroke-linejoin: miter; stroke-miterlimit: 4; fill: rgb(255,107,0); fill-rule: nonzero; opacity: 1;"  transform=" translate(-256, -266)" d="M 159.4 61 L 159.4 429.3 L 69 389 L 69 295.6 L 82.2 264.6 L 82.2 155 L 69 124 L 69 61.4 L 159.4 61 z M 249.5 61 L 172.5 61 L 172.5 436 L 249.5 471 L 249.5 61 z M 443 123.6 L 443 61 L 352.6 61 L 352.6 430.1 L 443 389 L 443 295.6 L 429.8 264.6 L 429.8 155 L 443 123.6 z M 339.6 61 L 262.6 61 L 262.6 471 L 339.6 436 L 339.6 61 z" stroke-linecap="round" />
</g>
</svg>