<?xml version="1.0" encoding="UTF-8" standalone="no" ?>
<!DOCTYPE svg PUBLIC "-//W3C//DTD SVG 1.1//EN" "http://www.w3.org/Graphics/SVG/1.1/DTD/svg11.dtd">
<svg xmlns="http://www.w3.org/2000/svg" xmlns:xlink="http://www.w3.org/1999/xlink" version="1.1" width="1080" height="1080" viewBox="0 0 1080 1080" xml:space="preserve">
<desc>Created with Fabric.js 5.2.4</desc>
<defs>
</defs>
<rect x="0" y="0" width="100%" height="100%" fill="transparent"></rect>
<g transform="matrix(1 0 0 1 540 540)" id="e2edc9b0-2ce0-4d1c-affa-7a87703252ae"  >
</g>
<g transform="matrix(1 0 0 1 540 540)" id="c13ede39-bfcc-456a-957e-a17291cc78a6"  >
<rect style="stroke: none; stroke-width: 1; stroke-dasharray: none; stroke-linecap: butt; stroke-dashoffset: 0; stroke-linejoin: miter; stroke-miterlimit: 4; fill: rgb(255,255,255); fill-rule: nonzero; opacity: 1; visibility: hidden;" vector-effect="non-scaling-stroke"  x="-540" y="-540" rx="0" ry="0" width="1080" height="1080" />
</g>
<g transform="matrix(24.27 0 0 24.27 540 540)"  >
<g style=""   >
		<g transform="matrix(1 0 0 1 0 12.85)" id="Layer_2"  >
<path style="stroke: none; stroke-width: 1; stroke-dasharray: none; stroke-linecap: butt; stroke-dashoffset: 0; stroke-linejoin: miter; stroke-miterlimit: 4; fill: rgb(0,174,255); fill-rule: nonzero; opacity: 1;" vector-effect="non-scaling-stroke"  transform=" translate(-22.25, -35.1)" d="M 39.9 29.5 L 30.299999999999997 29.5 L 30.299999999999997 31.1 L 39.9 31.1 C 41.199999999999996 31.1 42.199999999999996 30.1 42.199999999999996 28.8 L 42.199999999999996 27.2 C 42.2 28.5 41.2 29.5 39.9 29.5 z M 28 41.4 L 16.5 41.4 C 15.2 41.4 14.2 40.4 14.2 39.1 L 14.2 40.7 C 14.2 42 15.2 43 16.5 43 L 28 43 C 29.3 43 30.3 42 30.3 40.7 L 30.3 39.1 C 30.3 40.4 29.3 41.4 28 41.4 z M 14.2 29.5 L 4.6 29.5 C 3.3 29.5 2.3 28.5 2.3 27.2 L 2.3 28.8 C 2.3 30.1 3.3 31.1 4.6 31.1 L 14.2 31.1 L 14.2 29.5 z" stroke-linecap="round" />
</g>
		<g transform="matrix(1 0 0 1 0 -0.8)" id="Layer_2"  >
<path style="stroke: none; stroke-width: 1; stroke-dasharray: none; stroke-linecap: butt; stroke-dashoffset: 0; stroke-linejoin: miter; stroke-miterlimit: 4; fill: rgb(255,255,255); fill-rule: nonzero; opacity: 1;" vector-effect="non-scaling-stroke"  transform=" translate(-22.25, -21.45)" d="M 39.9 13.4 L 30.299999999999997 13.4 L 30.299999999999997 3.8000000000000007 C 30.299999999999997 2.500000000000001 29.299999999999997 1.5000000000000009 27.999999999999996 1.5000000000000009 L 16.499999999999996 1.5000000000000009 C 15.199999999999996 1.5000000000000009 14.199999999999996 2.500000000000001 14.199999999999996 3.8000000000000007 L 14.199999999999996 13.4 L 4.599999999999996 13.4 C 3.2999999999999963 13.4 2.2999999999999963 14.4 2.2999999999999963 15.7 L 2.2999999999999963 27.2 C 2.2999999999999963 28.5 3.2999999999999963 29.5 4.599999999999996 29.5 L 14.199999999999996 29.5 L 14.199999999999996 39.1 C 14.199999999999996 40.4 15.199999999999996 41.4 16.499999999999996 41.4 L 27.999999999999996 41.4 C 29.299999999999997 41.4 30.299999999999997 40.4 30.299999999999997 39.1 L 30.299999999999997 29.5 L 39.9 29.5 C 41.199999999999996 29.5 42.199999999999996 28.5 42.199999999999996 27.2 L 42.199999999999996 15.7 C 42.2 14.4 41.2 13.4 39.9 13.4 z" stroke-linecap="round" />
</g>
		<g transform="matrix(1 0 0 1 0.15 -0.65)" id="Layer_2"  >
<linearGradient id="SVGID_SVGID_1__32" gradientUnits="userSpaceOnUse" gradientTransform="matrix(1 0 0 1 0 0)"  x1="22.4046" y1="4.8548" x2="22.4046" y2="37.5721">
<stop offset="0%" style="stop-color:rgb(13,136,205);stop-opacity: 1"/>
<stop offset="100%" style="stop-color:rgb(0,67,98);stop-opacity: 1"/>
</linearGradient>
<path style="stroke: none; stroke-width: 1; stroke-dasharray: none; stroke-linecap: butt; stroke-dashoffset: 0; stroke-linejoin: miter; stroke-miterlimit: 4; fill: url(#SVGID_SVGID_1__32); fill-rule: nonzero; opacity: 1;" vector-effect="non-scaling-stroke"  transform=" translate(-22.4, -21.6)" d="M 25.6 25.6 C 25.6 25.8 25.700000000000003 26.1 25.700000000000003 26.400000000000002 C 25.700000000000003 26.500000000000004 25.700000000000003 26.6 25.700000000000003 26.6 C 25.6 26.900000000000002 25.500000000000004 27.3 25.500000000000004 27.3 C 25.500000000000004 27.3 25.200000000000003 27.7 25.100000000000005 28 C 25.000000000000004 28.4 24.900000000000006 29 24.900000000000006 29 L 24.900000000000006 29 L 24.900000000000006 29 C 24.900000000000006 29 24.300000000000004 29.3 24.000000000000007 29.5 C 23.700000000000006 29.7 23.400000000000006 29.9 23.300000000000008 30.1 L 23.300000000000008 30.1 L 23.300000000000008 30.1 C 23.300000000000008 30.1 22.60000000000001 30.200000000000003 22.40000000000001 30.3 C 22.40000000000001 30.3 22.40000000000001 30.3 22.40000000000001 30.3 C 22.40000000000001 30.400000000000002 22.300000000000008 30.400000000000002 22.300000000000008 30.400000000000002 C 22.10000000000001 30.400000000000002 22.10000000000001 30.200000000000003 22.000000000000007 30.200000000000003 C 22.000000000000007 30.200000000000003 21.900000000000006 30.200000000000003 21.800000000000008 30.300000000000004 C 21.700000000000006 30.400000000000006 21.500000000000007 30.500000000000004 21.300000000000008 30.500000000000004 C 21.000000000000007 30.500000000000004 20.500000000000007 30.400000000000002 20.40000000000001 30.400000000000002 C 20.40000000000001 30.400000000000002 20.300000000000008 30.400000000000002 20.20000000000001 30.400000000000002 C 20.00000000000001 30.400000000000002 19.80000000000001 30.400000000000002 19.70000000000001 30.400000000000002 C 19.70000000000001 30.400000000000002 19.70000000000001 30.400000000000002 19.60000000000001 30.400000000000002 L 19.60000000000001 30.500000000000004 L 19.500000000000007 30.500000000000004 C 19.400000000000006 30.400000000000002 19.400000000000006 30.400000000000002 19.300000000000008 30.400000000000002 L 19.200000000000006 30.3 L 19.300000000000008 30.3 C 19.300000000000008 30.3 19.60000000000001 30.2 19.700000000000006 30.1 L 19.700000000000006 30.1 C 19.700000000000006 30.1 19.700000000000006 30.1 19.700000000000006 30.1 C 19.700000000000006 30.1 19.700000000000006 30.1 19.700000000000006 30.1 C 19.700000000000006 30.1 19.700000000000006 30 19.700000000000006 30 C 19.700000000000006 29.9 19.800000000000008 29.8 19.800000000000008 29.7 C 19.90000000000001 29.4 19.90000000000001 29.099999999999998 20.000000000000007 28.9 C 20.000000000000007 28.099999999999998 20.10000000000001 27.599999999999998 20.10000000000001 27.2 C 20.10000000000001 27 20.10000000000001 26.8 20.10000000000001 26.5 C 20.10000000000001 26.4 20.000000000000007 25.6 20.000000000000007 25.1 C 20.000000000000007 24.200000000000003 20.10000000000001 23.3 20.10000000000001 22.700000000000003 C 20.10000000000001 22.6 20.10000000000001 22.500000000000004 20.10000000000001 22.400000000000002 L 20.10000000000001 22.3 L 20.20000000000001 22.3 C 20.30000000000001 22.3 20.40000000000001 22.2 20.40000000000001 22.2 L 20.40000000000001 21.5 L 20 21.2 L 20 20.2 C 20 20 20.1 19.9 20.1 19.9 C 20.1 19.9 20.1 19.799999999999997 20.1 19.7 C 20.1 19.599999999999998 20.1 19.4 20.1 19.4 L 20 19 L 20 15.4 L 20 15.4 C 20.1 15.3 20.1 15.3 20.1 15.3 C 20.1 15.3 20.1 15.200000000000001 20.1 15.100000000000001 C 20.1 15.000000000000002 20.1 14.900000000000002 20.1 14.900000000000002 L 20.1 14.900000000000002 C 20.1 14.900000000000002 20.1 14.900000000000002 20 14.800000000000002 C 20 14.800000000000002 19.9 14.800000000000002 19.9 14.800000000000002 C 19.9 14.800000000000002 19.9 14.800000000000002 19.9 14.800000000000002 C 19.9 14.800000000000002 19.9 14.800000000000002 19.799999999999997 14.800000000000002 L 19.799999999999997 14.800000000000002 C 19.799999999999997 14.800000000000002 19.799999999999997 14.800000000000002 19.799999999999997 14.800000000000002 C 19.799999999999997 14.800000000000002 19.799999999999997 14.800000000000002 19.799999999999997 14.700000000000003 C 19.799999999999997 14.700000000000003 19.799999999999997 14.700000000000003 19.799999999999997 14.700000000000003 C 19.799999999999997 14.700000000000003 19.699999999999996 14.600000000000003 19.699999999999996 14.600000000000003 L 19.199999999999996 14.100000000000003 C 19.099999999999994 14.000000000000004 19.099999999999994 14.000000000000004 19.099999999999994 14.000000000000004 C 19.099999999999994 14.000000000000004 18.999999999999993 13.900000000000004 19.099999999999994 13.900000000000004 C 19.099999999999994 13.900000000000004 19.099999999999994 13.800000000000004 19.099999999999994 13.800000000000004 C 19.099999999999994 13.700000000000005 19.099999999999994 13.600000000000005 19.099999999999994 13.600000000000005 C 19.099999999999994 13.600000000000005 19.099999999999994 13.600000000000005 19.199999999999996 13.400000000000006 L 19.199999999999996 13.400000000000006 L 20 13.400000000000006 C 20.1 13.300000000000006 20.3 13.300000000000006 20.6 13.300000000000006 C 20.900000000000002 13.300000000000006 21.1 13.200000000000006 21.200000000000003 13.200000000000006 L 22.000000000000004 13.200000000000006 C 22.800000000000004 13.200000000000006 23.000000000000004 13.100000000000007 23.400000000000002 13.100000000000007 C 23.6 13.100000000000007 23.8 13.100000000000007 24.000000000000004 13.200000000000006 L 24.000000000000004 13.200000000000006 L 24.000000000000004 13.200000000000006 C 24.100000000000005 13.400000000000006 24.300000000000004 13.500000000000007 24.400000000000002 13.600000000000007 C 24.400000000000002 13.600000000000007 24.400000000000002 13.600000000000007 24.500000000000004 13.600000000000007 C 24.600000000000005 13.600000000000007 24.700000000000003 13.600000000000007 24.900000000000002 13.700000000000006 C 25.400000000000002 14.000000000000007 25.6 14.800000000000006 25.6 15.200000000000006 C 25.6 15.600000000000007 25.700000000000003 16.000000000000007 25.700000000000003 16.300000000000008 C 25.700000000000003 16.500000000000007 25.700000000000003 16.60000000000001 25.6 16.700000000000006 L 25.1 17.700000000000006 C 24.900000000000002 18.100000000000005 24.400000000000002 18.600000000000005 24.3 18.800000000000008 C 24.3 18.800000000000008 24.400000000000002 18.90000000000001 24.5 18.90000000000001 C 24.6 19.00000000000001 24.8 19.00000000000001 25 19.00000000000001 C 25.1 19.00000000000001 25.2 19.100000000000012 25.2 19.20000000000001 C 25.2 19.40000000000001 25.099999999999998 19.60000000000001 25 19.60000000000001 C 25 19.60000000000001 25 19.60000000000001 25 19.60000000000001 C 25 19.60000000000001 25 19.70000000000001 25 19.70000000000001 C 25 19.70000000000001 25.1 19.80000000000001 25.1 19.80000000000001 C 25.1 19.80000000000001 25.1 19.80000000000001 25.1 19.80000000000001 L 25.1 19.70000000000001 L 25.1 19.70000000000001 C 25.3 19.90000000000001 25.3 20.00000000000001 25.400000000000002 20.00000000000001 C 25.400000000000002 20.00000000000001 25.400000000000002 20.00000000000001 25.500000000000004 20.100000000000012 L 25.500000000000004 20.100000000000012 L 25.500000000000004 20.100000000000012 C 25.500000000000004 20.100000000000012 25.400000000000002 20.600000000000012 25.400000000000002 21.100000000000012 C 25.400000000000002 21.30000000000001 25.400000000000002 21.600000000000012 25.500000000000004 21.80000000000001 C 25.500000000000004 21.900000000000013 25.800000000000004 22.00000000000001 25.800000000000004 22.20000000000001 C 25.800000000000004 22.20000000000001 25.800000000000004 22.30000000000001 25.800000000000004 22.30000000000001 C 25.800000000000004 22.400000000000013 25.800000000000004 22.50000000000001 25.800000000000004 22.600000000000012 C 25.800000000000004 22.700000000000014 25.800000000000004 22.80000000000001 25.800000000000004 22.900000000000013 C 25.800000000000004 22.900000000000013 25.800000000000004 22.900000000000013 25.800000000000004 23.000000000000014 C 25.800000000000004 23.400000000000013 25.900000000000006 23.900000000000013 25.900000000000006 24.300000000000015 C 25.9 24.9 25.8 25.2 25.6 25.6 C 25.6 25.5 25.6 25.5 25.6 25.6 z M 23.7 15.7 C 23.7 15.7 23.7 15.7 23.7 15.7 L 23.9 15.5 C 23.7 15.4 23.5 15.6 23.299999999999997 15.2 L 23.199999999999996 15.2 L 22.599999999999994 15.299999999999999 L 22.599999999999994 15.2 C 22.599999999999994 15.2 22.599999999999994 15.2 22.599999999999994 15.2 C 22.599999999999994 15.2 22.599999999999994 15.2 22.499999999999993 15.2 C 22.499999999999993 15.299999999999999 22.499999999999993 15.299999999999999 22.499999999999993 15.399999999999999 C 22.499999999999993 15.499999999999998 22.499999999999993 15.499999999999998 22.39999999999999 15.599999999999998 L 22.39999999999999 18.299999999999997 C 22.499999999999993 18.299999999999997 22.499999999999993 18.299999999999997 22.499999999999993 18.299999999999997 L 22.499999999999993 18.299999999999997 C 22.599999999999994 18.299999999999997 22.599999999999994 18.299999999999997 22.699999999999992 18.299999999999997 C 22.999999999999993 18.199999999999996 22.89999999999999 17.499999999999996 23.699999999999992 17.4 C 23.699999999999992 17.299999999999997 23.699999999999992 17.2 23.699999999999992 17.099999999999998 C 23.699999999999992 16.799999999999997 23.699999999999992 16.4 23.799999999999994 16.2 C 23.8 16.1 23.7 15.9 23.7 15.7 z M 23.8 25.4 C 23.8 25.299999999999997 23.900000000000002 25.2 23.8 25.2 C 23.8 25.2 23.8 25.099999999999998 23.7 25.099999999999998 L 23.599999999999998 25.099999999999998 L 23.7 25.099999999999998 C 23.7 25.099999999999998 23.8 24.999999999999996 23.8 24.999999999999996 C 23.8 24.799999999999997 23.6 24.499999999999996 23.6 24.299999999999997 C 23.6 24.199999999999996 23.6 23.999999999999996 23.8 23.999999999999996 C 23.8 23.699999999999996 23.7 23.599999999999998 23.7 23.599999999999998 C 23.599999999999998 23.499999999999996 23.599999999999998 23.499999999999996 23.599999999999998 23.2 C 23.599999999999998 23 23.7 22.8 23.7 22.599999999999998 C 23.7 22.499999999999996 23.7 22.499999999999996 23.7 22.499999999999996 L 23.7 22.499999999999996 L 23.7 22.499999999999996 C 23.7 22.399999999999995 23.7 22.399999999999995 23.7 22.299999999999997 C 23.7 22.099999999999998 23.599999999999998 21.999999999999996 23.599999999999998 21.999999999999996 L 23.499999999999996 21.899999999999995 L 23.599999999999998 21.899999999999995 C 23.599999999999998 21.899999999999995 23.599999999999998 21.899999999999995 23.599999999999998 21.899999999999995 C 23.599999999999998 21.899999999999995 23.499999999999996 21.799999999999994 23.499999999999996 21.699999999999996 C 23.499999999999996 21.699999999999996 23.499999999999996 21.599999999999994 23.499999999999996 21.599999999999994 C 23.499999999999996 21.599999999999994 23.499999999999996 21.599999999999994 23.499999999999996 21.499999999999993 C 23.499999999999996 21.39999999999999 23.299999999999997 21.199999999999992 23.299999999999997 21.199999999999992 C 22.999999999999996 21.09999999999999 22.699999999999996 20.799999999999994 22.699999999999996 20.699999999999992 L 22.4 20 C 22.4 20.2 22.4 20.5 22.4 20.8 C 22.4 21 22.4 21.2 22.4 21.400000000000002 L 22.4 21.400000000000002 L 22.4 21.400000000000002 C 22.299999999999997 21.500000000000004 22.299999999999997 21.6 22.299999999999997 21.700000000000003 C 22.299999999999997 22.000000000000004 22.4 22.300000000000004 22.4 22.300000000000004 L 22.4 22.300000000000004 L 22.2 23.000000000000004 L 22.2 23.000000000000004 C 22.099999999999998 23.000000000000004 22.099999999999998 23.100000000000005 22.099999999999998 23.100000000000005 C 22.099999999999998 23.100000000000005 22.099999999999998 23.100000000000005 22.099999999999998 23.100000000000005 C 22.099999999999998 23.200000000000006 22.099999999999998 23.200000000000006 22.2 23.300000000000004 L 22.2 23.300000000000004 L 22.2 26.000000000000004 L 22.2 26.000000000000004 C 22.099999999999998 26.100000000000005 22.099999999999998 26.100000000000005 22.099999999999998 26.200000000000003 C 22.099999999999998 26.300000000000004 22.099999999999998 26.300000000000004 22.099999999999998 26.300000000000004 C 22.099999999999998 26.300000000000004 22.099999999999998 26.300000000000004 22.099999999999998 26.300000000000004 C 22.099999999999998 26.400000000000006 22.099999999999998 26.800000000000004 22.099999999999998 27.400000000000006 C 22.099999999999998 27.400000000000006 22.099999999999998 27.700000000000006 22.099999999999998 27.900000000000006 C 22.099999999999998 27.900000000000006 22.099999999999998 27.900000000000006 22.099999999999998 27.900000000000006 C 22.099999999999998 27.900000000000006 22.099999999999998 27.900000000000006 22.099999999999998 27.900000000000006 C 22.099999999999998 28.000000000000007 21.999999999999996 28.100000000000005 21.9 28.200000000000006 C 21.9 28.300000000000008 21.799999999999997 28.300000000000008 21.799999999999997 28.400000000000006 C 21.9 28.400000000000006 22.099999999999998 28.400000000000006 22.199999999999996 28.300000000000004 L 22.499999999999996 28.000000000000004 L 22.499999999999996 28.000000000000004 C 22.699999999999996 28.000000000000004 22.999999999999996 27.500000000000004 23.199999999999996 27.300000000000004 C 23.399999999999995 27.100000000000005 23.299999999999997 26.600000000000005 23.399999999999995 26.100000000000005 L 23.399999999999995 26.100000000000005 L 23.399999999999995 26.100000000000005 L 23.399999999999995 26.100000000000005 C 23.399999999999995 26.100000000000005 23.399999999999995 26.100000000000005 23.399999999999995 26.100000000000005 C 23.399999999999995 26.100000000000005 23.399999999999995 26.000000000000004 23.399999999999995 26.000000000000004 C 23.399999999999995 25.900000000000002 23.499999999999996 25.800000000000004 23.499999999999996 25.700000000000003 C 23.7 25.8 23.8 25.6 23.8 25.4 C 23.8 25.5 23.8 25.5 23.8 25.4 C 23.8 25.5 23.8 25.5 23.8 25.4 z M 11 18.8 C 11 18.400000000000002 10.4 18.2 10 18.5 L 6.5 21.1 C 6.3 21.3 6.3 21.5 6.5 21.700000000000003 L 10 24.300000000000004 C 10.4 24.600000000000005 11 24.400000000000006 11 24.000000000000004 L 11 18.8 z M 19.6 9.7 L 24.900000000000002 9.7 C 25.3 9.7 25.500000000000004 9.1 25.200000000000003 8.7 L 22.6 5.199999999999999 C 22.400000000000002 4.999999999999999 22.200000000000003 4.999999999999999 22 5.199999999999999 L 19.4 8.7 C 19 9.1 19.2 9.7 19.6 9.7 z M 24.9 33.5 L 19.599999999999998 33.5 C 19.2 33.5 18.999999999999996 34.1 19.299999999999997 34.5 L 21.9 38 C 22.099999999999998 38.2 22.299999999999997 38.2 22.5 38 L 25.1 34.5 C 25.4 34.1 25.3 33.5 24.9 33.5 z M 38.3 21.1 L 34.8 18.5 C 34.4 18.2 33.8 18.4 33.8 18.8 L 33.8 24.1 C 33.8 24.5 34.4 24.700000000000003 34.8 24.400000000000002 L 38.3 21.8 C 38.5 21.6 38.5 21.3 38.3 21.1 z" stroke-linecap="round" />
</g>
</g>
</g>
</svg>