<?xml version="1.0" encoding="UTF-8" standalone="no" ?>
<!DOCTYPE svg PUBLIC "-//W3C//DTD SVG 1.1//EN" "http://www.w3.org/Graphics/SVG/1.1/DTD/svg11.dtd">
<svg xmlns="http://www.w3.org/2000/svg" xmlns:xlink="http://www.w3.org/1999/xlink" version="1.1" width="1080" height="1080" viewBox="0 0 1080 1080" xml:space="preserve">
<desc>Created with Fabric.js 5.2.4</desc>
<defs>
</defs>
<rect x="0" y="0" width="100%" height="100%" fill="transparent"></rect>
<g transform="matrix(1 0 0 1 540 540)" id="e2edc9b0-2ce0-4d1c-affa-7a87703252ae"  >
</g>
<g transform="matrix(1 0 0 1 540 540)" id="c13ede39-bfcc-456a-957e-a17291cc78a6"  >
<rect style="stroke: none; stroke-width: 1; stroke-dasharray: none; stroke-linecap: butt; stroke-dashoffset: 0; stroke-linejoin: miter; stroke-miterlimit: 4; fill: rgb(255,255,255); fill-rule: nonzero; opacity: 1; visibility: hidden;" vector-effect="non-scaling-stroke"  x="-540" y="-540" rx="0" ry="0" width="1080" height="1080" />
</g>
<g transform="matrix(2.11 0 0 2.11 540 540)"  >
<g style=""   >
		<g transform="matrix(1 0 0 1 0.06 -0.28)" id="Layer_1"  >
<path style="stroke: none; stroke-width: 1; stroke-dasharray: none; stroke-linecap: butt; stroke-dashoffset: 0; stroke-linejoin: miter; stroke-miterlimit: 4; fill: rgb(255,255,255); fill-rule: nonzero; opacity: 1;" vector-effect="non-scaling-stroke"  transform=" translate(-256.06, -255.72)" d="M 487.7 368.1 C 487.7 365.6 487.7 361.8 487.7 359.20000000000005 C 487.7 357.90000000000003 487.7 357.30000000000007 487.7 356.00000000000006 C 487.7 352.80000000000007 487.7 349.70000000000005 487.09999999999997 347.1000000000001 C 486.49999999999994 343.9000000000001 487.7 338.2000000000001 486.49999999999994 336.30000000000007 C 486.49999999999994 335.70000000000005 487.09999999999997 335.70000000000005 487.79999999999995 335.00000000000006 C 487.79999999999995 285.00000000000006 487.79999999999995 235.10000000000005 487.79999999999995 185.70000000000005 C 487.79999999999995 172.40000000000003 487.79999999999995 159.10000000000005 487.79999999999995 145.80000000000004 C 487.79999999999995 142.00000000000003 488.4 136.90000000000003 487.19999999999993 133.80000000000004 C 487.19999999999993 132.50000000000003 487.19999999999993 131.30000000000004 486.5999999999999 130.00000000000003 C 485.2999999999999 129.40000000000003 484.0999999999999 129.40000000000003 482.7999999999999 128.70000000000002 C 481.4999999999999 128 480.2999999999999 127.40000000000002 478.9999999999999 127.40000000000002 C 475.1999999999999 127.40000000000002 471.39999999999986 127.40000000000002 467.5999999999999 127.40000000000002 C 454.2999999999999 127.40000000000002 441.69999999999993 127.40000000000002 428.3999999999999 127.40000000000002 C 407.49999999999994 127.40000000000002 387.2999999999999 127.40000000000002 366.3999999999999 127.40000000000002 C 364.49999999999994 127.40000000000002 362.5999999999999 127.40000000000002 360.69999999999993 126.80000000000003 C 358.79999999999995 126.20000000000003 356.29999999999995 127.40000000000002 354.3999999999999 126.80000000000003 C 349.99999999999994 126.80000000000003 345.49999999999994 126.80000000000003 341.69999999999993 126.80000000000003 C 339.19999999999993 126.80000000000003 335.99999999999994 126.80000000000003 332.79999999999995 126.80000000000003 C 329.59999999999997 126.80000000000003 327.09999999999997 126.80000000000003 323.9 126.80000000000003 C 321.4 126.80000000000003 318.79999999999995 126.80000000000003 315.7 126.80000000000003 C 313.2 127.40000000000002 310 126.80000000000003 307.5 126.80000000000003 C 303.7 126.80000000000003 298.6 127.40000000000002 295.5 126.80000000000003 C 293 126.80000000000003 290.4 126.80000000000003 287.9 126.80000000000003 C 286 126.20000000000003 282.2 127.40000000000002 279.7 126.80000000000003 C 277.8 126.20000000000003 274 127.40000000000002 271.5 126.80000000000003 C 269.6 126.20000000000003 263.9 126.80000000000003 261.4 126.80000000000003 C 258.2 126.80000000000003 254.39999999999998 126.80000000000003 251.29999999999998 126.80000000000003 C 249.99999999999997 126.80000000000003 247.49999999999997 126.80000000000003 246.89999999999998 126.80000000000003 C 246.29999999999998 126.80000000000003 245.59999999999997 127.40000000000002 245.59999999999997 128.10000000000002 C 242.39999999999998 128.10000000000002 241.79999999999995 128.10000000000002 239.89999999999998 128.10000000000002 C 224.09999999999997 128.10000000000002 208.29999999999998 128.10000000000002 192.49999999999997 128.10000000000002 C 184.29999999999998 128.10000000000002 171.59999999999997 128.10000000000002 169.09999999999997 128.10000000000002 C 164.69999999999996 128.10000000000002 160.89999999999998 128.10000000000002 156.39999999999998 128.10000000000002 C 138.09999999999997 128.10000000000002 120.29999999999998 128.10000000000002 101.99999999999997 128.10000000000002 C 100.69999999999997 128.10000000000002 99.49999999999997 128.10000000000002 98.19999999999997 128.10000000000002 C 94.99999999999997 128.10000000000002 90.59999999999998 128.10000000000002 86.79999999999997 128.10000000000002 C 74.79999999999997 128.10000000000002 63.39999999999997 128.10000000000002 51.39999999999997 128.10000000000002 C 47.59999999999997 128.10000000000002 43.199999999999974 128.10000000000002 39.39999999999997 128.10000000000002 C 37.49999999999997 128.10000000000002 33.69999999999997 127.50000000000003 32.39999999999997 128.10000000000002 C 31.79999999999997 128.10000000000002 30.49999999999997 128.10000000000002 29.89999999999997 128.10000000000002 C 28.59999999999997 128.10000000000002 27.99999999999997 128.70000000000002 26.69999999999997 129.40000000000003 C 26.69999999999997 133.80000000000004 26.69999999999997 138.90000000000003 26.69999999999997 143.30000000000004 C 26.69999999999997 145.80000000000004 26.69999999999997 147.70000000000005 25.39999999999997 149.00000000000003 C 25.39999999999997 151.50000000000003 25.39999999999997 155.30000000000004 25.39999999999997 157.20000000000002 C 25.99999999999997 159.10000000000002 25.39999999999997 161.00000000000003 25.39999999999997 162.3 C 25.39999999999997 162.9 25.39999999999997 164.20000000000002 25.39999999999997 164.8 C 25.39999999999997 167.3 25.39999999999997 169.9 25.39999999999997 172.4 C 25.39999999999997 173 25.39999999999997 174.3 25.39999999999997 174.9 C 25.39999999999997 177.4 25.39999999999997 180.6 25.39999999999997 182.5 C 25.39999999999997 185 25.39999999999997 186.9 25.39999999999997 189.5 C 25.39999999999997 190.1 25.39999999999997 192 25.39999999999997 192.7 C 25.39999999999997 212.29999999999998 25.39999999999997 231.89999999999998 25.39999999999997 251.5 C 25.39999999999997 255.9 25.39999999999997 260.4 25.39999999999997 265.4 C 25.39999999999997 267.9 25.99999999999997 269.79999999999995 24.09999999999997 271.09999999999997 C 24.09999999999997 273.59999999999997 24.09999999999997 276.79999999999995 24.69999999999997 279.29999999999995 C 25.299999999999972 280.59999999999997 24.69999999999997 281.79999999999995 24.69999999999997 283.09999999999997 C 25.299999999999972 284.99999999999994 24.69999999999997 287.49999999999994 25.299999999999972 289.4 C 25.299999999999972 321.7 25.299999999999972 352.7 25.299999999999972 384.9 C 51.199999999999974 384.9 76.49999999999997 384.9 102.49999999999997 384.9 C 103.79999999999997 384.29999999999995 105.69999999999997 384.29999999999995 106.89999999999998 383.59999999999997 C 108.79999999999998 383.59999999999997 110.09999999999998 383.59999999999997 111.99999999999997 383.59999999999997 C 113.29999999999997 383.59999999999997 115.19999999999997 383.59999999999997 116.39999999999998 383.59999999999997 C 118.89999999999998 384.2 122.09999999999998 383.59999999999997 123.99999999999997 383.59999999999997 C 126.49999999999997 384.2 129.09999999999997 382.99999999999994 131.59999999999997 383.59999999999997 C 132.89999999999998 383.59999999999997 134.09999999999997 383.59999999999997 135.39999999999998 383.59999999999997 C 137.89999999999998 383.59999999999997 139.79999999999998 383.59999999999997 142.39999999999998 383.59999999999997 C 143.7 383.59999999999997 146.2 383.59999999999997 147.49999999999997 383.59999999999997 C 155.09999999999997 383.59999999999997 162.69999999999996 383.59999999999997 170.29999999999998 383.59999999999997 C 171.6 383.59999999999997 174.7 383.59999999999997 176.6 383.59999999999997 C 181 383.59999999999997 184.79999999999998 383.59999999999997 189.29999999999998 383.59999999999997 C 201.99999999999997 383.59999999999997 215.2 383.59999999999997 227.89999999999998 383.59999999999997 C 234.89999999999998 383.59999999999997 242.39999999999998 383.59999999999997 249.39999999999998 383.59999999999997 C 251.29999999999998 384.2 255.09999999999997 384.2 257.59999999999997 383.59999999999997 C 258.9 383.59999999999997 260.79999999999995 383.59999999999997 261.4 383.59999999999997 C 262.7 383.59999999999997 264.59999999999997 383.59999999999997 265.2 383.59999999999997 C 267.7 383.59999999999997 270.3 383.59999999999997 272.8 383.59999999999997 C 274.1 383.59999999999997 275.3 383.59999999999997 276.6 383.59999999999997 C 277.20000000000005 383.59999999999997 281 382.99999999999994 281.70000000000005 383.59999999999997 C 284.20000000000005 384.2 288.70000000000005 383.59999999999997 291.20000000000005 383.59999999999997 C 292.50000000000006 383.59999999999997 293.70000000000005 383.59999999999997 295.00000000000006 383.59999999999997 C 296.30000000000007 383.59999999999997 299.40000000000003 383.59999999999997 302.00000000000006 383.59999999999997 C 303.30000000000007 383.59999999999997 305.80000000000007 383.59999999999997 307.70000000000005 383.59999999999997 C 311.50000000000006 383.59999999999997 314.70000000000005 383.59999999999997 318.50000000000006 383.59999999999997 C 341.90000000000003 383.59999999999997 364.70000000000005 383.59999999999997 388.1 383.59999999999997 C 405.20000000000005 383.59999999999997 422.90000000000003 383.59999999999997 440 383.59999999999997 C 446.3 382.99999999999994 453.3 382.99999999999994 459.6 382.29999999999995 C 461.5 382.9 464.70000000000005 382.9 466.6 383.59999999999997 C 472.90000000000003 383.59999999999997 479.3 383.59999999999997 485.6 383.59999999999997 C 488.3 377.6 488.3 373.8 487.7 368.1 z M 351.7 243.5 C 351.09999999999997 244.8 351.7 246.7 351.7 247.9 C 351.09999999999997 249.20000000000002 351.7 251.1 351.7 253 C 351.09999999999997 254.3 351.7 256.2 351.7 257.4 C 351.7 259.9 351.7 261.79999999999995 351.7 264.4 C 351.7 265 351.7 266.29999999999995 351.7 266.9 C 351.7 290.9 351.7 314.29999999999995 351.7 338.4 C 351.7 347.9 351.7 357.4 351.7 366.9 C 351.09999999999997 368.2 349.8 369.4 349.2 370.7 C 347.9 370.7 346.7 370.7 346 370.7 C 335.9 370.7 325.1 370.7 315 370.7 C 313.1 370.7 310.6 370.7 308.7 370.7 C 307.4 370.09999999999997 304.9 369.4 302.4 370.09999999999997 C 301.09999999999997 370.09999999999997 299.2 370.09999999999997 298 370.09999999999997 C 294.2 370.7 289.1 370.09999999999997 285.3 370.7 C 284 370.7 282.1 370.7 280.90000000000003 370.7 C 279.70000000000005 370.7 278.40000000000003 370.7 277.1 370.7 C 275.20000000000005 371.3 273.3 370.7 271.40000000000003 370.7 C 267.6 370.7 263.8 370.7 260.00000000000006 370.7 C 245.50000000000006 370.7 231.50000000000006 370.7 217.00000000000006 370.7 C 158.80000000000007 370.7 100.60000000000005 370.7 42.40000000000006 370.7 C 42.40000000000006 338.4 42.40000000000006 306.2 42.40000000000006 273.9 C 42.40000000000006 265.7 42.40000000000006 258.09999999999997 42.40000000000006 250.49999999999997 C 42.40000000000006 247.99999999999997 42.40000000000006 245.39999999999998 42.40000000000006 243.49999999999997 C 42.40000000000006 241.59999999999997 42.40000000000006 239.69999999999996 42.40000000000006 238.39999999999998 C 42.40000000000006 237.79999999999998 42.40000000000006 236.49999999999997 42.40000000000006 235.89999999999998 C 42.40000000000006 233.39999999999998 42.40000000000006 229.59999999999997 42.40000000000006 226.99999999999997 C 42.40000000000006 223.79999999999998 42.40000000000006 219.99999999999997 42.40000000000006 216.89999999999998 C 42.40000000000006 207.39999999999998 41.80000000000006 197.29999999999998 41.80000000000006 187.79999999999998 C 41.80000000000006 185.29999999999998 41.80000000000006 182.1 41.80000000000006 179.6 C 41.80000000000006 179 41.80000000000006 177.1 41.80000000000006 176.4 C 41.80000000000006 175.1 42.40000000000006 175.1 43.10000000000006 173.9 C 43.70000000000006 173.3 43.10000000000006 170.1 43.10000000000006 168.8 C 43.10000000000006 164.4 43.10000000000006 159.3 43.10000000000006 154.9 C 43.10000000000006 153.6 43.70000000000006 149.8 43.10000000000006 149.20000000000002 C 43.10000000000006 147.9 42.50000000000006 142.9 43.10000000000006 142.20000000000002 C 43.70000000000006 141.60000000000002 48.20000000000006 140.9 50.10000000000006 140.9 C 51.400000000000055 140.9 52.60000000000006 140.9 53.900000000000055 140.9 C 55.20000000000005 140.9 56.400000000000055 140.9 57.70000000000005 140.9 C 60.20000000000005 140.9 62.800000000000054 140.9 65.30000000000005 140.9 C 84.90000000000006 140.9 104.50000000000006 140.9 123.50000000000006 140.9 C 172.20000000000005 140.9 220.30000000000007 140.9 269.00000000000006 140.9 C 294.90000000000003 140.9 320.20000000000005 140.9 346.20000000000005 140.9 C 348.70000000000005 141.5 351.30000000000007 142.20000000000002 353.80000000000007 142.20000000000002 C 353.80000000000007 151.10000000000002 353.20000000000005 159.9 353.20000000000005 168.8 C 353.20000000000005 190.3 353.20000000000005 211.8 353.20000000000005 232.70000000000002 C 353.20000000000005 234.60000000000002 353.20000000000005 236.50000000000003 353.20000000000005 238.4 C 353.20000000000005 239 353.80000000000007 240.3 353.80000000000007 240.9 C 352.3 241.6 352.3 242.9 351.7 243.5 z M 470.6 344.7 C 470.6 348.5 470.6 352.9 470.6 356.7 L 470 357.3 C 469.4 357.90000000000003 470 359.2 470 359.2 C 470 359.8 470 361.7 470 362.4 C 470 363 470 363 470 363 C 469.4 363 468.7 363.6 468.1 363.6 C 468.70000000000005 364.20000000000005 469.40000000000003 364.90000000000003 469.40000000000003 365.5 C 469.40000000000003 366.8 469.40000000000003 368.7 470.00000000000006 369.9 C 461.80000000000007 369.9 452.90000000000003 369.9 444.70000000000005 369.9 C 444.1 369.9 444.1 369.29999999999995 443.40000000000003 369.29999999999995 C 442.8 369.29999999999995 442.8 369.29999999999995 442.1 369.29999999999995 C 441.5 369.29999999999995 438.90000000000003 369.29999999999995 438.3 369.29999999999995 C 437.7 369.29999999999995 435.8 369.29999999999995 434.5 369.9 C 433.2 369.9 432 369.9 430.7 369.9 L 430.09999999999997 368.59999999999997 C 429.49999999999994 367.99999999999994 427.59999999999997 366.09999999999997 427.59999999999997 365.4 L 427.59999999999997 364.79999999999995 C 427.59999999999997 364.19999999999993 426.29999999999995 363.49999999999994 426.29999999999995 362.9 C 425.69999999999993 362.29999999999995 424.99999999999994 361.59999999999997 424.4 361 C 423.09999999999997 359.1 421.9 357.2 420 355.3 C 417.5 352.1 414.3 349 412.4 345.2 C 409.9 342 407.29999999999995 339.5 404.79999999999995 336.3 L 404.79999999999995 336.3 C 404.79999999999995 338.2 404.79999999999995 340.7 404.79999999999995 342.6 C 404.79999999999995 343.90000000000003 404.79999999999995 345.1 404.79999999999995 345.8 C 404.79999999999995 347.1 404.79999999999995 348.3 404.79999999999995 349.6 L 404.19999999999993 350.90000000000003 C 404.19999999999993 352.20000000000005 404.19999999999993 352.8 404.19999999999993 354.1 C 404.19999999999993 354.70000000000005 404.19999999999993 355.40000000000003 403.5999999999999 356 C 403.5999999999999 357.3 403.5999999999999 360.4 403.5999999999999 361.7 C 403.5999999999999 362.3 403.5999999999999 363.59999999999997 403.5999999999999 364.2 C 404.19999999999993 366.09999999999997 404.19999999999993 368 404.19999999999993 369.9 C 397.19999999999993 369.9 389.69999999999993 369.9 382.69999999999993 369.9 C 378.8999999999999 369.9 373.79999999999995 369.9 369.99999999999994 369.9 C 369.99999999999994 369.29999999999995 369.3999999999999 368.59999999999997 369.3999999999999 368 L 368.7999999999999 368 C 368.7999999999999 366.7 368.7999999999999 366.1 368.1999999999999 366.1 C 368.1999999999999 362.3 368.1999999999999 358.5 368.1999999999999 354.70000000000005 C 368.1999999999999 352.20000000000005 368.1999999999999 349.00000000000006 368.7999999999999 346.50000000000006 C 369.3999999999999 344.6000000000001 368.7999999999999 342.1000000000001 368.7999999999999 340.80000000000007 C 369.3999999999999 338.9000000000001 368.1999999999999 338.30000000000007 368.1999999999999 337.00000000000006 C 368.1999999999999 333.80000000000007 367.59999999999985 328.80000000000007 368.1999999999999 326.20000000000005 C 368.1999999999999 325.6 368.1999999999999 324.30000000000007 368.1999999999999 323.70000000000005 C 368.1999999999999 323.1 368.1999999999999 322.40000000000003 367.59999999999985 322.40000000000003 C 367.59999999999985 321.8 368.89999999999986 321.1 368.89999999999986 320.50000000000006 L 368.89999999999986 320.50000000000006 C 368.29999999999984 319.90000000000003 366.9999999999999 318.00000000000006 368.29999999999984 316.70000000000005 C 368.29999999999984 315.40000000000003 368.29999999999984 313.50000000000006 368.29999999999984 312.30000000000007 L 367.6999999999998 312.30000000000007 C 367.6999999999998 309.80000000000007 367.6999999999998 306.6000000000001 367.6999999999998 304.1000000000001 C 370.8999999999998 304.1000000000001 373.99999999999983 304.1000000000001 377.1999999999998 304.1000000000001 C 377.79999999999984 304.1000000000001 377.79999999999984 304.7000000000001 378.49999999999983 305.4000000000001 C 378.49999999999983 305.4000000000001 380.3999999999998 305.4000000000001 380.99999999999983 305.4000000000001 C 381.59999999999985 305.4000000000001 381.59999999999985 304.80000000000007 382.29999999999984 304.80000000000007 C 383.59999999999985 304.80000000000007 388.59999999999985 304.80000000000007 389.29999999999984 304.80000000000007 C 390.59999999999985 304.80000000000007 392.49999999999983 304.80000000000007 393.09999999999985 304.20000000000005 C 397.49999999999983 304.20000000000005 401.29999999999984 304.20000000000005 405.79999999999984 304.20000000000005 C 406.39999999999986 304.20000000000005 407.09999999999985 305.50000000000006 407.09999999999985 306.1 C 408.39999999999986 307.40000000000003 409.59999999999985 308.6 410.29999999999984 309.90000000000003 C 410.89999999999986 310.50000000000006 410.89999999999986 310.50000000000006 411.59999999999985 311.20000000000005 C 412.1999999999999 311.80000000000007 411.59999999999985 313.1 412.1999999999999 313.70000000000005 C 412.7999999999999 314.30000000000007 413.4999999999999 315.00000000000006 414.09999999999985 315.6 C 415.39999999999986 316.90000000000003 416.59999999999985 318.1 417.89999999999986 319.40000000000003 C 418.4999999999999 319.40000000000003 418.4999999999999 319.40000000000003 419.1999999999999 320.00000000000006 C 421.09999999999985 322.50000000000006 423.59999999999985 325.1000000000001 425.4999999999999 327.6000000000001 C 426.0999999999999 328.2000000000001 426.7999999999999 329.50000000000006 426.7999999999999 330.1000000000001 C 426.7999999999999 330.7000000000001 427.3999999999999 331.4000000000001 427.3999999999999 331.4000000000001 C 427.99999999999994 332.0000000000001 428.69999999999993 332.0000000000001 429.2999999999999 332.0000000000001 C 430.5999999999999 333.3000000000001 431.7999999999999 334.5000000000001 433.0999999999999 335.8000000000001 L 433.0999999999999 335.8000000000001 C 433.0999999999999 327.60000000000014 433.69999999999993 320.0000000000001 433.69999999999993 311.8000000000001 C 433.69999999999993 311.2000000000001 433.69999999999993 310.5000000000001 433.69999999999993 309.90000000000015 C 433.69999999999993 309.90000000000015 433.69999999999993 309.90000000000015 434.29999999999995 309.90000000000015 C 434.29999999999995 307.40000000000015 434.29999999999995 305.50000000000017 434.29999999999995 302.90000000000015 C 434.9 302.90000000000015 435.59999999999997 302.90000000000015 435.59999999999997 302.3000000000001 C 441.29999999999995 302.3000000000001 446.99999999999994 302.3000000000001 452.7 302.3000000000001 C 453.3 302.3000000000001 452.7 302.90000000000015 452.7 303.60000000000014 C 453.3 303.60000000000014 454 304.20000000000016 454 304.20000000000016 C 454.6 304.20000000000016 455.3 305.50000000000017 455.9 306.10000000000014 C 457.2 306.10000000000014 457.2 304.20000000000016 458.4 303.60000000000014 C 459.7 303.0000000000001 464.09999999999997 303.0000000000001 466.59999999999997 303.0000000000001 C 466.59999999999997 303.0000000000001 466.59999999999997 303.0000000000001 466.59999999999997 302.4000000000001 C 467.9 302.4000000000001 469.09999999999997 302.4000000000001 470.4 302.4000000000001 C 470.4 305.6000000000001 470.4 309.4000000000001 470.4 312.5000000000001 C 470.4 313.10000000000014 469.09999999999997 314.4000000000001 469.09999999999997 315.7000000000001 C 469.09999999999997 316.3000000000001 469.7 316.3000000000001 469.7 316.3000000000001 C 469.7 318.8000000000001 469.7 322.0000000000001 469.7 324.5000000000001 C 469.7 325.10000000000014 469.09999999999997 325.10000000000014 469.09999999999997 325.8000000000001 C 469.7 326.40000000000015 469.09999999999997 327.7000000000001 469.7 329.0000000000001 C 470.6 333.3 470.6 339.6 470.6 344.7 z M 472.5 257.4 C 472.5 258.7 472.5 259.9 472.5 261.2 L 472.5 261.2 C 472.5 261.8 472.5 263.7 472.5 264.4 C 472.5 265.7 472.5 267.59999999999997 472.5 268.79999999999995 C 472.5 269.4 472.5 270.69999999999993 472.5 271.29999999999995 C 472.5 271.9 472.5 273.19999999999993 472.5 273.79999999999995 C 471.9 276.29999999999995 471.2 278.9 469.3 280.09999999999997 C 464.2 283.9 459.2 285.79999999999995 452.90000000000003 287.7 C 450.40000000000003 288.3 448.50000000000006 288.3 445.90000000000003 289 C 445.3 289 444.6 289 443.40000000000003 289 C 440.20000000000005 289.6 437.1 289.6 434.50000000000006 290.3 C 433.90000000000003 290.3 433.20000000000005 290.3 432.6000000000001 290.3 C 430.7000000000001 290.90000000000003 428.80000000000007 290.3 426.9000000000001 290.3 C 426.30000000000007 290.3 425.6000000000001 290.3 425.0000000000001 290.3 C 423.7000000000001 290.90000000000003 419.3000000000001 290.90000000000003 418.0000000000001 290.3 C 414.8000000000001 290.3 412.3000000000001 290.3 409.10000000000014 290.3 C 404.70000000000016 289.7 400.90000000000015 289.7 396.40000000000015 289 C 395.8000000000001 289 395.8000000000001 288.4 395.10000000000014 287.7 C 394.5000000000001 287.7 393.8000000000001 288.3 393.20000000000016 287.7 C 391.3000000000002 287.09999999999997 389.40000000000015 287.09999999999997 388.10000000000014 286.4 C 387.5000000000001 286.4 386.8000000000001 287 386.8000000000001 286.4 C 386.2000000000001 286.4 384.90000000000015 285.79999999999995 384.3000000000001 285.79999999999995 C 383.0000000000001 285.19999999999993 381.8000000000001 285.19999999999993 380.5000000000001 285.19999999999993 C 376.7000000000001 283.8999999999999 373.5000000000001 281.99999999999994 370.4000000000001 279.49999999999994 C 367.9000000000001 277.59999999999997 367.2000000000001 275.09999999999997 366.6000000000001 271.8999999999999 C 366.6000000000001 271.2999999999999 366.6000000000001 269.99999999999994 366.6000000000001 269.3999999999999 C 366.6000000000001 268.0999999999999 367.2000000000001 264.99999999999994 366.6000000000001 263.69999999999993 C 366.6000000000001 263.0999999999999 366.6000000000001 261.79999999999995 366.6000000000001 261.19999999999993 L 367.2000000000001 261.19999999999993 C 367.2000000000001 259.8999999999999 367.8000000000001 259.29999999999995 367.8000000000001 257.99999999999994 C 367.8000000000001 257.3999999999999 367.2000000000001 256.69999999999993 367.2000000000001 256.69999999999993 C 367.2000000000001 256.0999999999999 366.6000000000001 254.79999999999993 366.6000000000001 254.19999999999993 C 366.6000000000001 252.29999999999993 366.6000000000001 250.39999999999992 366.6000000000001 248.49999999999994 C 366.6000000000001 243.39999999999995 366.6000000000001 235.79999999999995 368.50000000000006 232.69999999999993 C 369.80000000000007 230.79999999999993 371.70000000000005 230.19999999999993 373.6000000000001 228.89999999999992 C 374.2000000000001 228.29999999999993 374.9000000000001 227.5999999999999 375.50000000000006 227.5999999999999 C 378.70000000000005 225.6999999999999 383.1000000000001 225.0999999999999 387.50000000000006 223.7999999999999 C 391.90000000000003 222.4999999999999 397.00000000000006 221.8999999999999 402.00000000000006 221.2999999999999 C 403.30000000000007 221.2999999999999 407.1000000000001 220.6999999999999 407.70000000000005 221.2999999999999 C 408.30000000000007 221.2999999999999 409.00000000000006 220.6999999999999 409.00000000000006 220.6999999999999 C 409.6000000000001 220.6999999999999 410.90000000000003 220.6999999999999 411.50000000000006 220.6999999999999 C 414.00000000000006 220.0999999999999 416.6000000000001 220.6999999999999 419.70000000000005 220.6999999999999 C 422.8 220.6999999999999 426.70000000000005 220.6999999999999 429.20000000000005 221.2999999999999 C 429.80000000000007 221.2999999999999 430.50000000000006 221.2999999999999 430.50000000000006 221.2999999999999 C 432.40000000000003 221.2999999999999 434.30000000000007 221.2999999999999 436.20000000000005 221.8999999999999 C 437.50000000000006 222.4999999999999 439.40000000000003 221.8999999999999 440.6 222.4999999999999 C 444.40000000000003 223.7999999999999 448.8 223.7999999999999 452.6 224.9999999999999 C 455.1 225.59999999999988 457.70000000000005 226.2999999999999 459.6 227.4999999999999 C 460.90000000000003 228.09999999999988 461.5 228.7999999999999 462.8 228.7999999999999 C 462.8 229.3999999999999 462.8 230.0999999999999 462.8 230.6999999999999 C 464.1 230.6999999999999 464.1 230.0999999999999 464.7 229.3999999999999 C 466.59999999999997 231.2999999999999 468.5 231.8999999999999 469.8 234.4999999999999 C 470.40000000000003 236.3999999999999 470.40000000000003 238.8999999999999 471.1 241.4999999999999 C 471.1 242.09999999999988 471.1 242.7999999999999 471.1 243.3999999999999 C 471.1 244.6999999999999 471.1 246.59999999999988 471.1 247.7999999999999 C 473.1 249.8 472.5 254.2 472.5 257.4 z M 475 168.2 C 473.7 168.2 473.1 168.2 471.8 168.2 C 471.8 168.2 471.8 167.6 471.2 167.6 C 470.59999999999997 167.6 469.9 168.2 469.3 168.2 C 466.8 168.2 463.6 168.2 461.1 168.2 C 459.20000000000005 168.2 456.70000000000005 168.2 454.8 168.2 C 453.5 167.6 450.40000000000003 167.6 449.1 167.6 C 448.5 167.6 448.5 167.6 448.5 168.2 C 445.3 168.2 442.2 168.2 438.4 168.2 C 437.79999999999995 168.2 437.09999999999997 167.6 436.5 167.6 C 435.9 167.6 435.9 167.6 435.2 167.6 C 434.59999999999997 167.6 434.59999999999997 167 433.9 167 L 432 168.3 C 431.4 168.3 431.4 168.3 430.7 168.3 C 430.7 163.20000000000002 432 151.9 428.8 150 C 425.6 147.5 414.3 148.1 411.7 151.3 C 409.8 153.8 409.8 160.20000000000002 409.8 164.60000000000002 L 410.40000000000003 164.60000000000002 C 410.40000000000003 167.8 410.40000000000003 172.20000000000002 410.40000000000003 176.00000000000003 C 410.40000000000003 177.90000000000003 410.40000000000003 181.10000000000002 410.40000000000003 183.00000000000003 C 409.8 184.30000000000004 410.40000000000003 186.20000000000002 410.40000000000003 187.40000000000003 C 410.40000000000003 188.00000000000003 410.40000000000003 189.30000000000004 410.40000000000003 189.90000000000003 C 410.40000000000003 191.80000000000004 409.8 191.20000000000005 409.8 191.80000000000004 C 409.8 193.70000000000005 409.8 195.60000000000005 409.8 197.50000000000003 C 410.40000000000003 197.50000000000003 410.40000000000003 197.50000000000003 411.1 196.90000000000003 C 411.70000000000005 197.50000000000003 412.40000000000003 199.40000000000003 413.6 200.10000000000002 C 416.8 202.00000000000003 426.3 202.00000000000003 428.8 199.50000000000003 C 430.1 198.90000000000003 430.7 197.00000000000003 430.7 195.70000000000002 C 430.7 195.10000000000002 430.7 194.4 430.7 193.8 C 430.7 191.3 430.7 189.4 430.7 186.8 C 430.7 186.20000000000002 430.7 184.3 430.7 184.3 C 432 183 434.5 184.9 436.4 184.3 C 439.59999999999997 183 445.29999999999995 183.70000000000002 448.4 183.70000000000002 C 449.7 183.70000000000002 451.59999999999997 183.70000000000002 452.79999999999995 183.70000000000002 C 453.99999999999994 183.70000000000002 457.19999999999993 186.20000000000002 458.49999999999994 185.60000000000002 C 459.09999999999997 185.60000000000002 459.09999999999997 184.3 459.79999999999995 183.70000000000002 C 461.09999999999997 183.70000000000002 462.99999999999994 183.70000000000002 463.59999999999997 183.70000000000002 C 465.49999999999994 183.70000000000002 470.59999999999997 183.10000000000002 471.2 184.3 C 472.5 184.3 473.09999999999997 184.3 473.7 184.3 C 473.7 190.60000000000002 473.09999999999997 196.3 470.5 199.5 C 469.2 200.8 468 201.4 466.1 202.7 C 462.90000000000003 204.6 457.90000000000003 205.89999999999998 454.1 207.1 C 452.8 207.1 450.90000000000003 207.7 449.70000000000005 207.7 C 446.50000000000006 208.29999999999998 442.70000000000005 208.29999999999998 438.90000000000003 209.6 C 437.6 210.2 435.1 210.2 434.50000000000006 209 C 433.90000000000003 209 433.90000000000003 209.6 433.20000000000005 210.3 C 431.90000000000003 210.3 430.70000000000005 210.3 429.40000000000003 210.3 C 428.1 210.3 426.90000000000003 210.3 425.6 210.3 C 422.40000000000003 210.9 419.90000000000003 210.3 417.40000000000003 210.3 C 417.40000000000003 209.70000000000002 417.40000000000003 209.70000000000002 417.40000000000003 209 L 417.40000000000003 209 C 414.90000000000003 209 412.3 209.6 410.40000000000003 210.3 C 409.1 210.9 404.1 210.3 402.8 209.70000000000002 C 400.3 209.70000000000002 397.7 209.10000000000002 395.2 209.10000000000002 C 392.7 208.50000000000003 390.09999999999997 208.50000000000003 388.2 207.8 C 387.59999999999997 207.8 386.9 207.8 386.9 207.8 C 385.59999999999997 207.20000000000002 383.7 206.5 382.5 205.9 C 381.9 205.9 381.2 205.9 380 205.9 C 378.7 205.9 378.1 204.6 377.5 204 C 376.9 204 376.2 204.6 376.2 204.6 C 374.9 204.6 373.7 203.29999999999998 373 202.7 C 369.2 200.2 367.9 197 366.7 192.6 C 366.09999999999997 190.7 366.7 185 367.3 184.4 C 367.3 183.8 366.7 183.1 366 183.1 C 366 180.6 366 178.7 366 176.1 C 366.6 176.1 367.3 175.5 367.3 175.5 C 366.7 174.9 366 174.2 366 173.6 C 366.6 172.29999999999998 366.6 169.2 366 167.9 C 366 167.3 366 165.4 366 164.70000000000002 C 366 163.4 366 162.8 366 161.50000000000003 C 366.6 159.60000000000002 366.6 157.10000000000002 367.3 155.80000000000004 C 368.6 152.60000000000005 372.40000000000003 150.10000000000005 375.5 148.80000000000004 C 376.8 148.20000000000005 377.4 147.50000000000003 378.7 147.50000000000003 C 379.3 147.50000000000003 380 147.50000000000003 380 147.50000000000003 C 380 147.50000000000003 380.6 146.90000000000003 381.3 146.90000000000003 C 381.90000000000003 146.90000000000003 382.6 147.50000000000003 383.2 148.20000000000005 C 383.8 147.60000000000005 384.5 146.30000000000004 385.7 145.70000000000005 C 386.3 145.70000000000005 387 145.70000000000005 387.59999999999997 145.70000000000005 L 387.59999999999997 145.10000000000005 C 388.2 145.10000000000005 389.49999999999994 145.10000000000005 390.09999999999997 144.50000000000006 C 391.4 143.90000000000006 393.9 143.90000000000006 395.2 143.90000000000006 C 395.8 143.90000000000006 396.5 143.90000000000006 397.7 143.90000000000006 C 400.2 143.30000000000007 403.4 143.30000000000007 405.9 142.60000000000005 C 407.2 142.60000000000005 408.4 142.60000000000005 409.7 142.60000000000005 C 411.59999999999997 142.00000000000006 414.8 142.60000000000005 417.3 142.60000000000005 C 420.5 142.00000000000006 426.8 142.60000000000005 429.3 143.20000000000005 C 431.2 143.80000000000004 432.5 142.60000000000005 433.7 143.20000000000005 C 435.59999999999997 143.80000000000004 438.09999999999997 143.80000000000004 440.7 143.80000000000004 L 441.3 144.40000000000003 C 441.3 144.40000000000003 442.6 143.80000000000004 443.2 143.80000000000004 C 445.7 144.40000000000003 448.3 144.40000000000003 450.8 145.10000000000005 C 457.8 147.00000000000006 464.7 148.30000000000004 469.8 152.10000000000005 C 471.1 153.40000000000006 472.3 155.30000000000004 473 157.20000000000005 C 473.6 157.20000000000005 473 157.20000000000005 473.6 157.20000000000005 C 475 157.5 475.7 163.2 475 168.2 z" stroke-linecap="round" />
</g>
		<g transform="matrix(1 0 0 1 163.46 -0.41)" id="Layer_1"  >
<path style="stroke: none; stroke-width: 1; stroke-dasharray: none; stroke-linecap: butt; stroke-dashoffset: 0; stroke-linejoin: miter; stroke-miterlimit: 4; fill: rgb(255,255,255); fill-rule: nonzero; opacity: 1;" vector-effect="non-scaling-stroke"  transform=" translate(-419.46, -255.59)" d="M 428.8 236.5 C 428.8 234 427.5 231.4 425.6 230.8 C 423.1 229.5 415.5 229.5 412.90000000000003 231.4 C 412.3 232 411.00000000000006 232.70000000000002 411.00000000000006 233.9 C 409.70000000000005 237.1 410.40000000000003 242.1 410.40000000000003 245.9 C 410.40000000000003 246.5 410.40000000000003 247.8 410.40000000000003 248.4 C 410.40000000000003 248.4 411.00000000000006 248.4 410.40000000000003 249 C 410.40000000000003 249 409.8 249.6 409.8 250.3 C 409.2 252.20000000000002 411.1 254.70000000000002 409.2 256 C 409.2 256.6 409.8 256.6 409.8 256.6 C 409.8 259.8 409.8 262.90000000000003 409.8 266.1 C 409.8 268 409.8 269.90000000000003 409.8 271.20000000000005 C 409.8 272.50000000000006 409.8 273.1 409.8 274.40000000000003 C 410.40000000000003 275.70000000000005 410.40000000000003 277.6 411.1 278.8 C 413 282 422.5 282 425.6 279.40000000000003 C 426.90000000000003 278.1 426.90000000000003 276.90000000000003 427.5 275.6 C 427.5 275.6 427.5 275.6 428.1 275.6 C 428.1 266.70000000000005 428.1 256.6 428.1 247.10000000000002 C 428.1 243.90000000000003 427.5 238.20000000000002 429.40000000000003 237.00000000000003 C 430.1 236.5 429.5 236.5 428.8 236.5 z" stroke-linecap="round" />
</g>
		<g transform="matrix(1 0 0 1 -63.25 1.23)" id="Layer_1"  >
<path style="stroke: none; stroke-width: 1; stroke-dasharray: none; stroke-linecap: butt; stroke-dashoffset: 0; stroke-linejoin: miter; stroke-miterlimit: 4; fill: rgb(255,255,255); fill-rule: nonzero; opacity: 1;" vector-effect="non-scaling-stroke"  transform=" translate(-192.75, -257.23)" d="M 128.4 151.8 C 129.70000000000002 151.8 130.9 151.8 131.6 151.8 C 132.2 152.4 132.2 153.10000000000002 133.5 153.10000000000002 C 134.1 153.70000000000002 136.7 153.10000000000002 137.3 153.10000000000002 C 139.8 153.10000000000002 143 153.10000000000002 146.20000000000002 153.10000000000002 C 147.50000000000003 154.40000000000003 148.10000000000002 156.3 150.00000000000003 156.90000000000003 C 150.60000000000002 156.90000000000003 151.30000000000004 156.90000000000003 151.90000000000003 156.90000000000003 C 152.50000000000003 156.90000000000003 153.20000000000005 157.50000000000003 153.20000000000005 157.50000000000003 C 153.80000000000004 158.10000000000002 155.10000000000005 159.40000000000003 155.70000000000005 160.00000000000003 C 156.30000000000004 160.60000000000002 157.00000000000006 161.30000000000004 157.60000000000005 161.90000000000003 C 158.90000000000006 163.20000000000005 159.50000000000006 164.40000000000003 160.80000000000004 165.70000000000005 C 160.80000000000004 171.40000000000003 160.80000000000004 176.50000000000006 160.80000000000004 182.10000000000005 C 160.20000000000005 182.70000000000005 159.50000000000003 183.40000000000006 159.50000000000003 184.60000000000005 L 159.50000000000003 185.20000000000005 C 159.50000000000003 185.80000000000004 160.80000000000004 187.10000000000005 161.40000000000003 187.70000000000005 C 162.00000000000003 187.70000000000005 162.70000000000005 187.70000000000005 162.70000000000005 188.30000000000004 C 162.70000000000005 191.50000000000003 162.70000000000005 194.00000000000003 162.70000000000005 196.50000000000003 C 161.40000000000003 197.10000000000002 161.40000000000003 197.10000000000002 161.40000000000003 199.00000000000003 C 160.80000000000004 199.60000000000002 161.40000000000003 200.90000000000003 161.40000000000003 201.50000000000003 C 161.40000000000003 204.00000000000003 161.40000000000003 205.90000000000003 161.40000000000003 208.50000000000003 C 161.40000000000003 216.70000000000002 161.40000000000003 224.90000000000003 161.40000000000003 233.20000000000002 C 162.70000000000005 233.8 163.90000000000003 234.50000000000003 164.60000000000002 235.70000000000002 C 165.90000000000003 237.60000000000002 165.20000000000002 241.4 165.90000000000003 243.9 C 165.90000000000003 245.20000000000002 166.50000000000003 247.70000000000002 165.90000000000003 249.6 C 165.90000000000003 250.9 165.90000000000003 252.1 165.90000000000003 253.4 C 165.90000000000003 255.9 165.90000000000003 258.5 165.90000000000003 261 C 165.90000000000003 262.3 165.90000000000003 263.5 165.90000000000003 264.8 C 165.90000000000003 266.1 165.90000000000003 267.3 165.90000000000003 268.6 C 165.30000000000004 269.90000000000003 165.90000000000003 272.40000000000003 165.90000000000003 273.70000000000005 C 165.30000000000004 274.30000000000007 164.60000000000002 274.30000000000007 164.00000000000003 275.00000000000006 C 164.00000000000003 278.80000000000007 164.00000000000003 283.20000000000005 164.00000000000003 287.00000000000006 C 165.90000000000003 288.30000000000007 165.90000000000003 288.90000000000003 165.90000000000003 292.70000000000005 C 165.30000000000004 293.30000000000007 165.90000000000003 297.80000000000007 165.90000000000003 299.00000000000006 C 164.00000000000003 299.6000000000001 162.70000000000005 301.50000000000006 162.70000000000005 303.40000000000003 C 163.30000000000004 305.3 162.70000000000005 305.3 162.70000000000005 307.8 L 162.70000000000005 308.40000000000003 C 162.70000000000005 309.00000000000006 162.10000000000005 309.00000000000006 162.10000000000005 309.70000000000005 C 161.50000000000006 310.30000000000007 162.10000000000005 312.20000000000005 161.50000000000006 312.90000000000003 C 160.90000000000006 314.8 161.50000000000006 316.70000000000005 160.90000000000006 318.00000000000006 C 160.90000000000006 318.6000000000001 159.60000000000005 318.6000000000001 159.60000000000005 319.30000000000007 C 159.60000000000005 320.00000000000006 159.60000000000005 321.20000000000005 159.60000000000005 321.80000000000007 C 159.00000000000006 323.1000000000001 159.60000000000005 327.50000000000006 159.60000000000005 329.4000000000001 C 159.00000000000006 331.30000000000007 158.30000000000004 331.9000000000001 157.70000000000005 334.5000000000001 C 158.30000000000004 335.10000000000014 159.00000000000006 337.0000000000001 159.00000000000006 338.9000000000001 C 159.60000000000005 338.9000000000001 160.30000000000007 339.5000000000001 160.90000000000006 339.5000000000001 C 161.50000000000006 339.5000000000001 162.20000000000007 339.5000000000001 163.40000000000006 339.5000000000001 C 166.60000000000005 339.5000000000001 169.70000000000007 339.5000000000001 172.30000000000007 339.5000000000001 C 172.90000000000006 338.9000000000001 176.10000000000008 336.3000000000001 177.40000000000006 335.7000000000001 C 178.00000000000006 335.7000000000001 178.00000000000006 335.7000000000001 178.70000000000007 335.7000000000001 C 179.4000000000001 335.7000000000001 180.60000000000008 335.7000000000001 181.20000000000007 335.7000000000001 C 181.80000000000007 335.7000000000001 182.50000000000009 336.3000000000001 182.50000000000009 336.3000000000001 C 185.00000000000009 336.90000000000015 187.60000000000008 336.90000000000015 190.10000000000008 337.60000000000014 C 190.70000000000007 337.60000000000014 192.00000000000009 338.20000000000016 192.60000000000008 338.20000000000016 C 193.9000000000001 338.20000000000016 195.10000000000008 337.60000000000014 196.4000000000001 336.90000000000015 C 197.00000000000009 336.90000000000015 197.7000000000001 336.90000000000015 198.9000000000001 336.3000000000001 C 199.50000000000009 335.7000000000001 200.2000000000001 334.40000000000015 201.4000000000001 334.40000000000015 C 203.9000000000001 334.40000000000015 206.50000000000009 333.8000000000001 209.60000000000008 333.8000000000001 C 211.50000000000009 333.2000000000001 213.4000000000001 333.2000000000001 215.30000000000007 333.2000000000001 C 216.60000000000008 333.2000000000001 217.80000000000007 333.2000000000001 218.50000000000006 333.2000000000001 C 221.70000000000005 332.6000000000001 229.90000000000006 333.2000000000001 234.30000000000007 333.2000000000001 C 236.80000000000007 333.2000000000001 240.00000000000006 333.2000000000001 242.50000000000006 333.2000000000001 C 243.80000000000007 333.2000000000001 245.70000000000005 333.2000000000001 246.90000000000006 333.2000000000001 C 248.80000000000007 333.8000000000001 250.70000000000007 333.2000000000001 252.60000000000005 333.2000000000001 C 254.50000000000006 333.8000000000001 258.30000000000007 332.6000000000001 258.90000000000003 333.8000000000001 C 258.90000000000003 335.10000000000014 258.90000000000003 335.7000000000001 258.90000000000003 337.0000000000001 C 259.50000000000006 337.60000000000014 258.90000000000003 340.8000000000001 258.90000000000003 342.10000000000014 C 258.90000000000003 344.60000000000014 258.90000000000003 346.5000000000001 258.90000000000003 349.10000000000014 C 258.90000000000003 350.40000000000015 258.90000000000003 352.3000000000001 258.90000000000003 353.5000000000001 C 259.50000000000006 356.7000000000001 261.40000000000003 359.2000000000001 262.70000000000005 362.4000000000001 C 258.90000000000003 362.4000000000001 254.50000000000006 362.4000000000001 250.70000000000005 362.4000000000001 C 250.10000000000005 363.0000000000001 242.50000000000006 362.4000000000001 239.30000000000004 362.4000000000001 C 239.30000000000004 361.1000000000001 238.70000000000005 360.5000000000001 237.40000000000003 361.1000000000001 C 236.80000000000004 360.50000000000006 233.60000000000002 361.1000000000001 232.30000000000004 361.1000000000001 C 232.30000000000004 360.50000000000006 231.70000000000005 359.80000000000007 231.70000000000005 359.2000000000001 C 230.40000000000003 359.2000000000001 229.20000000000005 358.6000000000001 227.90000000000003 358.6000000000001 C 227.30000000000004 358.00000000000006 227.90000000000003 357.30000000000007 226.60000000000002 357.30000000000007 C 226.00000000000003 356.70000000000005 222.8 357.30000000000007 221.50000000000003 357.30000000000007 C 219.60000000000002 357.30000000000007 215.80000000000004 357.30000000000007 213.90000000000003 357.30000000000007 C 212.60000000000002 357.30000000000007 210.70000000000005 357.30000000000007 209.50000000000003 357.30000000000007 C 208.20000000000002 356.70000000000005 207.60000000000002 356.00000000000006 206.30000000000004 355.4000000000001 C 205.70000000000005 355.4000000000001 205.00000000000003 355.4000000000001 204.40000000000003 355.4000000000001 C 202.50000000000003 354.80000000000007 200.00000000000003 355.4000000000001 198.10000000000002 355.4000000000001 C 192.40000000000003 355.4000000000001 186.70000000000002 355.4000000000001 181.00000000000003 355.4000000000001 C 177.20000000000002 355.4000000000001 172.80000000000004 355.4000000000001 169.00000000000003 355.4000000000001 C 167.70000000000002 355.4000000000001 165.20000000000002 355.4000000000001 164.60000000000002 355.4000000000001 C 164.00000000000003 354.80000000000007 163.3 354.1000000000001 162.70000000000002 353.5000000000001 C 162.10000000000002 353.5000000000001 162.10000000000002 353.5000000000001 161.4 353.5000000000001 C 158.9 352.2000000000001 158.20000000000002 352.2000000000001 154.4 352.2000000000001 C 153.8 352.2000000000001 153.1 352.2000000000001 153.1 352.2000000000001 C 152.5 352.2000000000001 151.79999999999998 353.5000000000001 150.6 353.5000000000001 C 148.1 354.8000000000001 146.2 356.7000000000001 144.29999999999998 358.60000000000014 C 143.7 359.20000000000016 142.99999999999997 361.8000000000001 141.79999999999998 361.8000000000001 C 141.2 361.2000000000001 139.89999999999998 361.8000000000001 138.6 361.8000000000001 C 136.7 361.2000000000001 134.2 361.2000000000001 131 361.2000000000001 C 130.4 361.2000000000001 129.1 361.2000000000001 128.5 361.2000000000001 C 127.9 361.2000000000001 124.7 361.8000000000001 124.7 361.8000000000001 C 124.10000000000001 361.2000000000001 124.10000000000001 360.5000000000001 124.10000000000001 360.5000000000001 C 123.50000000000001 359.9000000000001 122.80000000000001 359.9000000000001 122.80000000000001 359.2000000000001 C 123.4 359.2000000000001 124.70000000000002 357.3000000000001 124.70000000000002 357.3000000000001 L 124.70000000000002 357.3000000000001 C 124.70000000000002 356.7000000000001 124.70000000000002 356.0000000000001 124.70000000000002 356.0000000000001 C 127.90000000000002 354.7000000000001 130.4 352.2000000000001 132.9 350.3000000000001 C 133.5 349.7000000000001 135.4 349.0000000000001 135.4 348.40000000000015 C 135.4 346.50000000000017 135.4 345.20000000000016 135.4 343.3000000000001 C 135.4 343.3000000000001 134.8 341.40000000000015 135.4 340.8000000000001 L 136 340.2000000000001 C 136 339.6000000000001 136 338.9000000000001 136 337.7000000000001 C 135.4 337.7000000000001 135.4 337.1000000000001 134.7 337.1000000000001 C 134.7 334.6000000000001 134.7 332.7000000000001 134.7 330.1000000000001 C 134.1 329.50000000000006 134.7 324.4000000000001 134.7 323.1000000000001 C 136 323.1000000000001 136.6 322.50000000000006 136.6 320.6000000000001 C 136.6 320.00000000000006 136.6 316.80000000000007 136.6 315.50000000000006 C 137.2 314.90000000000003 138.5 314.90000000000003 138.5 313.6000000000001 C 139.8 311.7000000000001 135.3 309.2000000000001 135.3 307.9000000000001 C 135.3 307.30000000000007 135.3 306.6000000000001 135.3 306.0000000000001 C 135.3 304.7000000000001 135.3 303.5000000000001 135.3 301.60000000000014 C 135.3 300.3000000000001 135.3 299.10000000000014 135.3 297.8000000000001 C 135.3 295.90000000000015 135.3 294.60000000000014 135.3 292.7000000000001 C 135.3 292.1000000000001 135.3 291.4000000000001 135.3 291.4000000000001 C 135.3 290.80000000000007 135.3 290.1000000000001 135.3 289.5000000000001 C 135.3 288.2000000000001 135.3 287.0000000000001 135.3 285.7000000000001 C 137.20000000000002 284.4000000000001 136.60000000000002 281.9000000000001 136.60000000000002 279.4000000000001 C 136.00000000000003 278.80000000000007 136.60000000000002 273.7000000000001 136.60000000000002 271.80000000000007 C 137.90000000000003 271.20000000000005 138.50000000000003 271.20000000000005 138.50000000000003 269.30000000000007 C 137.90000000000003 268.70000000000005 138.50000000000003 264.9000000000001 138.50000000000003 263.6000000000001 C 138.50000000000003 259.80000000000007 138.50000000000003 256.00000000000006 138.50000000000003 252.20000000000007 C 138.50000000000003 251.60000000000008 139.80000000000004 250.30000000000007 140.40000000000003 249.70000000000007 C 140.40000000000003 248.40000000000006 139.80000000000004 247.20000000000007 139.80000000000004 245.90000000000006 C 137.90000000000003 244.60000000000005 138.50000000000003 241.50000000000006 138.50000000000003 238.30000000000007 C 138.50000000000003 232.00000000000006 138.50000000000003 225.00000000000006 138.50000000000003 218.70000000000007 C 137.90000000000003 218.10000000000008 137.20000000000002 217.40000000000006 137.20000000000002 216.20000000000007 C 137.20000000000002 215.60000000000008 137.20000000000002 214.30000000000007 137.20000000000002 212.40000000000006 C 137.20000000000002 209.20000000000007 137.20000000000002 206.70000000000007 137.20000000000002 203.50000000000006 C 138.50000000000003 202.90000000000006 138.50000000000003 201.60000000000005 139.70000000000002 201.00000000000006 C 139.70000000000002 201.00000000000006 140.3 201.00000000000006 141.00000000000003 201.00000000000006 C 141.00000000000003 196.60000000000005 141.00000000000003 192.80000000000007 141.00000000000003 188.30000000000007 C 140.40000000000003 187.70000000000007 139.70000000000002 187.70000000000007 139.70000000000002 186.40000000000006 C 139.10000000000002 185.10000000000005 140.3 182.60000000000005 141.00000000000003 182.00000000000006 C 142.30000000000004 178.20000000000005 141.60000000000002 175.70000000000005 140.40000000000003 171.90000000000006 C 139.80000000000004 170.60000000000005 139.80000000000004 168.70000000000007 138.50000000000003 168.10000000000005 C 137.90000000000003 167.50000000000006 136.60000000000002 168.10000000000005 136.00000000000003 167.50000000000006 C 135.40000000000003 167.50000000000006 134.70000000000002 166.90000000000006 134.10000000000002 166.90000000000006 L 133.50000000000003 166.30000000000007 C 132.90000000000003 165.70000000000007 132.90000000000003 164.40000000000006 132.20000000000002 163.80000000000007 L 131.60000000000002 163.20000000000007 C 131.00000000000003 161.90000000000006 129.70000000000002 160.70000000000007 128.40000000000003 160.00000000000009 C 127.10000000000004 158.70000000000007 125.90000000000003 158.70000000000007 125.20000000000003 157.50000000000009 C 127.7 154.3 128.4 153 128.4 151.8 z" stroke-linecap="round" />
</g>
		<g transform="matrix(1 0 0 1 48.43 -6.3)" id="Layer_1"  >
<path style="stroke: none; stroke-width: 1; stroke-dasharray: none; stroke-linecap: butt; stroke-dashoffset: 0; stroke-linejoin: miter; stroke-miterlimit: 4; fill: rgb(255,255,255); fill-rule: nonzero; opacity: 1;" vector-effect="non-scaling-stroke"  transform=" translate(-304.43, -249.7)" d="M 273.2 153.7 C 292.8 153.7 311.8 153.7 331.4 153.7 C 332 154.29999999999998 332 155 332.7 155.6 C 333.3 155.6 334 155.6 334.59999999999997 155.6 C 334.59999999999997 156.2 334.59999999999997 156.9 334.59999999999997 156.9 C 335.2 157.5 333.29999999999995 160.1 333.29999999999995 160.70000000000002 C 331.4 164.50000000000003 330.09999999999997 168.3 327.59999999999997 170.8 C 327.59999999999997 172.70000000000002 327.59999999999997 174.60000000000002 326.99999999999994 176.5 C 326.99999999999994 177.1 326.99999999999994 177.8 326.99999999999994 178.4 L 324.49999999999994 181.6 C 323.8999999999999 182.2 323.19999999999993 182.2 322.59999999999997 182.9 C 322.59999999999997 184.20000000000002 322.59999999999997 185.4 322.59999999999997 186.1 C 322.59999999999997 186.79999999999998 322.59999999999997 186.7 322.59999999999997 187.4 C 322.59999999999997 189.3 321.99999999999994 190.6 320.7 191.20000000000002 C 320.09999999999997 191.20000000000002 320.09999999999997 191.8 319.4 191.8 C 318.79999999999995 193.10000000000002 318.79999999999995 195 318.09999999999997 196.9 C 317.49999999999994 199.4 318.09999999999997 202 316.79999999999995 203.9 C 315.49999999999994 206.4 314.29999999999995 209.6 313.59999999999997 212.1 C 313.59999999999997 214 313.59999999999997 216.5 313.59999999999997 218.4 C 313.59999999999997 222.8 313.59999999999997 226.6 313.59999999999997 231.1 C 312.29999999999995 231.7 311.7 235.5 311.09999999999997 237.4 C 309.79999999999995 239.9 309.2 243.1 308.59999999999997 245 C 307.99999999999994 245.6 307.29999999999995 246.9 307.29999999999995 247.5 C 307.29999999999995 248.1 307.29999999999995 248.8 307.29999999999995 249.4 C 307.29999999999995 250.70000000000002 307.29999999999995 251.9 306.69999999999993 253.20000000000002 C 306.0999999999999 256.40000000000003 302.8999999999999 257.6 302.29999999999995 260.20000000000005 C 302.29999999999995 266.50000000000006 302.29999999999995 272.90000000000003 302.29999999999995 279.20000000000005 C 300.99999999999994 284.30000000000007 298.49999999999994 288.70000000000005 297.19999999999993 293.70000000000005 C 296.5999999999999 295.00000000000006 297.19999999999993 296.90000000000003 297.19999999999993 297.50000000000006 C 297.79999999999995 299.40000000000003 297.19999999999993 302.6000000000001 296.5999999999999 303.80000000000007 C 295.2999999999999 307.6000000000001 293.3999999999999 311.4000000000001 292.19999999999993 314.6000000000001 C 291.5999999999999 315.2000000000001 290.8999999999999 315.9000000000001 290.8999999999999 316.50000000000006 L 290.8999999999999 317.1000000000001 C 290.8999999999999 318.4000000000001 290.2999999999999 319.00000000000006 289.5999999999999 320.30000000000007 C 288.9999999999999 322.20000000000005 288.2999999999999 323.50000000000006 288.2999999999999 326.00000000000006 C 288.8999999999999 326.00000000000006 288.8999999999999 326.00000000000006 289.5999999999999 326.00000000000006 C 290.19999999999993 324.70000000000005 293.9999999999999 324.70000000000005 295.8999999999999 325.40000000000003 C 296.49999999999994 325.40000000000003 300.2999999999999 325.40000000000003 300.2999999999999 324.8 C 300.2999999999999 324.2 300.2999999999999 323.5 300.8999999999999 323.5 C 301.49999999999994 322.2 301.49999999999994 320.3 302.7999999999999 319.1 C 303.3999999999999 318.5 304.0999999999999 318.5 304.6999999999999 318.5 C 305.9999999999999 317.9 306.59999999999985 317.2 307.89999999999986 316.6 C 309.1999999999999 316 311.09999999999985 316 312.29999999999984 315.3 C 314.1999999999998 314.7 316.09999999999985 312.8 317.99999999999983 312.1 C 319.29999999999984 311.5 320.49999999999983 310.8 321.79999999999984 310.20000000000005 C 322.39999999999986 310.20000000000005 322.39999999999986 309.6 322.39999999999986 308.90000000000003 C 322.9999999999999 307.6 324.29999999999984 307.00000000000006 324.89999999999986 306.40000000000003 C 325.4999999999999 305.8 326.1999999999999 305.8 326.1999999999999 305.1 C 326.7999999999999 305.1 327.4999999999999 306.40000000000003 328.6999999999999 306.40000000000003 C 329.2999999999999 306.40000000000003 330.59999999999985 306.40000000000003 331.1999999999999 306.40000000000003 C 333.09999999999985 307.00000000000006 334.9999999999999 306.40000000000003 336.89999999999986 307.00000000000006 C 338.1999999999999 308.90000000000003 339.39999999999986 309.50000000000006 339.39999999999986 312.1000000000001 C 339.9999999999999 312.7000000000001 338.79999999999984 313.4000000000001 338.79999999999984 314.00000000000006 C 338.79999999999984 314.6000000000001 338.1999999999998 315.30000000000007 338.1999999999998 315.30000000000007 C 338.1999999999998 315.9000000000001 338.1999999999998 319.1000000000001 338.1999999999998 319.70000000000005 C 338.1999999999998 320.3 339.49999999999983 321.6 339.49999999999983 322.20000000000005 C 339.49999999999983 327.90000000000003 339.49999999999983 333.6 339.49999999999983 338.6 C 338.8999999999998 338.6 338.1999999999998 339.20000000000005 338.1999999999998 339.90000000000003 C 338.1999999999998 340.6 338.1999999999998 341.20000000000005 338.1999999999998 341.20000000000005 C 337.5999999999998 341.20000000000005 336.8999999999998 341.20000000000005 336.29999999999984 341.20000000000005 C 335.6999999999999 341.20000000000005 334.99999999999983 341.20000000000005 334.39999999999986 341.20000000000005 C 327.39999999999986 341.20000000000005 319.89999999999986 341.20000000000005 312.89999999999986 341.20000000000005 C 312.29999999999984 339.90000000000003 312.29999999999984 339.30000000000007 310.39999999999986 339.30000000000007 C 309.79999999999984 338.70000000000005 309.09999999999985 339.30000000000007 307.89999999999986 339.30000000000007 C 306.59999999999985 338.70000000000005 304.6999999999999 338.70000000000005 302.79999999999984 338.70000000000005 C 301.49999999999983 340.6 298.39999999999986 342.50000000000006 296.49999999999983 343.1 C 294.59999999999985 343.1 292.6999999999998 343.1 290.79999999999984 343.1 C 288.89999999999986 343.70000000000005 285.09999999999985 342.5 283.1999999999998 343.1 C 281.8999999999998 343.70000000000005 281.29999999999984 343.70000000000005 279.99999999999983 344.40000000000003 C 278.6999999999998 345.00000000000006 276.79999999999984 345.70000000000005 274.8999999999998 345.70000000000005 C 274.2999999999998 345.70000000000005 272.99999999999983 345.70000000000005 272.3999999999998 345.70000000000005 C 271.0999999999998 345.1 271.7999999999998 343.80000000000007 271.0999999999998 342.50000000000006 C 270.4999999999998 339.30000000000007 271.0999999999998 334.90000000000003 271.0999999999998 331.70000000000005 C 272.3999999999998 331.1 273.5999999999998 328.50000000000006 272.9999999999998 326.00000000000006 L 272.9999999999998 324.70000000000005 C 272.9999999999998 322.80000000000007 274.89999999999975 322.20000000000005 275.4999999999998 320.30000000000007 C 275.4999999999998 319.00000000000006 276.0999999999998 317.80000000000007 276.0999999999998 316.50000000000006 C 276.0999999999998 315.90000000000003 276.0999999999998 315.20000000000005 276.0999999999998 315.20000000000005 C 276.0999999999998 314.6 276.6999999999998 313.90000000000003 277.3999999999998 313.30000000000007 C 277.99999999999983 312.70000000000005 278.6999999999998 312.00000000000006 278.6999999999998 311.4000000000001 C 278.6999999999998 310.80000000000007 278.6999999999998 310.1000000000001 278.6999999999998 310.1000000000001 C 278.6999999999998 309.50000000000006 278.6999999999998 308.2000000000001 278.6999999999998 307.6000000000001 C 279.29999999999984 305.7000000000001 279.99999999999983 303.80000000000007 280.5999999999998 301.9000000000001 C 280.5999999999998 298.7000000000001 279.9999999999998 294.9000000000001 279.9999999999998 291.80000000000007 C 279.39999999999975 289.9000000000001 278.0999999999998 288.6000000000001 277.4999999999998 286.1000000000001 C 277.4999999999998 283.6000000000001 277.4999999999998 281.7000000000001 276.89999999999975 279.1000000000001 C 276.89999999999975 277.80000000000007 276.2999999999997 275.30000000000007 276.2999999999997 274.00000000000006 C 276.89999999999975 271.50000000000006 276.2999999999997 268.30000000000007 276.89999999999975 266.40000000000003 C 276.89999999999975 265.1 276.89999999999975 264.50000000000006 276.89999999999975 263.20000000000005 C 277.4999999999998 261.30000000000007 278.19999999999976 258.1 278.7999999999997 256.20000000000005 C 280.6999999999997 251.80000000000004 281.9999999999997 247.30000000000004 283.89999999999975 242.90000000000003 C 285.19999999999976 239.70000000000005 287.09999999999974 236.60000000000002 287.09999999999974 232.10000000000002 C 285.7999999999997 231.50000000000003 285.7999999999997 229.60000000000002 286.4999999999997 227.70000000000002 C 287.7999999999997 226.4 288.3999999999997 224.50000000000003 288.9999999999997 222.60000000000002 C 288.9999999999997 221.3 288.9999999999997 220.10000000000002 288.9999999999997 219.40000000000003 C 288.9999999999997 218.70000000000005 289.59999999999974 218.10000000000002 289.59999999999974 218.10000000000002 C 290.19999999999976 216.8 290.89999999999975 216.20000000000002 290.89999999999975 214.90000000000003 C 291.4999999999998 214.30000000000004 292.19999999999976 213.00000000000003 292.19999999999976 212.40000000000003 C 292.19999999999976 211.80000000000004 292.19999999999976 211.10000000000002 292.7999999999998 209.90000000000003 C 292.7999999999998 209.30000000000004 293.3999999999998 208.00000000000003 293.3999999999998 206.70000000000005 C 293.3999999999998 206.10000000000005 292.7999999999998 204.80000000000004 293.3999999999998 203.50000000000006 C 293.99999999999983 202.20000000000005 294.6999999999998 201.00000000000006 295.2999999999998 199.70000000000005 C 296.5999999999998 197.20000000000005 296.5999999999998 194.60000000000005 297.7999999999998 192.70000000000005 C 297.7999999999998 192.10000000000005 298.3999999999998 191.40000000000003 299.0999999999998 190.80000000000004 C 299.6999999999998 189.50000000000003 300.3999999999998 188.30000000000004 301.5999999999998 186.40000000000003 C 302.1999999999998 185.80000000000004 302.1999999999998 185.10000000000002 302.8999999999998 184.50000000000003 C 303.49999999999983 183.20000000000002 304.7999999999998 182.60000000000002 305.3999999999998 181.30000000000004 C 305.99999999999983 179.40000000000003 305.3999999999998 176.90000000000003 305.3999999999998 175.00000000000003 C 305.99999999999983 174.40000000000003 306.6999999999998 174.40000000000003 306.6999999999998 172.50000000000003 C 304.1999999999998 171.90000000000003 300.3999999999998 171.90000000000003 297.1999999999998 171.90000000000003 C 296.5999999999998 171.30000000000004 295.29999999999984 169.40000000000003 293.99999999999983 169.40000000000003 C 292.6999999999998 168.10000000000002 289.59999999999985 169.40000000000003 288.29999999999984 170.00000000000003 C 287.6999999999998 170.00000000000003 286.39999999999986 170.00000000000003 286.39999999999986 170.00000000000003 C 285.79999999999984 171.30000000000004 285.09999999999985 172.50000000000003 284.4999999999999 173.80000000000004 C 282.5999999999999 178.20000000000005 281.9999999999999 184.60000000000005 280.0999999999999 189.60000000000005 C 279.4999999999999 191.50000000000006 278.19999999999993 195.90000000000006 276.2999999999999 195.90000000000006 C 275.6999999999999 195.30000000000007 274.3999999999999 195.90000000000006 273.0999999999999 195.90000000000006 C 273.0999999999999 196.50000000000006 272.4999999999999 197.20000000000007 271.7999999999999 197.20000000000007 C 271.1999999999999 196.60000000000008 269.2999999999999 195.90000000000006 269.2999999999999 194.70000000000007 C 269.8999999999999 194.10000000000008 269.2999999999999 193.40000000000006 269.8999999999999 192.80000000000007 C 269.8999999999999 192.20000000000007 270.49999999999994 191.50000000000006 270.49999999999994 190.90000000000006 C 270.49999999999994 189.60000000000005 269.19999999999993 187.10000000000005 269.8999999999999 185.20000000000007 C 269.8999999999999 183.90000000000006 271.19999999999993 183.30000000000007 271.7999999999999 182.70000000000007 C 271.7999999999999 182.10000000000008 272.3999999999999 181.40000000000006 272.3999999999999 180.20000000000007 C 273.2 173.3 273.2 163.8 273.2 153.7 z" stroke-linecap="round" />
</g>
		<g transform="matrix(1 0 0 1 -16.55 -18.37)" id="Layer_1"  >
<path style="stroke: none; stroke-width: 1; stroke-dasharray: none; stroke-linecap: butt; stroke-dashoffset: 0; stroke-linejoin: miter; stroke-miterlimit: 4; fill: rgb(255,255,255); fill-rule: nonzero; opacity: 1;" vector-effect="non-scaling-stroke"  transform=" translate(-239.45, -237.63)" d="M 263.1 154.9 C 263.1 158.1 263.1 161.20000000000002 263.1 164.4 C 263.70000000000005 165.70000000000002 264.40000000000003 166.3 265 167.6 C 265 177.7 265 188.5 265 199.2 C 263.7 199.79999999999998 262.5 204.89999999999998 262.5 207.39999999999998 C 262.5 207.99999999999997 263.1 209.29999999999998 263.1 209.89999999999998 C 262.5 210.49999999999997 262.5 211.2 261.8 211.2 C 261.2 211.79999999999998 260.5 212.5 259.90000000000003 213.1 C 259.3 214.4 258.6 216.29999999999998 258.00000000000006 217.5 C 256.70000000000005 220.7 255.50000000000006 224.5 253.60000000000005 228.3 C 253.60000000000005 228.9 253.00000000000006 229.60000000000002 252.30000000000004 229.60000000000002 C 252.30000000000004 232.10000000000002 252.30000000000004 234.70000000000002 252.30000000000004 237.8 C 248.50000000000003 239.70000000000002 245.30000000000004 241.60000000000002 244.10000000000005 246 C 243.50000000000006 248.5 244.70000000000005 251.1 244.10000000000005 252.3 C 243.50000000000006 252.9 242.80000000000004 253.60000000000002 241.60000000000005 254.20000000000002 C 239.70000000000005 256.70000000000005 237.80000000000004 258.6 236.50000000000006 261.20000000000005 C 234.60000000000005 265.00000000000006 233.30000000000007 268.80000000000007 232.10000000000005 273.20000000000005 C 231.50000000000006 275.1 230.20000000000005 277.00000000000006 229.60000000000005 278.90000000000003 C 229.60000000000005 279.50000000000006 229.00000000000006 282.1 229.60000000000005 283.3 C 229.60000000000005 283.3 229.60000000000005 283.90000000000003 229.60000000000005 284.6 C 229.00000000000006 285.90000000000003 229.00000000000006 287.1 228.30000000000004 287.8 C 226.40000000000003 292.2 224.50000000000003 297.3 222.60000000000005 302.3 C 222.00000000000006 303.6 221.30000000000004 305.5 220.70000000000005 306.7 C 220.70000000000005 307.3 220.10000000000005 308 219.40000000000003 308.59999999999997 C 220.00000000000003 309.2 220.00000000000003 309.9 221.30000000000004 309.9 C 221.90000000000003 309.9 223.80000000000004 309.29999999999995 224.50000000000003 309.29999999999995 C 225.10000000000002 308.69999999999993 225.80000000000004 308.69999999999993 225.80000000000004 307.99999999999994 C 226.40000000000003 307.3999999999999 227.10000000000005 306.69999999999993 227.70000000000005 306.69999999999993 C 230.90000000000003 305.3999999999999 234.70000000000005 305.3999999999999 237.80000000000004 304.19999999999993 C 239.10000000000005 303.5999999999999 239.70000000000005 302.29999999999995 241.00000000000003 300.99999999999994 C 242.30000000000004 299.09999999999997 244.20000000000002 297.19999999999993 245.40000000000003 295.29999999999995 C 246.00000000000003 293.99999999999994 246.70000000000005 292.79999999999995 247.90000000000003 292.09999999999997 C 249.20000000000005 291.49999999999994 253.00000000000003 289.59999999999997 253.60000000000002 288.9 C 254.90000000000003 287.59999999999997 254.90000000000003 283.2 257.40000000000003 282.59999999999997 C 258.00000000000006 283.2 258.00000000000006 283.9 258.70000000000005 283.9 C 259.40000000000003 283.9 260.00000000000006 283.29999999999995 260.00000000000006 283.29999999999995 C 261.30000000000007 280.79999999999995 262.50000000000006 278.19999999999993 263.80000000000007 275.69999999999993 C 265.70000000000005 275.69999999999993 267.00000000000006 275.69999999999993 268.9000000000001 275.69999999999993 C 268.9000000000001 278.8999999999999 268.9000000000001 281.99999999999994 269.5000000000001 284.5999999999999 C 269.5000000000001 285.19999999999993 268.9000000000001 285.8999999999999 268.9000000000001 286.4999999999999 C 268.9000000000001 287.0999999999999 268.30000000000007 287.7999999999999 268.30000000000007 287.7999999999999 C 267.70000000000005 289.0999999999999 266.4000000000001 290.2999999999999 265.80000000000007 292.1999999999999 C 265.80000000000007 297.89999999999986 265.80000000000007 304.1999999999999 265.80000000000007 309.89999999999986 C 265.80000000000007 311.79999999999984 266.4000000000001 315.59999999999985 265.20000000000005 316.1999999999999 C 264.6 316.7999999999999 262.00000000000006 317.4999999999999 261.40000000000003 317.4999999999999 C 260.8 317.4999999999999 260.1 318.0999999999999 259.50000000000006 318.7999999999999 C 259.50000000000006 318.7999999999999 259.50000000000006 319.3999999999999 258.90000000000003 319.3999999999999 C 258.3 319.3999999999999 257.6 319.3999999999999 257.6 319.3999999999999 C 257 319.99999999999994 253.20000000000002 319.3999999999999 251.90000000000003 319.3999999999999 C 248.10000000000002 319.3999999999999 244.30000000000004 319.3999999999999 239.90000000000003 319.3999999999999 C 239.30000000000004 316.8999999999999 237.40000000000003 317.49999999999994 234.80000000000004 317.49999999999994 L 234 317.49999999999994 C 233.4 318.09999999999997 232.7 319.99999999999994 231.5 319.99999999999994 C 229.6 321.29999999999995 226.4 318.69999999999993 225.2 318.69999999999993 C 220.79999999999998 318.69999999999993 216.29999999999998 318.69999999999993 211.89999999999998 318.69999999999993 C 211.29999999999998 317.3999999999999 209.99999999999997 317.3999999999999 209.99999999999997 314.8999999999999 C 210.59999999999997 314.8999999999999 211.89999999999998 312.99999999999994 211.89999999999998 312.3999999999999 C 211.89999999999998 311.7999999999999 211.89999999999998 310.49999999999994 211.89999999999998 309.8999999999999 C 211.89999999999998 309.2999999999999 211.89999999999998 307.99999999999994 211.89999999999998 307.3999999999999 C 211.89999999999998 305.49999999999994 211.89999999999998 303.5999999999999 211.89999999999998 301.69999999999993 C 213.2 301.0999999999999 213.79999999999998 300.3999999999999 213.2 297.8999999999999 C 213.2 297.2999999999999 213.2 296.5999999999999 212.6 296.5999999999999 C 212 295.2999999999999 210.1 293.3999999999999 209.4 291.4999999999999 C 209.4 291.4999999999999 210.70000000000002 288.2999999999999 210.70000000000002 287.0999999999999 C 210.10000000000002 286.4999999999999 209.4 285.7999999999999 209.4 285.19999999999993 L 209.4 281.3999999999999 C 209.4 280.0999999999999 209.4 278.8999999999999 209.4 277.5999999999999 C 210 275.0999999999999 210 272.4999999999999 210.70000000000002 270.5999999999999 C 210.70000000000002 269.2999999999999 210.70000000000002 268.69999999999993 210.10000000000002 268.0999999999999 C 210.10000000000002 267.4999999999999 210.10000000000002 267.4999999999999 210.10000000000002 266.7999999999999 C 212.00000000000003 265.4999999999999 212.60000000000002 260.4999999999999 213.3 257.8999999999999 C 213.3 257.2999999999999 213.3 256.5999999999999 213.9 255.99999999999991 C 213.9 255.39999999999992 214.5 255.39999999999992 215.20000000000002 254.6999999999999 C 216.50000000000003 253.3999999999999 217.10000000000002 252.1999999999999 217.70000000000002 250.8999999999999 C 218.3 249.59999999999988 219.60000000000002 248.9999999999999 220.20000000000002 247.6999999999999 C 219.60000000000002 246.3999999999999 220.8 244.49999999999991 220.8 243.8999999999999 C 221.4 242.59999999999988 220.8 241.9999999999999 221.4 240.6999999999999 C 221.4 240.0999999999999 222.70000000000002 239.3999999999999 222.70000000000002 239.3999999999999 C 223.3 238.09999999999988 224.00000000000003 236.8999999999999 225.20000000000002 235.59999999999988 C 225.8 234.9999999999999 226.50000000000003 234.29999999999987 226.50000000000003 233.69999999999987 C 227.10000000000002 231.79999999999987 227.10000000000002 230.4999999999999 227.80000000000004 228.59999999999988 C 229.10000000000005 224.19999999999987 230.30000000000004 219.09999999999988 232.20000000000005 214.69999999999987 C 232.20000000000005 214.09999999999988 232.20000000000005 213.39999999999986 232.80000000000004 212.79999999999987 C 232.80000000000004 212.19999999999987 233.40000000000003 212.19999999999987 234.10000000000005 212.19999999999987 C 234.70000000000005 211.59999999999988 235.40000000000006 210.89999999999986 236.00000000000006 210.29999999999987 C 236.60000000000005 209.69999999999987 237.30000000000007 209.69999999999987 237.30000000000007 208.99999999999986 C 238.60000000000008 207.69999999999985 238.60000000000008 204.59999999999985 239.80000000000007 203.89999999999986 C 241.10000000000008 203.29999999999987 243.60000000000008 201.39999999999986 243.60000000000008 199.49999999999986 C 244.9000000000001 201.39999999999986 244.9000000000001 196.99999999999986 244.9000000000001 195.69999999999985 C 244.9000000000001 195.09999999999985 244.9000000000001 194.39999999999984 244.9000000000001 193.79999999999984 C 245.50000000000009 192.49999999999983 246.8000000000001 191.29999999999984 248.10000000000008 189.99999999999983 C 250.00000000000009 187.49999999999983 251.9000000000001 184.89999999999984 253.80000000000007 182.99999999999983 C 254.40000000000006 181.69999999999982 257.00000000000006 179.79999999999984 257.6000000000001 179.19999999999982 C 257.6000000000001 178.59999999999982 257.6000000000001 177.2999999999998 257.6000000000001 176.69999999999982 C 258.2000000000001 176.09999999999982 257.6000000000001 174.7999999999998 257.6000000000001 173.49999999999983 C 257.6000000000001 171.59999999999982 257.6000000000001 169.69999999999982 257.6000000000001 167.79999999999984 C 251.9000000000001 167.79999999999984 245.60000000000008 167.79999999999984 239.9000000000001 167.79999999999984 C 236.7000000000001 168.39999999999984 233.60000000000008 170.99999999999983 231.7000000000001 173.49999999999983 C 231.1000000000001 174.79999999999984 229.8000000000001 175.99999999999983 229.2000000000001 177.89999999999984 C 229.2000000000001 178.49999999999983 229.2000000000001 180.39999999999984 228.6000000000001 181.09999999999982 C 227.3000000000001 182.39999999999984 222.90000000000012 182.99999999999983 222.3000000000001 185.49999999999983 C 222.3000000000001 190.59999999999982 222.3000000000001 194.99999999999983 222.3000000000001 199.99999999999983 C 221.7000000000001 201.29999999999984 221.00000000000009 202.49999999999983 219.8000000000001 203.79999999999984 C 219.2000000000001 205.09999999999985 219.2000000000001 206.29999999999984 217.3000000000001 206.29999999999984 C 216.7000000000001 205.69999999999985 216.00000000000009 204.39999999999984 216.00000000000009 203.79999999999984 C 216.00000000000009 203.19999999999985 216.60000000000008 202.49999999999983 216.00000000000009 201.89999999999984 C 216.00000000000009 201.29999999999984 214.70000000000007 200.59999999999982 214.70000000000007 199.39999999999984 C 214.10000000000008 196.89999999999984 214.10000000000008 194.29999999999984 213.40000000000006 191.79999999999984 L 212.80000000000007 191.19999999999985 C 212.80000000000007 190.59999999999985 212.80000000000007 189.89999999999984 213.40000000000006 189.29999999999984 C 214.00000000000006 187.99999999999983 214.70000000000007 184.19999999999985 214.70000000000007 182.99999999999983 C 214.70000000000007 181.69999999999982 214.10000000000008 179.79999999999984 213.40000000000006 179.19999999999982 C 212.70000000000005 178.5999999999998 211.50000000000006 177.2999999999998 211.50000000000006 177.2999999999998 C 211.50000000000006 171.59999999999982 211.50000000000006 166.4999999999998 211.50000000000006 161.4999999999998 C 212.80000000000007 160.1999999999998 213.40000000000006 158.9999999999998 212.80000000000007 157.0999999999998 C 214.10000000000008 156.4999999999998 217.90000000000006 157.0999999999998 219.80000000000007 157.0999999999998 C 220.40000000000006 157.0999999999998 221.70000000000007 157.0999999999998 223.00000000000006 157.0999999999998 C 225.50000000000006 157.0999999999998 228.70000000000005 157.0999999999998 231.20000000000005 157.0999999999998 C 232.50000000000006 157.0999999999998 236.90000000000003 157.0999999999998 239.40000000000003 157.0999999999998 C 245.70000000000005 157.0999999999998 255.80000000000004 156.4999999999998 259.00000000000006 157.0999999999998 C 260.6 154.9 261.8 154.9 263.1 154.9 z" stroke-linecap="round" />
</g>
		<g transform="matrix(1 0 0 1 -71 -12.75)" id="Layer_1"  >
<path style="stroke: none; stroke-width: 1; stroke-dasharray: none; stroke-linecap: butt; stroke-dashoffset: 0; stroke-linejoin: miter; stroke-miterlimit: 4; fill: rgb(255,255,255); fill-rule: nonzero; opacity: 1;" vector-effect="non-scaling-stroke"  transform=" translate(-185, -243.25)" d="M 203.6 325.7 C 202.29999999999998 325.7 201.7 325.09999999999997 201.1 325.09999999999997 C 200.5 325.09999999999997 199.79999999999998 325.09999999999997 199.2 325.09999999999997 L 198.6 325.09999999999997 C 198 325.09999999999997 196.7 325.7 196.1 326.4 C 194.79999999999998 326.4 194.2 325.79999999999995 192.9 325.79999999999995 C 191.6 325.79999999999995 187.20000000000002 325.79999999999995 185.9 325.79999999999995 C 185.3 325.79999999999995 184 325.79999999999995 183.4 325.79999999999995 C 181.5 325.79999999999995 179 325.79999999999995 177.1 326.4 C 176.5 326.4 173.29999999999998 328.9 172.7 329.59999999999997 C 171.39999999999998 328.99999999999994 168.89999999999998 328.29999999999995 168.89999999999998 326.4 C 170.79999999999998 325.09999999999997 172.09999999999997 322 173.99999999999997 320.7 C 174.59999999999997 320.09999999999997 176.49999999999997 319.4 176.49999999999997 318.2 C 177.09999999999997 316.9 176.49999999999997 313.8 177.09999999999997 312.5 C 177.69999999999996 311.2 177.09999999999997 309.3 177.69999999999996 308.1 C 178.29999999999995 304.3 178.29999999999995 299.90000000000003 178.29999999999995 296.1 C 181.49999999999994 294.20000000000005 178.89999999999995 291 178.29999999999995 288.5 C 178.29999999999995 287.2 178.89999999999995 285.3 178.89999999999995 284.1 C 179.49999999999994 282.8 180.19999999999996 280.90000000000003 180.79999999999995 279.70000000000005 C 181.39999999999995 278.40000000000003 180.79999999999995 275.30000000000007 180.79999999999995 274.6 C 180.19999999999996 271.40000000000003 181.39999999999995 266.40000000000003 180.79999999999995 263.20000000000005 C 180.19999999999996 260.00000000000006 181.39999999999995 255.60000000000005 180.79999999999995 253.10000000000005 C 180.79999999999995 249.30000000000004 180.79999999999995 246.10000000000005 180.79999999999995 242.30000000000004 C 180.19999999999996 240.40000000000003 180.79999999999995 236.00000000000003 180.79999999999995 232.80000000000004 C 180.79999999999995 231.50000000000003 180.79999999999995 230.90000000000003 180.79999999999995 229.60000000000005 C 180.19999999999996 227.70000000000005 180.79999999999995 222.60000000000005 180.79999999999995 219.50000000000006 C 180.79999999999995 215.70000000000005 180.79999999999995 211.90000000000006 180.79999999999995 208.10000000000005 C 181.39999999999995 207.50000000000006 182.09999999999997 206.80000000000004 182.09999999999997 206.20000000000005 L 182.09999999999997 206.20000000000005 L 182.09999999999997 206.20000000000005 C 180.79999999999995 204.90000000000003 180.79999999999995 205.60000000000005 180.79999999999995 203.70000000000005 C 180.19999999999996 192.30000000000004 179.49999999999994 180.30000000000004 178.29999999999995 168.90000000000003 C 176.99999999999994 166.40000000000003 173.19999999999996 167.00000000000003 171.99999999999994 165.10000000000002 L 171.99999999999994 164.50000000000003 C 171.39999999999995 163.90000000000003 170.69999999999993 164.50000000000003 169.49999999999994 164.50000000000003 C 168.89999999999995 163.20000000000002 166.99999999999994 162.60000000000002 165.69999999999993 160.70000000000002 C 166.29999999999993 160.10000000000002 166.99999999999994 158.20000000000002 167.59999999999994 157.50000000000003 C 169.49999999999994 158.10000000000002 171.99999999999994 158.10000000000002 174.59999999999994 158.10000000000002 C 177.19999999999993 158.10000000000002 180.29999999999993 158.10000000000002 182.79999999999993 158.10000000000002 C 184.69999999999993 158.70000000000002 189.09999999999994 158.70000000000002 190.99999999999991 158.10000000000002 C 193.49999999999991 158.10000000000002 195.39999999999992 158.10000000000002 197.99999999999991 157.50000000000003 C 198.5999999999999 157.50000000000003 199.89999999999992 156.90000000000003 199.89999999999992 156.90000000000003 C 200.49999999999991 157.50000000000003 202.39999999999992 159.40000000000003 203.0999999999999 160.70000000000005 C 203.0999999999999 162.00000000000006 203.0999999999999 162.60000000000005 203.0999999999999 163.90000000000003 C 202.49999999999991 165.20000000000005 199.89999999999992 165.80000000000004 198.6999999999999 166.40000000000003 C 196.1999999999999 168.30000000000004 194.2999999999999 170.20000000000005 194.2999999999999 174.60000000000002 C 194.8999999999999 174.60000000000002 195.5999999999999 175.20000000000002 195.5999999999999 175.90000000000003 C 196.89999999999992 177.20000000000005 195.5999999999999 179.70000000000005 194.99999999999991 181.00000000000003 C 194.39999999999992 181.60000000000002 194.39999999999992 181.60000000000002 193.6999999999999 182.30000000000004 C 193.0999999999999 183.60000000000005 193.6999999999999 186.10000000000005 193.6999999999999 188.00000000000003 C 193.6999999999999 192.40000000000003 193.6999999999999 196.90000000000003 193.6999999999999 201.30000000000004 C 194.2999999999999 203.20000000000005 193.6999999999999 206.40000000000003 193.6999999999999 208.90000000000003 C 193.6999999999999 214.60000000000002 193.6999999999999 220.30000000000004 193.6999999999999 225.30000000000004 C 193.6999999999999 226.60000000000005 193.6999999999999 227.80000000000004 193.6999999999999 228.50000000000003 C 193.6999999999999 228.50000000000003 193.0999999999999 229.80000000000004 193.6999999999999 229.80000000000004 C 194.2999999999999 231.10000000000005 194.2999999999999 232.30000000000004 194.2999999999999 233.00000000000003 C 194.2999999999999 233.70000000000002 194.2999999999999 234.30000000000004 194.2999999999999 234.90000000000003 L 194.8999999999999 235.50000000000003 C 194.8999999999999 236.80000000000004 195.4999999999999 238.70000000000002 195.4999999999999 239.90000000000003 C 194.8999999999999 241.80000000000004 193.59999999999988 242.40000000000003 192.9999999999999 244.30000000000004 C 192.9999999999999 244.90000000000003 192.9999999999999 246.20000000000005 192.9999999999999 246.80000000000004 C 192.9999999999999 249.30000000000004 192.9999999999999 251.20000000000005 192.9999999999999 253.10000000000005 C 192.9999999999999 254.40000000000006 193.59999999999988 255.60000000000005 193.59999999999988 256.30000000000007 C 193.59999999999988 257.6000000000001 193.59999999999988 258.80000000000007 193.59999999999988 260.1000000000001 C 193.59999999999988 260.7000000000001 193.59999999999988 261.4000000000001 193.59999999999988 261.4000000000001 L 194.19999999999987 261.4000000000001 C 194.19999999999987 262.0000000000001 194.19999999999987 262.0000000000001 194.19999999999987 262.7000000000001 C 194.79999999999987 264.6000000000001 194.19999999999987 266.5000000000001 194.19999999999987 268.4000000000001 C 192.89999999999986 269.0000000000001 191.69999999999987 270.30000000000007 190.9999999999999 271.6000000000001 C 190.3999999999999 273.50000000000006 191.59999999999988 277.9000000000001 192.2999999999999 279.80000000000007 C 192.2999999999999 281.1000000000001 191.6999999999999 282.30000000000007 192.2999999999999 283.6000000000001 C 192.8999999999999 284.9000000000001 193.5999999999999 286.1000000000001 194.1999999999999 287.4000000000001 C 194.1999999999999 288.0000000000001 194.1999999999999 288.7000000000001 194.7999999999999 289.30000000000007 C 194.7999999999999 289.9000000000001 195.3999999999999 289.30000000000007 195.3999999999999 289.9000000000001 C 194.7999999999999 290.5000000000001 195.3999999999999 292.4000000000001 195.3999999999999 293.1000000000001 C 194.7999999999999 295.6000000000001 194.7999999999999 299.4000000000001 194.7999999999999 302.00000000000006 C 191.5999999999999 303.30000000000007 192.2999999999999 305.80000000000007 192.8999999999999 309.00000000000006 C 192.8999999999999 309.6000000000001 193.4999999999999 310.90000000000003 193.4999999999999 311.50000000000006 C 194.09999999999988 313.40000000000003 195.9999999999999 313.40000000000003 197.2999999999999 314.70000000000005 C 199.1999999999999 316.00000000000006 201.0999999999999 317.20000000000005 202.9999999999999 318.50000000000006 C 203.59999999999988 318.50000000000006 203.59999999999988 319.1000000000001 204.2999999999999 319.1000000000001 C 203.6 320 203.6 323.8 203.6 325.7 z" stroke-linecap="round" />
</g>
		<g transform="matrix(1 0 0 1 -166.65 0.76)" id="Layer_1"  >
<path style="stroke: none; stroke-width: 1; stroke-dasharray: none; stroke-linecap: butt; stroke-dashoffset: 0; stroke-linejoin: miter; stroke-miterlimit: 4; fill: rgb(255,255,255); fill-rule: nonzero; opacity: 1;" vector-effect="non-scaling-stroke"  transform=" translate(-89.35, -256.76)" d="M 128.4 288.4 C 128.4 287.09999999999997 128.4 285.2 128.4 284 C 127.80000000000001 282.7 127.80000000000001 280.8 127.80000000000001 279.6 C 127.80000000000001 277.1 127.80000000000001 274.5 127.80000000000001 272 C 127.20000000000002 270.7 127.20000000000002 265.7 127.80000000000001 264.4 C 127.80000000000001 263.79999999999995 126.50000000000001 263.09999999999997 126.50000000000001 263.09999999999997 C 125.90000000000002 262.49999999999994 124.60000000000001 260.59999999999997 124.00000000000001 259.29999999999995 C 124.00000000000001 258.69999999999993 124.00000000000001 257.4 124.00000000000001 256.79999999999995 C 123.40000000000002 253.59999999999997 123.40000000000002 249.19999999999996 124.00000000000001 246.69999999999996 C 124.00000000000001 246.09999999999997 124.60000000000001 242.29999999999995 124.60000000000001 241.59999999999997 C 124.60000000000001 240.29999999999995 123.30000000000001 240.29999999999995 122.7 239.69999999999996 L 122.7 239.09999999999997 C 122.10000000000001 237.79999999999995 120.8 237.19999999999996 120.2 235.89999999999998 C 119.60000000000001 235.89999999999998 119.60000000000001 235.89999999999998 119.60000000000001 235.89999999999998 C 119.00000000000001 235.89999999999998 118.30000000000001 234.59999999999997 117.7 233.99999999999997 C 116.4 232.69999999999996 120.2 228.29999999999998 119 226.39999999999998 C 117.7 225.09999999999997 115.2 225.09999999999997 113.3 225.09999999999997 C 111.39999999999999 224.49999999999997 110.8 223.19999999999996 109.5 222.59999999999997 C 109.5 220.69999999999996 110.1 220.69999999999996 110.8 220.09999999999997 C 112.1 218.79999999999995 112.7 217.59999999999997 114 216.29999999999995 C 114.6 215.69999999999996 115.3 214.99999999999994 115.3 214.39999999999995 C 115.89999999999999 213.79999999999995 115.89999999999999 213.09999999999994 115.89999999999999 212.49999999999994 C 116.49999999999999 211.19999999999993 117.8 209.99999999999994 119.1 208.69999999999993 C 120.39999999999999 206.79999999999993 121 204.89999999999992 122.3 202.99999999999994 C 123.6 201.09999999999994 125.5 198.59999999999994 126.1 195.99999999999994 C 127.39999999999999 192.79999999999995 126.1 187.09999999999994 125.5 183.99999999999994 C 125.5 182.09999999999994 125.5 179.59999999999994 125.5 177.69999999999993 C 124.2 172.59999999999994 123.6 166.89999999999992 119.8 163.79999999999993 C 118.5 163.19999999999993 117.3 161.89999999999992 115.39999999999999 161.29999999999993 C 113.49999999999999 160.69999999999993 112.19999999999999 160.69999999999993 110.3 159.99999999999991 C 109.7 159.99999999999991 108.39999999999999 158.6999999999999 107.8 158.0999999999999 C 107.2 156.7999999999999 107.2 154.89999999999992 105.89999999999999 154.89999999999992 C 105.3 154.29999999999993 101.49999999999999 154.89999999999992 100.19999999999999 154.89999999999992 C 97.69999999999999 154.89999999999992 95.1 154.89999999999992 91.99999999999999 154.89999999999992 C 89.49999999999999 155.49999999999991 83.79999999999998 156.19999999999993 80.59999999999998 155.49999999999991 C 78.69999999999997 155.49999999999991 77.39999999999998 155.49999999999991 75.49999999999999 155.49999999999991 C 71.69999999999999 155.49999999999991 67.89999999999999 155.49999999999991 64.09999999999998 156.0999999999999 C 62.79999999999998 156.0999999999999 62.19999999999998 156.0999999999999 60.89999999999998 156.0999999999999 C 59.59999999999998 156.6999999999999 54.59999999999998 157.39999999999992 53.299999999999976 156.6999999999999 C 51.99999999999998 156.6999999999999 51.39999999999998 156.6999999999999 50.09999999999997 156.6999999999999 C 49.49999999999997 156.6999999999999 48.799999999999976 157.99999999999991 48.799999999999976 158.5999999999999 C 48.799999999999976 159.1999999999999 48.799999999999976 160.49999999999991 48.799999999999976 161.0999999999999 C 48.799999999999976 162.39999999999992 49.39999999999998 162.39999999999992 50.09999999999997 162.99999999999991 C 51.99999999999997 166.1999999999999 55.799999999999976 167.39999999999992 57.699999999999974 171.1999999999999 C 58.99999999999997 171.7999999999999 60.89999999999998 172.49999999999991 61.49999999999997 172.49999999999991 C 62.09999999999997 172.49999999999991 62.09999999999997 172.49999999999991 62.09999999999997 173.0999999999999 C 62.699999999999974 174.39999999999992 62.09999999999997 177.49999999999991 62.699999999999974 178.7999999999999 C 62.699999999999974 180.0999999999999 61.39999999999998 180.6999999999999 60.799999999999976 181.2999999999999 C 60.799999999999976 185.0999999999999 60.799999999999976 189.4999999999999 60.199999999999974 193.2999999999999 C 60.199999999999974 193.8999999999999 60.199999999999974 195.7999999999999 60.199999999999974 197.0999999999999 C 60.199999999999974 199.5999999999999 60.199999999999974 202.7999999999999 60.199999999999974 204.6999999999999 C 60.199999999999974 208.49999999999991 60.199999999999974 212.8999999999999 60.199999999999974 216.6999999999999 C 60.199999999999974 218.5999999999999 60.199999999999974 220.49999999999991 60.199999999999974 222.3999999999999 C 60.799999999999976 224.2999999999999 62.699999999999974 224.8999999999999 62.09999999999997 227.4999999999999 C 61.49999999999997 228.7999999999999 62.09999999999997 231.2999999999999 62.09999999999997 232.59999999999988 C 62.699999999999974 233.8999999999999 61.49999999999997 234.4999999999999 61.49999999999997 235.79999999999987 C 61.49999999999997 237.09999999999985 61.49999999999997 238.29999999999987 61.49999999999997 239.59999999999988 C 60.89999999999997 241.4999999999999 61.49999999999997 248.4999999999999 62.09999999999997 249.69999999999987 C 62.09999999999997 250.29999999999987 62.699999999999974 250.29999999999987 62.699999999999974 250.9999999999999 C 62.699999999999974 251.59999999999988 62.699999999999974 252.2999999999999 62.699999999999974 253.4999999999999 C 63.299999999999976 255.3999999999999 62.699999999999974 259.1999999999999 63.299999999999976 260.4999999999999 C 63.299999999999976 260.4999999999999 63.299999999999976 260.4999999999999 63.299999999999976 261.0999999999999 L 63.299999999999976 261.0999999999999 C 61.99999999999998 261.0999999999999 61.39999999999998 261.0999999999999 61.39999999999998 261.69999999999993 C 60.799999999999976 261.69999999999993 60.799999999999976 262.29999999999995 60.799999999999976 262.99999999999994 C 60.799999999999976 264.29999999999995 60.799999999999976 264.8999999999999 60.799999999999976 265.49999999999994 C 60.799999999999976 270.59999999999997 60.799999999999976 276.29999999999995 60.799999999999976 281.29999999999995 C 60.799999999999976 283.79999999999995 60.799999999999976 286.4 60.799999999999976 288.9 C 61.39999999999998 290.79999999999995 61.39999999999998 293.29999999999995 61.39999999999998 295.9 C 61.39999999999998 297.2 61.39999999999998 298.4 61.39999999999998 299.7 C 61.39999999999998 300.3 61.39999999999998 301.59999999999997 61.39999999999998 302.2 C 61.99999999999998 304.09999999999997 61.99999999999998 306.59999999999997 61.99999999999998 308.5 C 61.99999999999998 309.8 61.99999999999998 311.7 61.99999999999998 312.3 C 61.99999999999998 314.2 61.99999999999998 316.1 61.99999999999998 318 C 62.59999999999998 319.9 61.99999999999998 323.1 61.99999999999998 325 C 61.99999999999998 325.6 61.99999999999998 326.9 61.99999999999998 327.5 C 61.99999999999998 330 61.99999999999998 334.5 61.39999999999998 337.6 C 61.39999999999998 338.90000000000003 61.39999999999998 339.5 61.39999999999998 340.8 C 60.09999999999998 344.6 58.89999999999998 349 58.89999999999998 353.5 C 58.299999999999976 354.1 57.59999999999998 354.8 57.59999999999998 354.8 C 55.09999999999998 355.40000000000003 53.79999999999998 356.1 52.49999999999998 356.7 C 53.09999999999998 357.3 53.09999999999998 357.3 53.799999999999976 358 C 54.39999999999998 358.6 58.89999999999998 359.3 60.799999999999976 358.6 C 63.299999999999976 358 63.99999999999998 358 66.49999999999997 358.6 C 68.39999999999998 358.6 70.89999999999998 358.6 72.79999999999997 358.6 C 74.09999999999997 358.6 75.29999999999997 358.6 76.59999999999997 358.6 C 76.59999999999997 358.6 77.19999999999996 358.6 77.89999999999996 358.6 C 79.79999999999997 358 80.39999999999996 356.1 82.29999999999997 355.40000000000003 C 83.59999999999997 355.40000000000003 84.79999999999997 356.70000000000005 85.49999999999997 356.70000000000005 C 86.79999999999997 356.70000000000005 87.99999999999997 356.1 88.69999999999997 356.1 C 91.89999999999998 355.5 94.99999999999997 354.8 98.79999999999997 354.20000000000005 C 99.39999999999996 353.6 99.39999999999996 352.30000000000007 100.09999999999997 351.70000000000005 C 100.69999999999996 350.40000000000003 101.99999999999997 349.20000000000005 103.29999999999997 348.50000000000006 C 105.79999999999997 346.6000000000001 108.99999999999997 344.70000000000005 112.19999999999997 342.80000000000007 C 113.49999999999997 342.20000000000005 114.69999999999997 341.50000000000006 115.99999999999997 340.9000000000001 C 116.59999999999997 340.9000000000001 117.29999999999997 340.30000000000007 117.89999999999998 340.30000000000007 C 117.89999999999998 340.30000000000007 117.89999999999998 338.4000000000001 117.89999999999998 337.1000000000001 C 118.49999999999997 334.6000000000001 119.19999999999997 332.00000000000006 119.79999999999998 329.50000000000006 C 122.29999999999998 322.50000000000006 129.29999999999998 316.20000000000005 127.39999999999998 306.1000000000001 C 126.79999999999998 304.2000000000001 127.39999999999998 300.4000000000001 126.79999999999998 299.1000000000001 C 126.79999999999998 297.80000000000007 128.7 295.9000000000001 129.29999999999998 294.7000000000001 C 129.89999999999998 294.1000000000001 129.89999999999998 292.2000000000001 129.89999999999998 290.9000000000001 C 129 290.9 129 289 128.4 288.4 z M 105 304.8 C 105 306.7 104.4 308 104.4 309.90000000000003 C 103.80000000000001 311.20000000000005 103.10000000000001 312.40000000000003 102.5 314.3 C 102.5 317.5 101.9 320.6 101.9 323.8 C 101.30000000000001 325.7 100 327 98.7 328.2 C 97.4 330.09999999999997 95.5 331.4 94.3 332.59999999999997 C 93.7 333.2 93 333.9 92.39999999999999 334.49999999999994 C 91.8 334.49999999999994 91.8 334.49999999999994 91.1 334.49999999999994 C 90.39999999999999 334.49999999999994 89.8 335.79999999999995 89.19999999999999 335.79999999999995 C 87.89999999999999 336.4 87.29999999999998 337.69999999999993 85.99999999999999 338.29999999999995 C 85.39999999999999 338.29999999999995 84.09999999999998 339.59999999999997 82.79999999999998 338.9 C 82.19999999999999 338.9 81.49999999999999 338.9 80.89999999999998 338.9 C 82.19999999999997 336.4 83.39999999999998 333.79999999999995 84.09999999999998 331.29999999999995 C 84.09999999999998 329.4 84.09999999999998 327.49999999999994 84.09999999999998 325.59999999999997 C 84.09999999999998 324.29999999999995 84.09999999999998 321.2 84.09999999999998 320.49999999999994 C 84.09999999999998 318.59999999999997 84.69999999999997 313.49999999999994 83.49999999999999 312.8999999999999 C 84.09999999999998 310.3999999999999 84.09999999999998 309.0999999999999 85.99999999999999 307.7999999999999 C 85.99999999999999 305.8999999999999 85.99999999999999 303.3999999999999 86.59999999999998 302.0999999999999 C 86.59999999999998 296.3999999999999 86.59999999999998 290.69999999999993 86.59999999999998 284.9999999999999 C 86.59999999999998 281.7999999999999 87.19999999999997 277.39999999999986 85.29999999999998 276.0999999999999 C 85.29999999999998 274.7999999999999 85.29999999999998 274.19999999999993 85.29999999999998 272.8999999999999 C 85.29999999999998 272.2999999999999 86.59999999999998 271.5999999999999 87.19999999999999 270.99999999999994 C 87.19999999999999 269.69999999999993 87.19999999999999 269.09999999999997 87.79999999999998 268.49999999999994 C 88.39999999999998 265.99999999999994 88.39999999999998 264.09999999999997 87.79999999999998 261.49999999999994 C 87.19999999999999 260.19999999999993 87.79999999999998 258.99999999999994 87.79999999999998 257.69999999999993 C 87.19999999999999 255.79999999999993 88.39999999999998 252.59999999999994 87.79999999999998 251.99999999999994 C 87.79999999999998 251.39999999999995 87.79999999999998 251.39999999999995 87.79999999999998 251.39999999999995 L 88.39999999999998 251.39999999999995 C 88.39999999999998 245.69999999999996 88.39999999999998 239.99999999999994 88.99999999999997 234.29999999999995 C 90.29999999999997 234.29999999999995 90.89999999999998 236.19999999999996 91.49999999999997 236.79999999999995 C 93.39999999999998 238.69999999999996 95.29999999999997 241.19999999999996 97.79999999999997 242.49999999999994 C 99.09999999999997 243.09999999999994 100.99999999999997 243.79999999999995 102.19999999999997 244.99999999999994 C 103.49999999999997 247.49999999999994 102.79999999999997 251.99999999999994 104.69999999999997 253.89999999999995 C 104.69999999999997 254.49999999999994 104.09999999999998 254.49999999999994 104.09999999999998 254.49999999999994 C 104.09999999999998 255.09999999999994 104.69999999999997 255.79999999999995 104.69999999999997 256.3999999999999 C 104.69999999999997 256.99999999999994 104.69999999999997 258.2999999999999 104.69999999999997 258.8999999999999 C 105.29999999999997 262.0999999999999 105.29999999999997 267.7999999999999 103.39999999999998 269.69999999999993 C 103.99999999999997 271.5999999999999 105.29999999999998 273.49999999999994 105.89999999999998 275.3999999999999 C 106.49999999999997 276.69999999999993 105.89999999999998 279.19999999999993 106.49999999999997 280.49999999999994 C 106.49999999999997 281.79999999999995 105.89999999999998 281.09999999999997 105.19999999999997 281.79999999999995 C 105.19999999999997 282.4 104.59999999999998 283.09999999999997 104.59999999999998 283.69999999999993 C 103.99999999999999 286.19999999999993 105.89999999999998 289.3999999999999 106.49999999999999 290.69999999999993 C 106.49999999999999 291.29999999999995 106.49999999999999 291.99999999999994 106.49999999999999 292.5999999999999 C 106.49999999999999 293.19999999999993 106.49999999999999 293.19999999999993 105.89999999999999 293.8999999999999 L 105.89999999999999 294.49999999999994 L 106.49999999999999 294.49999999999994 C 106.9 298.5 106.2 301.7 105 304.8 z M 105 184 C 104.4 185.3 106.3 188.4 106.3 189.1 C 106.3 189.7 105.7 191 105.7 191.6 C 105.10000000000001 193.5 105.10000000000001 195.4 104.4 197.9 C 104.4 198.5 104.4 200.4 104.4 201.1 C 104.4 202.4 105 204.29999999999998 104.4 204.9 C 103.10000000000001 205.5 100.60000000000001 205.5 99.30000000000001 206.20000000000002 C 99.30000000000001 206.20000000000002 99.30000000000001 206.20000000000002 99.30000000000001 206.8 C 98.70000000000002 207.4 97.4 208.10000000000002 96.80000000000001 209.3 C 95.50000000000001 210.60000000000002 94.9 215.60000000000002 93.00000000000001 216.3 C 93.00000000000001 216.3 91.70000000000002 216.3 91.10000000000001 216.3 C 89.80000000000001 215.70000000000002 89.2 215 87.9 216.3 L 87.9 216.3 C 87.9 208.10000000000002 87.9 200.5 87.9 192.3 C 87.9 189.10000000000002 87.9 186.60000000000002 87.9 183.4 C 87.9 182.8 88.5 182.1 88.5 181.5 L 89.1 180.9 C 89.69999999999999 180.3 89.1 179 89.69999999999999 178.4 C 90.29999999999998 177.8 90.99999999999999 177.8 90.99999999999999 177.8 C 91.59999999999998 177.8 91.59999999999998 178.4 92.29999999999998 178.4 C 92.99999999999999 178.4 94.79999999999998 178.4 95.49999999999999 177.8 C 97.39999999999999 177.20000000000002 97.99999999999999 177.8 99.29999999999998 177.8 C 99.29999999999998 178.4 99.89999999999998 179.10000000000002 99.89999999999998 179.70000000000002 C 101.19999999999997 180.3 103.09999999999998 181.00000000000003 104.29999999999998 181.60000000000002 C 104.89999999999998 181.60000000000002 106.19999999999999 181.60000000000002 106.79999999999998 181.60000000000002 C 106.79999999999998 181.60000000000002 106.79999999999998 181.60000000000002 107.39999999999998 181.60000000000002 C 106.9 182.1 105 182.8 105 184 z" stroke-linecap="round" />
</g>
</g>
</g>
</svg>