<?xml version="1.0" encoding="UTF-8" standalone="no" ?>
<!DOCTYPE svg PUBLIC "-//W3C//DTD SVG 1.1//EN" "http://www.w3.org/Graphics/SVG/1.1/DTD/svg11.dtd">
<svg xmlns="http://www.w3.org/2000/svg" xmlns:xlink="http://www.w3.org/1999/xlink" version="1.1" width="1080" height="1080" viewBox="0 0 1080 1080" xml:space="preserve">
<desc>Created with Fabric.js 5.2.4</desc>
<defs>
</defs>
<rect x="0" y="0" width="100%" height="100%" fill="transparent"></rect>
<g transform="matrix(1 0 0 1 540 540)" id="e2edc9b0-2ce0-4d1c-affa-7a87703252ae"  >
</g>
<g transform="matrix(1 0 0 1 540 540)" id="c13ede39-bfcc-456a-957e-a17291cc78a6"  >
<rect style="stroke: none; stroke-width: 1; stroke-dasharray: none; stroke-linecap: butt; stroke-dashoffset: 0; stroke-linejoin: miter; stroke-miterlimit: 4; fill: rgb(255,255,255); fill-rule: nonzero; opacity: 1; visibility: hidden;" vector-effect="non-scaling-stroke"  x="-540" y="-540" rx="0" ry="0" width="1080" height="1080" />
</g>
<g transform="matrix(10.8 0 0 10.8 540 540)"  >
<g style=""   >
		<g transform="matrix(1 0 0 1 -2.98 -33.44)" id="Layer_1"  >
<path style="stroke: none; stroke-width: 1; stroke-dasharray: none; stroke-linecap: butt; stroke-dashoffset: 0; stroke-linejoin: miter; stroke-miterlimit: 4; fill: rgb(211,47,47); fill-rule: nonzero; opacity: 1;" vector-effect="non-scaling-stroke"  transform=" translate(-47.02, -16.56)" d="M 63.5 21.1 C 63.5 21.1 64.2 8.200000000000001 59.7 4.300000000000001 C 60.5 6.700000000000001 58.6 8.4 58.6 8.4 C 58.6 8.4 59.3 -0.5 42.2 0 C 47.400000000000006 2.7 48.800000000000004 6 48.800000000000004 6 C 48.800000000000004 6 44.1 3.3 39.5 4.8 C 34.9 6.3 34.1 8.5 30.5 8.2 C 34.7 10.5 37.5 9 39.3 10.7 C 41.099999999999994 12.399999999999999 43.5 18.299999999999997 43.5 18.299999999999997 C 43.5 18.299999999999997 40.7 16.999999999999996 35.6 17.499999999999996 C 38.1 17.999999999999996 41.300000000000004 21.799999999999997 41.800000000000004 22.9 C 39.800000000000004 22.299999999999997 35.00000000000001 21.7 33.800000000000004 24.099999999999998 C 35.00000000000001 24.799999999999997 35.1 27.099999999999998 35.00000000000001 28.799999999999997 C 34.900000000000006 30.4 36.300000000000004 33.5 37.20000000000001 33.099999999999994 L 63.5 21.1 z" stroke-linecap="round" />
</g>
		<g transform="matrix(1 0 0 1 -4.91 -16.1)" id="Layer_1"  >
<path style="stroke: none; stroke-width: 1; stroke-dasharray: none; stroke-linecap: butt; stroke-dashoffset: 0; stroke-linejoin: miter; stroke-miterlimit: 4; fill: rgb(249,111,0); fill-rule: nonzero; opacity: 1;" vector-effect="non-scaling-stroke"  transform=" translate(-45.09, -33.9)" d="M 86.7 43.2 C 86.60000000000001 42.7 86 40.1 84.2 39.6 C 82.2 39 81.2 39.300000000000004 81.2 39.300000000000004 L 76.9 28.200000000000003 L 78 25 L 75 10.7 C 75 10.7 71.5 6.199999999999999 69.3 4.6 C 68 3.6999999999999997 66.89999999999999 3.3 65.8 3.3 C 65.8 3.3 65.8 3.3 65.8 3.3 L 67.6 21.1 L 55.89999999999999 21 C 53.39999999999999 21.3 49.19999999999999 26.3 48.29999999999999 27.1 C 47.39999999999999 27.900000000000002 40.69999999999999 31 38.89999999999999 31.5 C 37.099999999999994 32 29.89999999999999 31.7 27.79999999999999 31.6 C 27.09999999999999 31.6 15.39999999999999 30.200000000000003 11.199999999999989 30.1 C 4.8 30 -0.4 31.3 0 32.6 C 0.4 34 11.4 47.7 18.1 52.6 C 24.700000000000003 57.4 31.1 52.1 31.200000000000003 52 C 30.000000000000004 53.2 29.000000000000004 54.6 28.200000000000003 56.1 C 29.400000000000002 54.9 30.400000000000002 56.4 32 54.300000000000004 C 29.9 59.1 32.1 64.5 32.1 64.5 C 33.5 58.5 38.7 54.7 43.1 50.3 L 68.6 60.5 L 90.2 52 L 90.2 41.4 C 89.4 42.4 88.1 43 86.7 43.2 z" stroke-linecap="round" />
</g>
		<g transform="matrix(1 0 0 1 13.25 20.65)" id="Layer_1"  >
<path style="stroke: none; stroke-width: 1; stroke-dasharray: none; stroke-linecap: butt; stroke-dashoffset: 0; stroke-linejoin: miter; stroke-miterlimit: 4; fill: rgb(242,156,51); fill-rule: nonzero; opacity: 1;" vector-effect="non-scaling-stroke"  transform=" translate(-63.25, -70.65)" d="M 90.2 41.4 C 90.2 41.4 89.8 45.4 82.10000000000001 51.9 C 74.40000000000002 58.4 68.00000000000001 56.5 61.400000000000006 55.4 C 54.900000000000006 54.3 41.900000000000006 45.599999999999994 41.900000000000006 45.599999999999994 C 39.10000000000001 43.599999999999994 36.2 44.89999999999999 34.50000000000001 45.39999999999999 C 35.400000000000006 45.39999999999999 36.70000000000001 46.19999999999999 37.400000000000006 46.49999999999999 C 34.7 47.39999999999999 32.800000000000004 50.199999999999996 32.800000000000004 50.199999999999996 L 35.7 49.4 C 33.400000000000006 52.5 34.2 65.4 35.400000000000006 69.1 L 37.300000000000004 65.19999999999999 C 36.900000000000006 69.1 42.300000000000004 89.6 43.800000000000004 91.99999999999999 C 43.800000000000004 91.99999999999999 45.1 86.59999999999998 45.50000000000001 87.49999999999999 C 45.800000000000004 88.19999999999999 47.60000000000001 97.29999999999998 47.60000000000001 97.29999999999998 C 47.60000000000001 97.29999999999998 48.900000000000006 92.39999999999998 49.20000000000001 92.19999999999999 C 49.50000000000001 91.99999999999999 51.50000000000001 99.49999999999999 51.20000000000001 99.89999999999999 C 53.60000000000001 97.3 57.70000000000001 89.6 57.60000000000001 88.39999999999999 C 57.80000000000001 89.19999999999999 58.30000000000001 91.69999999999999 58.30000000000001 92.3 C 58.60000000000001 91.7 62.500000000000014 85.1 64.10000000000001 84 C 65.50000000000001 84 76.7 82.4 76.80000000000001 73.9 C 76.9 68.10000000000001 77.20000000000002 65.7 77.60000000000001 64.7 C 77.80000000000001 64.3 78.00000000000001 64.10000000000001 78.10000000000001 63.900000000000006 C 91.80000000000001 62.900000000000006 93.7 44.00000000000001 93.7 44.00000000000001 L 90.2 41.4 z" stroke-linecap="round" />
</g>
		<g transform="matrix(1 0 0 1 8.65 14.7)" id="Layer_1"  >
<path style="stroke: none; stroke-width: 1; stroke-dasharray: none; stroke-linecap: butt; stroke-dashoffset: 0; stroke-linejoin: miter; stroke-miterlimit: 4; fill: rgb(46,0,0); fill-rule: nonzero; opacity: 1;" vector-effect="non-scaling-stroke"  transform=" translate(-58.65, -64.7)" d="M 70.1 64 L 73.8 67.7 L 69 76.3 L 47.6 74.3 L 46.9 67.1 C 46.9 67.1 46.9 67.1 46.9 67.1 C 46.1 65.39999999999999 45.6 63.8 45.1 62.39999999999999 C 43.9 58.599999999999994 43.6 56.099999999999994 43.5 54.69999999999999 C 43.5 54.09999999999999 43.8 53.499999999999986 44.4 53.29999999999999 L 44.8 53.09999999999999 C 44.8 53.1 55.2 62.3 70.1 64 z" stroke-linecap="round" />
</g>
		<g transform="matrix(1 0 0 1 -5.2 5.24)" id="Layer_1"  >
<path style="stroke: none; stroke-width: 1; stroke-dasharray: none; stroke-linecap: butt; stroke-dashoffset: 0; stroke-linejoin: miter; stroke-miterlimit: 4; fill: rgb(196,156,159); fill-rule: nonzero; opacity: 1;" vector-effect="non-scaling-stroke"  transform=" translate(-44.8, -55.24)" d="M 44.8 55.2 L 44.8 55.2 C 44.8 55.3 44.8 55.3 44.8 55.2 z" stroke-linecap="round" />
</g>
		<g transform="matrix(1 0 0 1 -29.7 -8.35)" id="Layer_1"  >
<path style="stroke: none; stroke-width: 1; stroke-dasharray: none; stroke-linecap: butt; stroke-dashoffset: 0; stroke-linejoin: miter; stroke-miterlimit: 4; fill: rgb(249,149,116); fill-rule: nonzero; opacity: 1;" vector-effect="non-scaling-stroke"  transform=" translate(-20.3, -41.65)" d="M 31.6 48.9 C 31.6 48.9 29.6 51.699999999999996 23.3 50.699999999999996 C 17 49.699999999999996 8.8 43.5 4.2 33.3 C 7.300000000000001 32.5 10.7 32.099999999999994 13.2 32.599999999999994 C 15.899999999999999 33.099999999999994 36.4 40.8 36.4 40.8 C 32.8 40 23.5 41.1 22 41.4 C 23.4 41.8 27.1 44.8 29.1 46.4 C 27.400000000000002 46.9 26.5 47.199999999999996 25.1 48.1 C 27.1 47.9 29.1 48.8 31.6 48.9 z" stroke-linecap="round" />
</g>
		<g transform="matrix(1 0 0 1 15.54 -13.65)" id="Layer_1"  >
<path style="stroke: none; stroke-width: 1; stroke-dasharray: none; stroke-linecap: butt; stroke-dashoffset: 0; stroke-linejoin: miter; stroke-miterlimit: 4; fill: rgb(232,221,227); fill-rule: nonzero; opacity: 1;" vector-effect="non-scaling-stroke"  transform=" translate(-65.54, -36.35)" d="M 68.8 42.8 C 68.39999999999999 44.099999999999994 67.2 46.199999999999996 63.699999999999996 47.099999999999994 C 57.99999999999999 48.599999999999994 53.89999999999999 47.3 52.8 46.89999999999999 C 51.699999999999996 46.599999999999994 50.199999999999996 45.099999999999994 49.599999999999994 42.099999999999994 C 48.99999999999999 39.099999999999994 49.699999999999996 28.499999999999993 57.89999999999999 27.999999999999993 C 61.19999999999999 27.799999999999994 63.99999999999999 29.89999999999999 65.3 33.099999999999994 C 66.5 35.89999999999999 67.7 39.3 68.5 42.099999999999994 C 68.7 42.3 68.8 42.6 68.8 42.8 z M 79.3 32.2 C 78.5 30.6 75.8 24.700000000000003 73.8 24.900000000000002 C 71.8 25.1 71.1 30.6 71.1 30.6 C 71.1 30.6 72.1 34.6 72.1 34.7 C 72.1 34.7 73.8 38.6 74 38.800000000000004 C 74.2 39.00000000000001 76.1 41.2 76.9 41.400000000000006 C 78 41.60000000000001 81.4 41.10000000000001 81.60000000000001 40.800000000000004 C 81.9 40.6 80.1 33.8 79.3 32.2 z" stroke-linecap="round" />
</g>
		<g transform="matrix(1 0 0 1 17.75 -36.25)" id="Layer_1"  >
<path style="stroke: none; stroke-width: 1; stroke-dasharray: none; stroke-linecap: butt; stroke-dashoffset: 0; stroke-linejoin: miter; stroke-miterlimit: 4; fill: rgb(46,0,0); fill-rule: nonzero; opacity: 1;" vector-effect="non-scaling-stroke"  transform=" translate(-67.75, -13.75)" d="M 72 13.9 L 67.9 24.1 L 64.30000000000001 20.5 C 65.4 17.9 68.30000000000001 7.800000000000001 63.500000000000014 3.8999999999999986 C 64.30000000000001 3.5999999999999988 65.00000000000001 3.3999999999999986 65.80000000000001 3.3999999999999986 L 65.80000000000001 3.3999999999999986 C 65.80000000000001 3.3999999999999986 65.80000000000001 3.3999999999999986 65.80000000000001 3.3999999999999986 L 65.80000000000001 3.3999999999999986 C 67.9 3.8 72 9.4 72 13.9 z" stroke-linecap="round" />
</g>
		<g transform="matrix(1 0 0 1 19.28 -12)" id="Layer_1"  >
<path style="stroke: none; stroke-width: 1; stroke-dasharray: none; stroke-linecap: butt; stroke-dashoffset: 0; stroke-linejoin: miter; stroke-miterlimit: 4; fill: rgb(46,0,0); fill-rule: nonzero; opacity: 1;" vector-effect="non-scaling-stroke"  transform=" translate(-69.28, -38)" d="M 65.7 33.7 L 65.7 33.7 C 65 33 64.2 32.7 63.5 33 C 62 33.5 61.7 36.4 62.8 39.4 C 63.9 42.5 65.89999999999999 44.5 67.39999999999999 44 C 68.1 43.8 68.49999999999999 43 68.69999999999999 42 C 67.9 39.3 66.9 36.5 65.7 33.7 z M 76 35.1 C 75.3 33 73.9 31.6 73 32 C 72.3 32.2 72 33.3 72.2 34.7 C 72.2 34.7 72.4 35.400000000000006 72.4 35.400000000000006 C 72.7 36.300000000000004 73.9 38.60000000000001 74 38.800000000000004 C 74.5 39.300000000000004 75.1 39.6 75.5 39.400000000000006 C 76.5 39.1 76.7 37.2 76 35.1 z" stroke-linecap="round" />
</g>
		<g transform="matrix(1 0 0 1 44.81 -13.66)" id="Layer_1"  >
<path style="stroke: none; stroke-width: 1; stroke-dasharray: none; stroke-linecap: butt; stroke-dashoffset: 0; stroke-linejoin: miter; stroke-miterlimit: 4; fill: rgb(112,16,30); fill-rule: nonzero; opacity: 1;" vector-effect="non-scaling-stroke"  transform=" translate(-94.81, -36.34)" d="M 97.9 29 C 96 27.6 92.30000000000001 28.6 90.9 31.4 C 89.5 34.199999999999996 88.30000000000001 43.3 92.9 44.3 C 97.2 42.9 99.60000000000001 37.5 99.80000000000001 36 C 100.1 34.5 100.3 30.7 97.9 29 z" stroke-linecap="round" />
</g>
		<g transform="matrix(1 0 0 1 9.72 -29.5)" id="Layer_1"  >
<path style="stroke: none; stroke-width: 1; stroke-dasharray: none; stroke-linecap: butt; stroke-dashoffset: 0; stroke-linejoin: miter; stroke-miterlimit: 4; fill: rgb(112,16,30); fill-rule: nonzero; opacity: 1;" vector-effect="non-scaling-stroke"  transform=" translate(-59.72, -20.5)" d="M 69.3 26.1 C 69.3 26.1 69.39999999999999 22.8 68.89999999999999 21.6 C 68.3 20.400000000000002 66.3 17.8 68.1 14.8 C 68.5 15.700000000000001 69.39999999999999 15.9 69.8 15.8 C 70.2 15.600000000000001 73.6 9.4 75.39999999999999 9.600000000000001 C 77.19999999999999 9.8 80.39999999999999 12.100000000000001 80.89999999999999 15.900000000000002 C 81.39999999999999 19.700000000000003 81.3 24.900000000000002 78.69999999999999 26.700000000000003 C 77.89999999999999 26.1 76.99999999999999 20.000000000000004 76.1 19.900000000000002 C 75.1 20.500000000000004 72 24.300000000000004 71.69999999999999 24.700000000000003 C 71.2 25.2 69.3 26.1 69.3 26.1 z M 65 27 C 65 27 64.6 24.8 65 24 C 65.4 23.2 65.9 22.2 66.1 19.9 C 66.3 16.2 64.1 14.999999999999998 64.1 14.999999999999998 C 64.1 14.999999999999998 63.89999999999999 16.4 63.099999999999994 16.099999999999998 C 62.3 15.799999999999997 59.89999999999999 12.599999999999998 59.199999999999996 12.199999999999998 C 58.599999999999994 11.799999999999997 57.49999999999999 10.699999999999998 55.199999999999996 10.699999999999998 C 52.9 10.699999999999998 42 14.2 38.3 26.2 C 38.599999999999994 26.8 43.199999999999996 25.5 43.8 24.4 C 43.4 25.7 41.9 29.5 43.9 31.4 C 46.199999999999996 27.4 49.3 21.099999999999998 54.4 21.299999999999997 C 59.5 21.499999999999996 60.1 24.599999999999998 60.5 24.999999999999996 C 60.9 25.4 64.2 26.8 65 27 z" stroke-linecap="round" />
</g>
		<g transform="matrix(1 0 0 1 11.7 16.78)" id="Layer_1"  >
<path style="stroke: none; stroke-width: 1; stroke-dasharray: none; stroke-linecap: butt; stroke-dashoffset: 0; stroke-linejoin: miter; stroke-miterlimit: 4; fill: rgb(232,221,227); fill-rule: nonzero; opacity: 1;" vector-effect="non-scaling-stroke"  transform=" translate(-61.7, -66.78)" d="M 47.6 62.4 L 48.6 63.8 C 48.300000000000004 64 47.4 64.6 46.1 65.39999999999999 C 46 65.1 45.9 64.8 45.7 64.49999999999999 C 45.400000000000006 63.69999999999999 45.1 62.999999999999986 44.900000000000006 62.29999999999998 L 45.00000000000001 62.29999999999998 C 45.00000000000001 62.29999999999998 46.20000000000001 61.79999999999998 46.300000000000004 61.79999999999998 C 46.9 61.9 47.4 62.1 47.6 62.4 z M 75.4 64.8 C 76.30000000000001 64.89999999999999 77.7 64.89999999999999 78.80000000000001 64 C 77.80000000000001 64.1 76.4 64.2 75.70000000000002 64.2 C 73.20000000000002 64.3 70.00000000000001 64 70.00000000000001 64 C 55.100000000000016 62.4 44.80000000000001 53.1 44.80000000000001 53.1 C 44.80000000000001 53.1 43.70000000000001 56.6 46.60000000000001 57.9 C 47.50000000000001 59.199999999999996 49.10000000000001 60.6 51.00000000000001 60.4 C 52.800000000000004 61.9 54.10000000000001 62.699999999999996 56.50000000000001 62.1 C 59.300000000000004 64 59.300000000000004 65.1 59.70000000000001 65.2 C 60.10000000000001 65.3 61.90000000000001 65.10000000000001 63.00000000000001 64.10000000000001 C 64 64.9 66.7 66.30000000000001 69.2 65.4 C 69.2 65.4 70 65.80000000000001 71.2 65.80000000000001 C 70.9 66.80000000000001 70 73.4 65.3 74.80000000000001 C 62.5 75.4 59.8 74.50000000000001 57.5 73.20000000000002 C 57 74.50000000000001 56.1 76.30000000000001 55 77.90000000000002 C 55.6 78.10000000000002 56.2 78.30000000000003 56.6 78.30000000000003 C 57 80.00000000000003 60.9 80.10000000000002 62.9 79.80000000000003 C 64.2 81.20000000000003 68.9 80.10000000000002 69.6 78.80000000000003 C 71.1 78.90000000000002 72.8 76.70000000000003 73.19999999999999 74.90000000000002 C 73.29999999999998 74.90000000000002 73.99999999999999 74.20000000000002 74.29999999999998 73.20000000000002 C 74.69999999999999 71.80000000000001 74.29999999999998 70.60000000000002 74.29999999999998 70.60000000000002 L 75.59999999999998 68.50000000000003 C 75.79999999999998 68.30000000000003 75.89999999999998 68.00000000000003 75.89999999999998 67.70000000000003 C 75.99999999999997 67.30000000000003 75.89999999999998 66.80000000000003 75.69999999999997 66.50000000000003 C 75.69999999999997 66.50000000000003 75.09999999999998 65.20000000000003 74.99999999999997 65.20000000000003 C 75.3 65 75.4 64.9 75.4 64.8 z" stroke-linecap="round" />
</g>
		<g transform="matrix(1 0 0 1 -3.35 24.02)" id="Layer_1"  >
<path style="stroke: none; stroke-width: 1; stroke-dasharray: none; stroke-linecap: butt; stroke-dashoffset: 0; stroke-linejoin: miter; stroke-miterlimit: 4; fill: rgb(211,47,47); fill-rule: nonzero; opacity: 1;" vector-effect="non-scaling-stroke"  transform=" translate(-46.65, -74.02)" d="M 57.8 72.7 C 57.099999999999994 74.60000000000001 55.599999999999994 77.5 53.699999999999996 79.9 C 51.099999999999994 83.30000000000001 44.89999999999999 85 44 85.2 C 43 85.4 38.4 85.4 35.8 80.8 C 33.9 77.39999999999999 35.3 71.6 37.8 70 C 40.3 68.4 47 65.2 48 64.5 C 49.3 63.5 49.2 62.9 50 62.8 C 51.4 62.599999999999994 53.3 63.9 52.6 67.6 C 52.300000000000004 69.39999999999999 48.9 73 49.4 73.5 C 50 74 53.699999999999996 70.5 54.199999999999996 67.9 C 54.4 66.80000000000001 55.8 66.60000000000001 56.699999999999996 66.9 C 59 67.8 58.5 70.8 57.8 72.7 z" stroke-linecap="round" />
</g>
</g>
</g>
</svg>