<?xml version="1.0" encoding="UTF-8" standalone="no" ?>
<!DOCTYPE svg PUBLIC "-//W3C//DTD SVG 1.1//EN" "http://www.w3.org/Graphics/SVG/1.1/DTD/svg11.dtd">
<svg xmlns="http://www.w3.org/2000/svg" xmlns:xlink="http://www.w3.org/1999/xlink" version="1.1" width="1080" height="1080" viewBox="0 0 1080 1080" xml:space="preserve">
<desc>Created with Fabric.js 5.2.4</desc>
<defs>
</defs>
<rect x="0" y="0" width="100%" height="100%" fill="transparent"></rect>
<g transform="matrix(1 0 0 1 540 540)" id="e2edc9b0-2ce0-4d1c-affa-7a87703252ae"  >
</g>
<g transform="matrix(1 0 0 1 540 540)" id="c13ede39-bfcc-456a-957e-a17291cc78a6"  >
<rect style="stroke: none; stroke-width: 1; stroke-dasharray: none; stroke-linecap: butt; stroke-dashoffset: 0; stroke-linejoin: miter; stroke-miterlimit: 4; fill: rgb(255,255,255); fill-rule: nonzero; opacity: 1; visibility: hidden;" vector-effect="non-scaling-stroke"  x="-540" y="-540" rx="0" ry="0" width="1080" height="1080" />
</g>
<g transform="matrix(5.07 0 0 5.07 540 540)"  >
<g style=""   >
		<g transform="matrix(1 0 0 1 2.45 3.7)" id="Layer_1_00000041290065268955031760000004908605694924825523_"  >
<path style="stroke: none; stroke-width: 1; stroke-dasharray: none; stroke-linecap: butt; stroke-dashoffset: 0; stroke-linejoin: miter; stroke-miterlimit: 4; fill: rgb(237,28,36); fill-rule: nonzero; opacity: 1;" vector-effect="non-scaling-stroke"  transform=" translate(-108.95, -110.2)" d="M 190.9 126 L 206.70000000000002 110.2 L 190.9 94.4 C 187.4 94.9 183.8 93.7 181.3 91.2 L 128 37.8 C 125.5 35.3 124.3 31.699999999999996 124.8 28.199999999999996 L 109 12.4 L 93.2 28.3 C 93.7 31.8 92.5 35.4 90 37.9 L 36.6 91.2 C 34.1 93.7 30.5 94.9 27 94.4 L 11.2 110.2 L 27.1 126 C 30.6 125.5 34.2 126.7 36.7 129.2 L 90 182.5 C 92.5 185 93.7 188.6 93.2 192.1 L 109 208 L 124.8 192.2 C 124.3 188.7 125.5 185.1 128 182.6 L 181.3 129.3 C 183.9 126.7 187.4 125.5 190.9 126 z" stroke-linecap="round" />
</g>
		<g transform="matrix(1 0 0 1 2.45 4.25)" id="Layer_1_00000041290065268955031760000004908605694924825523_"  >
<path style="stroke: none; stroke-width: 1; stroke-dasharray: none; stroke-linecap: butt; stroke-dashoffset: 0; stroke-linejoin: miter; stroke-miterlimit: 4; fill: rgb(0,0,0); fill-rule: nonzero; opacity: 1;" vector-effect="non-scaling-stroke"  transform=" translate(-108.95, -110.75)" d="M 99.5 126.3 L 99.5 166.8 C 99.5 167.9 87.2 175.10000000000002 87.2 175.10000000000002 L 130.6 175.10000000000002 C 130.6 175.10000000000002 121 167.90000000000003 121 166.8 C 121 166.8 121 127.00000000000001 121 125.4 C 121 125.4 121 117.80000000000001 121 117.80000000000001 C 121 117.20000000000002 124.7 114.00000000000001 128.4 111.4 L 128.70000000000002 111.2 L 128.4 111 C 124.80000000000001 108.3 121.10000000000001 105.2 121.10000000000001 104.6 C 121.10000000000001 104.19999999999999 121.2 94.5 121.2 94.5 C 121.2 93.1 121.2 54.8 121.2 54.7 C 121.2 53.6 130.7 46.400000000000006 130.7 46.400000000000006 L 87.3 46.400000000000006 C 87.3 46.400000000000006 99.5 53.60000000000001 99.5 54.7 C 99.5 54.7 99.5 92.5 99.5 93.30000000000001 C 99.5 93.30000000000001 99.6 104.10000000000001 99.6 104.60000000000001 C 99.6 105.10000000000001 92 111.10000000000001 92 111.10000000000001 C 92 111.10000000000001 99.6 117.10000000000001 99.6 117.7 C 99.6 117.8 99.5 126.3 99.5 126.3 z" stroke-linecap="round" />
</g>
		<g transform="matrix(1 0 0 1 4.3 3.65)" id="Layer_1_00000041290065268955031760000004908605694924825523_"  >
<path style="stroke: none; stroke-width: 1; stroke-dasharray: none; stroke-linecap: butt; stroke-dashoffset: 0; stroke-linejoin: miter; stroke-miterlimit: 4; fill: rgb(237,230,202); fill-rule: nonzero; opacity: 1;" vector-effect="non-scaling-stroke"  transform=" translate(-110.8, -110.15)" d="M 174.4 98.7 C 174.20000000000002 98.2 174 97.7 173.70000000000002 97.3 L 173.70000000000002 97.3 C 173.70000000000002 97.3 170.70000000000002 88.6 156.70000000000002 76.9 C 150.8 71.9 144.10000000000002 67.9 136.9 65.10000000000001 C 127.7 61.10000000000001 116.80000000000001 59.50000000000001 99.4 59.50000000000001 L 47.900000000000006 59.300000000000004 L 47.2 59.300000000000004 L 47.7 59.7 C 47.800000000000004 59.800000000000004 58.5 67.3 62.7 70.3 C 62.800000000000004 77.39999999999999 62.7 148 62.7 151.3 L 47 160.9 L 108 161 C 125 161 137.3 156.8 147.7 147.3 C 155.5 140.60000000000002 161 131.60000000000002 163.2 121.50000000000001 C 163.6 119.90000000000002 163.79999999999998 118.20000000000002 164 116.50000000000001 C 164.1 115.00000000000001 164.2 113.50000000000001 164.2 112.00000000000001 C 164.2 102.90000000000002 161.5 94.00000000000001 156.39999999999998 86.4 C 156.39999999999998 86.4 156.39999999999998 86.30000000000001 156.39999999999998 86.30000000000001 C 156.49999999999997 86.30000000000001 156.59999999999997 86.4 156.7 86.4 C 158.2 87.10000000000001 159.7 87.80000000000001 161.1 88.7 L 161.4 88.9 C 162.3 89.4 163.1 90 164 90.60000000000001 C 167.6 93.10000000000001 170.9 95.9 174 99.00000000000001 L 174.6 99.70000000000002 L 174.4 98.7 z M 102.3 150.7 C 96.8 150.7 91.7 150.7 89 150.7 L 87.2 150.7 C 86.10000000000001 150.7 85.9 150.7 85.9 149 C 85.9 147.9 86 75.6 86 71.6 C 88 71.3 109.6 70.3 120 75.19999999999999 C 124.4 77.1 128.4 80.1 131.4 83.79999999999998 C 136 89.39999999999998 138.3 96.79999999999998 138.3 105.79999999999998 C 138.3 131.49999999999997 127.9 142.39999999999998 118.4 147.7 C 114.3 149.9 107.2 150.7 102.3 150.7 L 102.3 150.7 z" stroke-linecap="round" />
</g>
</g>
</g>
</svg>