<?xml version="1.0" encoding="UTF-8" standalone="no" ?>
<!DOCTYPE svg PUBLIC "-//W3C//DTD SVG 1.1//EN" "http://www.w3.org/Graphics/SVG/1.1/DTD/svg11.dtd">
<svg xmlns="http://www.w3.org/2000/svg" xmlns:xlink="http://www.w3.org/1999/xlink" version="1.1" width="1080" height="1080" viewBox="0 0 1080 1080" xml:space="preserve">
<desc>Created with Fabric.js 5.2.4</desc>
<defs>
</defs>
<rect x="0" y="0" width="100%" height="100%" fill="transparent"></rect>
<g transform="matrix(1 0 0 1 540 540)" id="e2edc9b0-2ce0-4d1c-affa-7a87703252ae"  >
</g>
<g transform="matrix(1 0 0 1 540 540)" id="c13ede39-bfcc-456a-957e-a17291cc78a6"  >
<rect style="stroke: none; stroke-width: 1; stroke-dasharray: none; stroke-linecap: butt; stroke-dashoffset: 0; stroke-linejoin: miter; stroke-miterlimit: 4; fill: rgb(255,255,255); fill-rule: nonzero; opacity: 1; visibility: hidden;" vector-effect="non-scaling-stroke"  x="-540" y="-540" rx="0" ry="0" width="1080" height="1080" />
</g>
<g transform="matrix(2.11 0 0 2.11 540 540)"  >
<g style=""   >
		<g transform="matrix(1 0 0 1 0 -7.45)" id="Layer_1"  >
<path style="stroke: none; stroke-width: 1; stroke-dasharray: none; stroke-linecap: butt; stroke-dashoffset: 0; stroke-linejoin: miter; stroke-miterlimit: 4; fill: rgb(73,0,5); fill-rule: nonzero; opacity: 1;" vector-effect="non-scaling-stroke"  transform=" translate(-256, -248.55)" d="M 495.9 248.6 C 495.9 248.6 440.09999999999997 236.79999999999998 416.5 195.89999999999998 C 416.5 195.89999999999998 405.3 215.09999999999997 393.6 216.39999999999998 C 393.6 216.39999999999998 396.70000000000005 194.09999999999997 411 184.2 L 393.6 167.5 L 353.3 167.5 C 353.3 167.5 363.8 136.5 378.1 134 C 378.1 134 353.90000000000003 122.8 337.8 136.5 C 337.8 136.5 285.7 143.9 329.7 103 C 329.7 103 266.5 78.2 255.89999999999998 50.9 C 245.39999999999998 78.2 182.09999999999997 103 182.09999999999997 103 C 226.09999999999997 143.9 173.99999999999997 136.5 173.99999999999997 136.5 C 157.89999999999998 122.9 133.7 134 133.7 134 C 148 136.5 158.5 167.5 158.5 167.5 L 118.2 167.5 L 101 184.1 C 115.3 194.6 118.4 216.3 118.4 216.3 C 106.60000000000001 214.4 95.5 195.8 95.5 195.8 C 72.6 236.70000000000002 16.099999999999994 248.5 16.099999999999994 248.5 L 16.099999999999994 248.5 C 16.099999999999994 248.5 71.89999999999999 260.3 95.5 301.2 C 95.5 301.2 106.7 282 118.4 280.7 C 118.4 280.7 115.30000000000001 303 101 312.9 L 118.4 329.59999999999997 L 158.7 329.59999999999997 C 158.7 329.59999999999997 148.2 360.59999999999997 133.89999999999998 363.09999999999997 C 133.89999999999998 363.09999999999997 158.09999999999997 374.29999999999995 174.2 360.59999999999997 C 174.2 360.59999999999997 226.29999999999998 353.2 182.29999999999998 394.09999999999997 C 182.29999999999998 394.09999999999997 245.5 418.9 256.09999999999997 446.2 C 266.59999999999997 418.9 329.9 394.09999999999997 329.9 394.09999999999997 C 285.9 353.2 338 360.59999999999997 338 360.59999999999997 C 354.1 374.2 378.3 363.09999999999997 378.3 363.09999999999997 C 364 360.59999999999997 353.5 329.59999999999997 353.5 329.59999999999997 L 393.8 329.59999999999997 L 411 313 C 396.7 302.5 393.6 280.8 393.6 280.8 C 405.40000000000003 282.7 416.5 301.3 416.5 301.3 C 439.5 261 495.9 249.2 495.9 248.6 L 495.9 248.6 z" stroke-linecap="round" />
</g>
		<g transform="matrix(1 0 0 1 1.2 -1.3)" id="Layer_1"  >
<path style="stroke: none; stroke-width: 1; stroke-dasharray: none; stroke-linecap: butt; stroke-dashoffset: 0; stroke-linejoin: miter; stroke-miterlimit: 4; fill: rgb(216,0,0); fill-rule: nonzero; opacity: 1;" vector-effect="non-scaling-stroke"  transform=" translate(-257.2, -254.7)" d="M 257.2 10.5 C 263.4 51.4 267.09999999999997 91.7 269.59999999999997 132.6 C 272.09999999999997 173.5 272.7 213.8 272.7 254.7 C 272.7 295.59999999999997 271.5 335.9 269.59999999999997 376.79999999999995 C 267.09999999999997 417.69999999999993 263.99999999999994 457.99999999999994 257.2 498.9 C 251 458 247.29999999999998 417.7 244.79999999999998 376.79999999999995 C 242.29999999999998 335.8999999999999 241.7 295.59999999999997 241.7 254.69999999999996 C 241.7 213.79999999999995 242.89999999999998 173.49999999999994 244.79999999999998 132.59999999999997 C 247.9 91.7 251 50.8 257.2 10.5 z" stroke-linecap="round" />
</g>
		<g transform="matrix(1 0 0 1 1.2 0)" id="Layer_1"  >
<path style="stroke: none; stroke-width: 1; stroke-dasharray: none; stroke-linecap: butt; stroke-dashoffset: 0; stroke-linejoin: miter; stroke-miterlimit: 4; fill: rgb(242,63,0); fill-rule: nonzero; opacity: 1;" vector-effect="non-scaling-stroke"  transform=" translate(-257.2, -256)" d="M 257.2 8 C 263.4 49.5 267.09999999999997 90.5 269.59999999999997 132 C 272.09999999999997 173.5 272.7 214.5 272.7 256 C 272.7 297.5 271.5 338.5 269.59999999999997 380 C 267.09999999999997 421.5 263.99999999999994 462.5 257.2 504 C 251 462.5 247.29999999999998 421.5 244.79999999999998 380 C 242.29999999999998 338.5 241.7 297.5 241.7 256 C 241.7 214.5 242.89999999999998 173.5 244.79999999999998 132 C 247.9 90.5 251 49.5 257.2 8 z" stroke-linecap="round" />
</g>
		<g transform="matrix(1 0 0 1 -83.7 -1.8)" id="Layer_1"  >
<path style="stroke: none; stroke-width: 1; stroke-dasharray: none; stroke-linecap: butt; stroke-dashoffset: 0; stroke-linejoin: miter; stroke-miterlimit: 4; fill: rgb(242,63,0); fill-rule: nonzero; opacity: 1;" vector-effect="non-scaling-stroke"  transform=" translate(-172.3, -254.2)" d="M 172.3 58.2 C 178.5 91.1 182.20000000000002 123.9 184.70000000000002 156.2 C 187.20000000000002 189.1 187.8 221.89999999999998 187.8 254.2 C 187.8 287.09999999999997 186.60000000000002 319.9 184.70000000000002 352.2 C 182.20000000000002 385.09999999999997 179.10000000000002 417.9 172.3 450.2 C 166.10000000000002 417.3 162.4 384.5 159.9 352.2 C 158 320 156.8 287.1 156.8 254.89999999999998 C 156.8 221.99999999999997 158 189.2 159.9 156.89999999999998 C 162.4 123.3 166.1 91.1 172.3 58.2 z" stroke-linecap="round" />
</g>
		<g transform="matrix(1 0 0 1 81.8 -1.8)" id="Layer_1"  >
<path style="stroke: none; stroke-width: 1; stroke-dasharray: none; stroke-linecap: butt; stroke-dashoffset: 0; stroke-linejoin: miter; stroke-miterlimit: 4; fill: rgb(242,63,0); fill-rule: nonzero; opacity: 1;" vector-effect="non-scaling-stroke"  transform=" translate(-337.8, -254.2)" d="M 337.8 58.2 C 344 91.1 347.7 123.9 350.2 156.2 C 352.7 189.1 353.3 221.89999999999998 353.3 254.2 C 353.3 287.09999999999997 352.1 319.9 350.2 352.2 C 347.7 385.09999999999997 344.59999999999997 417.9 337.8 450.2 C 331.6 417.3 327.90000000000003 384.5 325.40000000000003 352.2 C 322.90000000000003 319.3 322.3 286.5 322.3 254.2 C 322.3 221.29999999999998 323.5 188.5 325.40000000000003 156.2 C 327.9 123.3 331.6 91.1 337.8 58.2 z" stroke-linecap="round" />
</g>
		<g transform="matrix(1 0 0 1 -8.4 -1.09)" id="Layer_1"  >
<path style="stroke: none; stroke-width: 1; stroke-dasharray: none; stroke-linecap: butt; stroke-dashoffset: 0; stroke-linejoin: miter; stroke-miterlimit: 4; fill: rgb(232,220,193); fill-rule: nonzero; opacity: 1;" vector-effect="non-scaling-stroke"  transform=" translate(-247.6, -254.91)" d="M 398 198.3 C 385.6 189.60000000000002 372 180.9 355.8 176.60000000000002 C 371.3 198.3 389.3 222.50000000000003 386.8 262.8 C 384.90000000000003 293.8 370.1 315.5 353.90000000000003 332.9 C 336.50000000000006 350.9 314.20000000000005 364.5 290.00000000000006 370.7 C 275.70000000000005 375.7 261.50000000000006 378.09999999999997 246.60000000000005 378.8 C 197.60000000000005 378.8 146.80000000000007 375.7 99.70000000000005 381.3 C 99.10000000000005 377 98.50000000000004 372.6 97.20000000000005 368.3 C 116.40000000000005 363.3 142.50000000000006 357.1 144.90000000000003 334.8 C 146.10000000000002 322.40000000000003 146.10000000000002 180.4 143.70000000000005 169.9 C 140.60000000000005 155.6 112.70000000000005 151.3 97.80000000000004 148.20000000000002 C 97.80000000000004 143.20000000000002 99.00000000000004 140.10000000000002 99.00000000000004 135.20000000000002 C 131.20000000000005 130.9 163.50000000000006 130.9 198.20000000000005 129.00000000000003 C 287.6 125.2 364.5 143.2 398 198.3 z M 210.7 163 C 206.39999999999998 163.6 207.6 177.9 207.6 182.2 C 208.2 218.2 207 260.29999999999995 207 296.29999999999995 C 207 307.49999999999994 203.9 331.59999999999997 210.7 337.19999999999993 C 217.49999999999997 342.7999999999999 243.6 340.8999999999999 254.1 339.69999999999993 C 308.7 335.99999999999994 332.8 275.79999999999995 314.2 223.09999999999994 C 302.4 188.99999999999994 275.8 165.39999999999992 231.7 162.29999999999995 C 226.2 161.8 212 163 210.7 163 z" stroke-linecap="round" />
</g>
</g>
</g>
</svg>