<?xml version="1.0" encoding="UTF-8" standalone="no" ?>
<!DOCTYPE svg PUBLIC "-//W3C//DTD SVG 1.1//EN" "http://www.w3.org/Graphics/SVG/1.1/DTD/svg11.dtd">
<svg xmlns="http://www.w3.org/2000/svg" xmlns:xlink="http://www.w3.org/1999/xlink" version="1.1" width="1080" height="1080" viewBox="0 0 1080 1080" xml:space="preserve">
<desc>Created with Fabric.js 5.2.4</desc>
<defs>
</defs>
<rect x="0" y="0" width="100%" height="100%" fill="transparent"></rect>
<g transform="matrix(1 0 0 1 540 540)" id="e2edc9b0-2ce0-4d1c-affa-7a87703252ae"  >
</g>
<g transform="matrix(1 0 0 1 540 540)" id="c13ede39-bfcc-456a-957e-a17291cc78a6"  >
<rect style="stroke: none; stroke-width: 1; stroke-dasharray: none; stroke-linecap: butt; stroke-dashoffset: 0; stroke-linejoin: miter; stroke-miterlimit: 4; fill: rgb(255,255,255); fill-rule: nonzero; opacity: 1; visibility: hidden;" vector-effect="non-scaling-stroke"  x="-540" y="-540" rx="0" ry="0" width="1080" height="1080" />
</g>
<g transform="matrix(2.11 0 0 2.11 540 540)"  >
<g style=""   >
		<g transform="matrix(1 0 0 1 0 0.7)" id="Layer_1"  >
<polygon style="stroke: none; stroke-width: 1; stroke-dasharray: none; stroke-linecap: butt; stroke-dashoffset: 0; stroke-linejoin: miter; stroke-miterlimit: 4; fill: rgb(65,138,242); fill-rule: nonzero; opacity: 1;" vector-effect="non-scaling-stroke"  points="166.6,96.1 0,192.9 -166.6,96.1 -166.6,-96.1 0,-192.9 166.6,-96.1 " />
</g>
		<g transform="matrix(1 0 0 1 0 0)" id="Layer_1"  >
<polygon style="stroke: none; stroke-width: 1; stroke-dasharray: none; stroke-linecap: butt; stroke-dashoffset: 0; stroke-linejoin: miter; stroke-miterlimit: 4; fill: rgb(255,255,255); fill-rule: nonzero; opacity: 1;" vector-effect="non-scaling-stroke"  points="0,-210 -186.5,-105.4 -186.5,104.6 0,210 186.5,104.6 186.5,-105.4 " />
</g>
		<g transform="matrix(1 0 0 1 -91.01 -26.75)" id="Layer_1"  >
<path style="stroke: none; stroke-width: 1; stroke-dasharray: none; stroke-linecap: butt; stroke-dashoffset: 0; stroke-linejoin: miter; stroke-miterlimit: 4; fill: rgb(54,174,234); fill-rule: nonzero; opacity: 1;" vector-effect="non-scaling-stroke"  transform=" translate(-164.99, -229.25)" d="M 104.4 239.6 C 116.5 139.89999999999998 203.3 112.89999999999999 203.3 112.89999999999999 C 87.30000000000001 236.8 226.10000000000002 325 226.10000000000002 325 L 132.10000000000002 345.6 C 132.8 345.7 99.4 305.8 104.4 239.6 z" stroke-linecap="round" />
</g>
		<g transform="matrix(1 0 0 1 20.3 71.81)" id="Layer_1"  >
<path style="stroke: none; stroke-width: 1; stroke-dasharray: none; stroke-linecap: butt; stroke-dashoffset: 0; stroke-linejoin: miter; stroke-miterlimit: 4; fill: rgb(54,174,234); fill-rule: nonzero; opacity: 1;" vector-effect="non-scaling-stroke"  transform=" translate(-276.3, -327.81)" d="M 315.8 397.7 C 216.10000000000002 434 157.8 370.59999999999997 157.8 370.59999999999997 C 320.8 411.9 332.20000000000005 246.69999999999996 332.20000000000005 246.69999999999996 L 394.80000000000007 318.59999999999997 C 394.8 318.6 377 369.9 315.8 397.7 z" stroke-linecap="round" />
</g>
		<g transform="matrix(1 0 0 1 55.15 -61.8)" id="Layer_1"  >
<path style="stroke: none; stroke-width: 1; stroke-dasharray: none; stroke-linecap: butt; stroke-dashoffset: 0; stroke-linejoin: miter; stroke-miterlimit: 4; fill: rgb(54,174,234); fill-rule: nonzero; opacity: 1;" vector-effect="non-scaling-stroke"  transform=" translate(-311.15, -194.2)" d="M 404.8 284.5 C 355 121.5 214.70000000000002 199.1 214.70000000000002 199.1 L 244.60000000000002 104.39999999999999 C 244.60000000000002 104.39999999999999 304.40000000000003 96.6 358.5 142.79999999999998 C 424.7 200.5 404.8 284.5 404.8 284.5 z" stroke-linecap="round" />
</g>
</g>
</g>
</svg>