<?xml version="1.0" encoding="UTF-8" standalone="no" ?>
<!DOCTYPE svg PUBLIC "-//W3C//DTD SVG 1.1//EN" "http://www.w3.org/Graphics/SVG/1.1/DTD/svg11.dtd">
<svg xmlns="http://www.w3.org/2000/svg" xmlns:xlink="http://www.w3.org/1999/xlink" version="1.1" width="1080" height="1080" viewBox="0 0 1080 1080" xml:space="preserve">
<desc>Created with Fabric.js 5.2.4</desc>
<defs>
</defs>
<rect x="0" y="0" width="100%" height="100%" fill="transparent"></rect>
<g transform="matrix(1 0 0 1 540 540)" id="e2edc9b0-2ce0-4d1c-affa-7a87703252ae"  >
</g>
<g transform="matrix(1 0 0 1 540 540)" id="c13ede39-bfcc-456a-957e-a17291cc78a6"  >
<rect style="stroke: none; stroke-width: 1; stroke-dasharray: none; stroke-linecap: butt; stroke-dashoffset: 0; stroke-linejoin: miter; stroke-miterlimit: 4; fill: rgb(255,255,255); fill-rule: nonzero; opacity: 1; visibility: hidden;" vector-effect="non-scaling-stroke"  x="-540" y="-540" rx="0" ry="0" width="1080" height="1080" />
</g>
<g transform="matrix(13.5 0 0 13.5 540 540)"  >
<g style=""   >
		<g transform="matrix(1 0 0 1 -15.41 -0.45)"  >
<polygon style="stroke: none; stroke-width: 1; stroke-dasharray: none; stroke-linecap: butt; stroke-dashoffset: 0; stroke-linejoin: miter; stroke-miterlimit: 4; fill: rgb(255,255,255); fill-rule: evenodd; opacity: 1;" vector-effect="non-scaling-stroke"  points="10.79,-10.55 -0.09,0.71 -10.91,-10.55 -18.59,-10.55 -18.59,10.55 -11.87,10.55 -11.87,-2.41 -0.09,9.67 11.84,-2.56 11.84,2.39 18.59,-4.54 18.59,-10.55 " />
</g>
		<g transform="matrix(1 0 0 1 15.41 -0.45)"  >
<polygon style="stroke: none; stroke-width: 1; stroke-dasharray: none; stroke-linecap: butt; stroke-dashoffset: 0; stroke-linejoin: miter; stroke-miterlimit: 4; fill: rgb(255,255,255); fill-rule: evenodd; opacity: 1;" vector-effect="non-scaling-stroke"  points="11.88,-10.55 11.88,2.51 -0.03,-9.7 -11.84,2.41 -11.84,-2.35 -18.59,4.58 -18.59,10.55 -11.07,10.55 -0.03,-0.71 10.9,10.55 18.59,10.55 18.59,-10.55 " />
</g>
</g>
</g>
</svg>