<?xml version="1.0" encoding="UTF-8" standalone="no" ?>
<!DOCTYPE svg PUBLIC "-//W3C//DTD SVG 1.1//EN" "http://www.w3.org/Graphics/SVG/1.1/DTD/svg11.dtd">
<svg xmlns="http://www.w3.org/2000/svg" xmlns:xlink="http://www.w3.org/1999/xlink" version="1.1" width="1080" height="1080" viewBox="0 0 1080 1080" xml:space="preserve">
<desc>Created with Fabric.js 5.2.4</desc>
<defs>
</defs>
<rect x="0" y="0" width="100%" height="100%" fill="transparent"></rect>
<g transform="matrix(1 0 0 1 540 540)" id="e2edc9b0-2ce0-4d1c-affa-7a87703252ae"  >
</g>
<g transform="matrix(1 0 0 1 540 540)" id="c13ede39-bfcc-456a-957e-a17291cc78a6"  >
<rect style="stroke: none; stroke-width: 1; stroke-dasharray: none; stroke-linecap: butt; stroke-dashoffset: 0; stroke-linejoin: miter; stroke-miterlimit: 4; fill: rgb(255,255,255); fill-rule: nonzero; opacity: 1; visibility: hidden;" vector-effect="non-scaling-stroke"  x="-540" y="-540" rx="0" ry="0" width="1080" height="1080" />
</g>
<g transform="matrix(2.11 0 0 2.11 540 540)"  >
<g style=""   >
		<g transform="matrix(1 0 0 1 125.7 -0.3)" id="_x32_"  >
<path style="stroke: none; stroke-width: 1; stroke-dasharray: none; stroke-linecap: butt; stroke-dashoffset: 0; stroke-linejoin: miter; stroke-miterlimit: 4; fill: rgb(96,186,70); fill-rule: nonzero; opacity: 1;" vector-effect="non-scaling-stroke"  transform=" translate(-381.7, -255.7)" d="M 372.7 351.2 L 269.9 351.2 L 269.9 322.59999999999997 L 372.7 262.2 L 372.7 301.7 L 346.8 317.5 C 346.8 317.5 343.6 319.3 344.8 322.2 C 346 325.09999999999997 348.7 325.2 348.7 325.2 L 372.7 325.2 M 493.5 230.1 L 493.5 189.5 L 444.8 160.2 L 389.8 160.2 L 389.8 178 L 407.1 178 C 411.90000000000003 178 413.3 179.1 413.3 179.1 L 433.5 190.9 C 438.3 193.6 438.3 196.20000000000002 438.3 196.20000000000002 L 438.3 217.50000000000003 C 438.3 224.50000000000003 434 226.30000000000004 434 226.30000000000004 L 389.7 251.80000000000004 L 389.7 292 L 493.5 230.1 z M 373.1 178 L 373.1 160.2 L 317.90000000000003 160.2 L 269.90000000000003 188.6 L 269.90000000000003 207.6 L 324.50000000000006 207.6 L 324.50000000000006 195.7 C 324.50000000000006 195.7 324.80000000000007 192.2 329.6000000000001 190.1 L 348.50000000000006 179.29999999999998 C 348.50000000000006 179.29999999999998 349.90000000000003 177.99999999999997 353.30000000000007 178.1 L 373.1 178.1 z M 389.7 351.2 L 493 351.2 L 493 325.2 L 389.7 325.2 L 389.7 351.2 z" stroke-linecap="round" />
</g>
		<g transform="matrix(1 0 0 1 -56.6 37.6)" id="MW"  >
<path style="stroke: none; stroke-width: 1; stroke-dasharray: none; stroke-linecap: butt; stroke-dashoffset: 0; stroke-linejoin: miter; stroke-miterlimit: 4; fill: rgb(255,255,255); fill-rule: nonzero; opacity: 1;" vector-effect="non-scaling-stroke"  transform=" translate(-199.4, -293.6)" d="M 185.5 235.4 L 185.5 351.1 L 156 351.1 L 156 277.5 L 103.9 336.2 L 103.9 336.4 C 103.9 336.4 101.30000000000001 339.5 99.80000000000001 339.5 C 98.30000000000001 339.5 95.70000000000002 336.4 95.70000000000002 336.4 L 43.1 272 L 43.1 351.1 L 18.5 351.1 L 18.5 235.4 L 43.1 235.4 L 102 304.8 L 159.8 235.4 L 185.5 235.4 z M 352.7 235.4 L 325.09999999999997 309.2 L 297.49999999999994 235.39999999999998 L 269.69999999999993 235.39999999999998 L 242.09999999999994 309.2 L 214.49999999999994 235.39999999999998 L 187 235.39999999999998 L 228.4 346.09999999999997 L 230.5 351.79999999999995 L 253.8 351.79999999999995 L 253.8 351.79999999999995 L 256 346.09999999999997 L 283.7 272 L 311.4 346.1 L 313.5 351.8 L 336.8 351.8 L 336.8 351.8 L 339 346.1 L 380.3 235.40000000000003 L 352.7 235.40000000000003 z" stroke-linecap="round" />
</g>
</g>
</g>
</svg>