<?xml version="1.0" encoding="UTF-8" standalone="no" ?>
<!DOCTYPE svg PUBLIC "-//W3C//DTD SVG 1.1//EN" "http://www.w3.org/Graphics/SVG/1.1/DTD/svg11.dtd">
<svg xmlns="http://www.w3.org/2000/svg" xmlns:xlink="http://www.w3.org/1999/xlink" version="1.1" width="1080" height="1080" viewBox="0 0 1080 1080" xml:space="preserve">
<desc>Created with Fabric.js 5.2.4</desc>
<defs>
</defs>
<rect x="0" y="0" width="100%" height="100%" fill="transparent"></rect>
<g transform="matrix(1 0 0 1 540 540)" id="e2edc9b0-2ce0-4d1c-affa-7a87703252ae"  >
</g>
<g transform="matrix(1 0 0 1 540 540)" id="c13ede39-bfcc-456a-957e-a17291cc78a6"  >
<rect style="stroke: none; stroke-width: 1; stroke-dasharray: none; stroke-linecap: butt; stroke-dashoffset: 0; stroke-linejoin: miter; stroke-miterlimit: 4; fill: rgb(255,255,255); fill-rule: nonzero; opacity: 1; visibility: hidden;" vector-effect="non-scaling-stroke"  x="-540" y="-540" rx="0" ry="0" width="1080" height="1080" />
</g>
<g transform="matrix(22.5 0 0 22.5 540 540)"  >
<g style=""   >
		<g transform="matrix(1 0 0 1 0.12 5.14)"  >
<path style="stroke: none; stroke-width: 1; stroke-dasharray: none; stroke-linecap: butt; stroke-dashoffset: 0; stroke-linejoin: miter; stroke-miterlimit: 4; fill: rgb(251,10,51); fill-rule: nonzero; opacity: 1;" vector-effect="non-scaling-stroke"  transform=" translate(-24.12, -29.14)" d="M 30.7989 23.6568 C 30.3177 23.2156 29.5997 23.0007 28.6032 23.0007 L 18.9644 23.0007 L 18.9644 35.2879 L 21.9257 35.2879 L 21.9257 30.9127 L 28.6025 30.9127 C 29.5997 30.9127 30.3177 30.6985 30.7982 30.2572 C 31.2844 29.8111 31.5303 29.1237 31.5303 28.2151 L 31.5303 25.709 C 31.5311 24.7939 31.2851 24.1023 30.7989 23.6568 Z M 28.5484 27.727 C 28.5484 28.1455 28.4518 28.2569 28.4411 28.2668 C 28.4041 28.303 28.2378 28.3725 27.866 28.3725 L 21.9264 28.3725 L 21.9264 25.5189 L 27.866 25.5189 C 28.2378 25.5189 28.4041 25.5891 28.4404 25.6231 C 28.4518 25.6345 28.5484 25.7459 28.5484 26.1651 L 28.5484 27.727 Z M 45.2322 30.4154 C 45.181 29.4585 44.95 28.7875 44.5299 28.3697 C 44.0508 27.893 43.2525 27.6625 42.0889 27.6625 L 35.5088 27.6625 L 35.5088 25.5926 L 42.4301 25.5926 L 42.4301 26.8389 L 45.1142 26.0799 L 45.1142 25.4444 C 45.1142 24.9209 44.8739 24.169 44.3785 23.6959 C 43.8894 23.2277 43.0883 23 41.929 23 L 35.9147 23 C 34.7262 23 33.9194 23.2341 33.4467 23.7186 C 32.9783 24.1988 32.7508 25.0046 32.7508 26.1856 L 32.7508 27.1631 C 32.7508 28.3442 32.9783 29.1514 33.4467 29.6309 C 33.9201 30.114 34.7276 30.3495 35.9147 30.3495 L 42.4728 30.3495 L 42.4728 32.6619 L 35.1356 32.6619 L 35.1356 31.4496 L 32.3122 32.1001 C 32.3122 33.2833 32.5454 34.0912 33.0238 34.5722 C 33.5377 35.0893 34.3033 35.2389 35.0063 35.2758 C 35.3723 35.295 35.7384 35.2865 36.1045 35.2865 L 42.0896 35.2865 C 43.2689 35.2865 44.0728 35.0538 44.5455 34.575 C 45.0154 34.0983 45.2436 33.2883 45.2436 32.1001 L 45.2436 31.1482 C 45.24 30.8637 45.2428 30.4126 45.2322 30.4154 Z M 13.995 23.0007 L 6.1852 23.0007 C 4.99031 23.0007 4.17784 23.2376 3.70158 23.7242 C 3.2296 24.208 3 25.0138 3 26.1864 L 3 32.1015 C 3 33.2755 3.2296 34.0813 3.70158 34.5636 C 4.17784 35.051 4.99031 35.2879 6.1852 35.2879 L 13.995 35.2879 C 15.1729 35.2879 15.9761 35.0559 16.4545 34.5785 C 16.9279 34.1026 17.1582 33.2918 17.1582 32.1015 L 17.1582 26.1864 C 17.1582 25.0039 16.9279 24.1967 16.4552 23.7171 C 15.9789 23.2341 15.1743 23.0007 13.995 23.0007 Z M 14.2289 32.6626 L 5.95134 32.6626 L 5.95134 25.5926 L 14.2289 25.5926 L 14.2289 32.6626 Z" stroke-linecap="round" />
</g>
		<g transform="matrix(1 0 0 1 0 -7.25)"  >
<path style="stroke: none; stroke-width: 1; stroke-dasharray: none; stroke-linecap: butt; stroke-dashoffset: 0; stroke-linejoin: miter; stroke-miterlimit: 4; fill: rgb(255,255,255); fill-rule: nonzero; opacity: 1;" vector-effect="non-scaling-stroke"  transform=" translate(-24, -16.75)" d="M 9.1253 16.6318 C 9.18359 16.5921 9.23761 16.5474 9.28737 16.4999 C 9.53473 16.2559 9.66055 15.9026 9.66055 15.4472 L 9.66055 14.6513 C 9.66055 14.0931 9.51057 13.6732 9.21415 13.4001 C 8.92058 13.1312 8.48271 13 7.87567 13 L 2 13 L 2 20.4906 L 7.46481 20.4906 C 8.18275 20.4906 8.71373 20.3629 9.08905 20.1019 C 9.36769 19.9068 9.69964 19.528 9.69964 18.8272 L 9.69964 17.9526 C 9.69964 17.4795 9.56956 17.095 9.31438 16.8084 C 9.2568 16.7439 9.19425 16.685 9.1253 16.6318 Z M 3.80549 14.5676 L 7.45202 14.5676 C 7.71502 14.5676 7.78966 14.6145 7.79037 14.6145 C 7.7925 14.6166 7.82947 14.6655 7.82947 14.8386 L 7.82947 15.5245 C 7.82947 15.6813 7.79677 15.7444 7.78468 15.7558 C 7.78397 15.7565 7.71787 15.809 7.45202 15.809 L 3.80549 15.809 L 3.80549 14.5676 Z M 7.88775 18.4186 C 7.88775 18.7421 7.81952 18.8244 7.8117 18.8322 C 7.78753 18.8591 7.68304 18.9031 7.45202 18.9031 L 3.80549 18.9031 L 3.80549 17.3511 L 7.45202 17.3511 C 7.73137 17.3511 7.80103 17.4171 7.80814 17.4256 C 7.81596 17.4341 7.88775 17.5199 7.88775 17.8483 L 7.88775 18.4186 Z M 22.3111 13 L 18.1968 20.4906 L 20.0784 20.4906 L 20.9577 18.8081 L 25.2184 18.8081 L 26.0969 20.4906 L 28.1128 20.4906 L 23.9275 13 L 22.3111 13 Z M 21.7808 17.2851 L 23.0909 14.8038 L 24.4059 17.2851 L 21.7808 17.2851 Z M 39.9566 16.5971 L 45.4349 13 L 42.5681 13 L 38.7034 15.6402 L 38.7034 13 L 36.8979 13 L 36.8979 20.4906 L 38.7034 20.4906 L 38.7034 17.7001 L 42.8752 20.4906 L 46 20.4906 L 39.9566 16.5971 Z M 36.0385 14.9422 C 36.0385 14.2172 35.8992 13.7235 35.6127 13.4341 C 35.3248 13.1419 34.8337 13 34.1101 13 L 30.2538 13 C 29.5309 13 29.0376 13.1426 28.7455 13.4362 C 28.454 13.7285 28.3126 14.2215 28.3126 14.9422 L 28.3126 18.5484 C 28.3126 19.2698 28.454 19.7621 28.7455 20.0551 C 29.0383 20.348 29.5309 20.4906 30.2538 20.4906 L 34.1101 20.4906 C 34.833 20.4906 35.3248 20.3488 35.6127 20.0572 C 35.8992 19.7671 36.0385 19.2734 36.0385 18.5484 L 34.233 18.1725 L 34.233 18.8911 L 30.1117 18.8911 L 30.1117 14.5804 L 34.233 14.5804 L 34.233 15.277 L 36.0385 14.9422 Z M 12.4377 13 L 10.633 13 L 10.633 20.4906 L 17.6488 20.4906 L 17.6488 18.8904 L 12.4377 18.8904 L 12.4377 13 Z" stroke-linecap="round" />
</g>
</g>
</g>
</svg>