<?xml version="1.0" encoding="UTF-8" standalone="no" ?>
<!DOCTYPE svg PUBLIC "-//W3C//DTD SVG 1.1//EN" "http://www.w3.org/Graphics/SVG/1.1/DTD/svg11.dtd">
<svg xmlns="http://www.w3.org/2000/svg" xmlns:xlink="http://www.w3.org/1999/xlink" version="1.1" width="1080" height="1080" viewBox="0 0 1080 1080" xml:space="preserve">
<desc>Created with Fabric.js 5.2.4</desc>
<defs>
</defs>
<rect x="0" y="0" width="100%" height="100%" fill="transparent"></rect>
<g transform="matrix(1 0 0 1 540 540)" id="e2edc9b0-2ce0-4d1c-affa-7a87703252ae"  >
</g>
<g transform="matrix(1 0 0 1 540 540)" id="c13ede39-bfcc-456a-957e-a17291cc78a6"  >
<rect style="stroke: none; stroke-width: 1; stroke-dasharray: none; stroke-linecap: butt; stroke-dashoffset: 0; stroke-linejoin: miter; stroke-miterlimit: 4; fill: rgb(255,255,255); fill-rule: nonzero; opacity: 1; visibility: hidden;" vector-effect="non-scaling-stroke"  x="-540" y="-540" rx="0" ry="0" width="1080" height="1080" />
</g>
<g transform="matrix(2.11 0 0 2.11 540 540)" id="Layer_1"  >
<path style="stroke: none; stroke-width: 1; stroke-dasharray: none; stroke-linecap: butt; stroke-dashoffset: 0; stroke-linejoin: miter; stroke-miterlimit: 4; fill: rgb(204,225,255); fill-rule: nonzero; opacity: 1;"  transform=" translate(-255.99, -255.93)" d="M 58 180.7 L 187.3 180.7 L 204.4 196.39999999999998 C 205.1 197.09999999999997 205.1 197.09999999999997 205.8 197.09999999999997 L 205.8 197.09999999999997 C 206.5 197.09999999999997 207.20000000000002 197.09999999999997 207.20000000000002 196.39999999999998 L 252.90000000000003 146.39999999999998 C 253.60000000000002 145.7 253.60000000000002 144.99999999999997 253.60000000000002 143.49999999999997 C 252.90000000000003 142.79999999999998 252.20000000000002 142.09999999999997 251.50000000000003 142.09999999999997 L 83.7 142.09999999999997 C 76.60000000000001 141.39999999999998 70.10000000000001 143.49999999999997 64.4 147.09999999999997 C 59.400000000000006 151.39999999999998 55.10000000000001 158.49999999999997 55.10000000000001 171.39999999999998 L 55.10000000000001 177.09999999999997 C 55.2 179.3 56.6 180.7 58 180.7 L 58 180.7 L 58 180.7 L 58 180.7 z M 487.3 144.3 L 303 144.3 L 301.6 145 L 268 176.4 C 267.3 177.1 267.3 179.3 268 180 C 268.7 180.7 269.4 180.7 269.4 180.7 L 417.2 180.7 L 425.09999999999997 191.39999999999998 C 425.79999999999995 192.09999999999997 427.2 192.79999999999998 428.7 192.09999999999997 L 488.7 149.19999999999996 C 489.4 148.49999999999997 490.09999999999997 147.09999999999997 488.7 145.59999999999997 C 488.7 145 488 144.3 487.3 144.3 L 487.3 144.3 L 487.3 144.3 z M 425.8 340.7 C 420.8 341.4 415.8 342.09999999999997 410.8 342.09999999999997 C 367.2 340.7 331.5 307.09999999999997 327.9 263.5 C 327.2 257.8 327.2 252.8 327.2 247.1 C 327.2 232.79999999999998 327.9 217.79999999999998 330.8 203.5 C 330.8 202.8 330.8 202.1 330.1 201.4 C 329.40000000000003 200.70000000000002 328.70000000000005 200.70000000000002 328 200.70000000000002 L 262.3 200.70000000000002 C 261.6 200.70000000000002 260.2 201.4 260.2 202.10000000000002 C 254.5 218.50000000000003 251.6 236.40000000000003 251.6 254.20000000000002 C 251.6 268.5 253.7 275.6 258.7 292.8 C 271.59999999999997 332.1 318.7 369.9 356.6 369.9 C 413.70000000000005 369.9 428 349.9 428.70000000000005 343.5 C 428.7 342.1 428 340.7 425.8 340.7 L 425.8 340.7 L 425.8 340.7 L 425.8 340.7 z M 148.7 202.9 L 146.6 202.20000000000002 L 72.3 202.20000000000002 C 70.89999999999999 202.20000000000002 70.2 203.60000000000002 70.2 204.3 C 70.2 205 70.2 205.70000000000002 70.9 205.70000000000002 C 70.9 205.70000000000002 171.60000000000002 322.1 173.8 325 C 173.8 325 173.8 325.7 174.5 325.7 L 173.8 326.4 L 114.50000000000001 326.4 C 105.90000000000002 326.4 97.4 323.5 90.20000000000002 318.5 C 87.30000000000001 316.4 85.20000000000002 313.5 83.10000000000002 310.6 C 81.70000000000002 310.6 81.70000000000002 310.6 81.00000000000003 310.6 C 80.30000000000004 310.6 79.60000000000002 310.6 78.90000000000003 311.3 L 23 362.8 C 22.3 363.5 22.3 365.7 23 366.40000000000003 C 23.7 367.1 23.7 367.1 24.4 367.1 L 232.20000000000002 367.1 C 244.3 367.1 252.20000000000002 354.20000000000005 252.9 342.1 C 252.9 337.1 251.5 332.1 248.6 328.5 C 240.1 317.9 148.7 202.9 148.7 202.9 z" stroke-linecap="round" />
</g>
</svg>