<?xml version="1.0" encoding="UTF-8" standalone="no" ?>
<!DOCTYPE svg PUBLIC "-//W3C//DTD SVG 1.1//EN" "http://www.w3.org/Graphics/SVG/1.1/DTD/svg11.dtd">
<svg xmlns="http://www.w3.org/2000/svg" xmlns:xlink="http://www.w3.org/1999/xlink" version="1.1" width="1080" height="1080" viewBox="0 0 1080 1080" xml:space="preserve">
<desc>Created with Fabric.js 5.2.4</desc>
<defs>
</defs>
<rect x="0" y="0" width="100%" height="100%" fill="transparent"></rect>
<g transform="matrix(1 0 0 1 540 540)" id="e2edc9b0-2ce0-4d1c-affa-7a87703252ae"  >
</g>
<g transform="matrix(1 0 0 1 540 540)" id="c13ede39-bfcc-456a-957e-a17291cc78a6"  >
<rect style="stroke: none; stroke-width: 1; stroke-dasharray: none; stroke-linecap: butt; stroke-dashoffset: 0; stroke-linejoin: miter; stroke-miterlimit: 4; fill: rgb(255,255,255); fill-rule: nonzero; opacity: 1; visibility: hidden;" vector-effect="non-scaling-stroke"  x="-540" y="-540" rx="0" ry="0" width="1080" height="1080" />
</g>
<g transform="matrix(2.11 0 0 2.11 540 540)"  >
<g style=""   >
		<g transform="matrix(1 0 0 1 -98.45 -0.4)" id="Layer_1"  >
<path style="stroke: none; stroke-width: 1; stroke-dasharray: none; stroke-linecap: butt; stroke-dashoffset: 0; stroke-linejoin: miter; stroke-miterlimit: 4; fill: rgb(51,144,255); fill-rule: nonzero; opacity: 1;" vector-effect="non-scaling-stroke"  transform=" translate(-157.55, -255.6)" d="M 237.6 73.5 L 159.6 42.7 L 158.2 42.7 L 77.39999999999999 57.7 C 75.99999999999999 57.7 75.3 59.1 75.3 60.6 C 75.3 61.300000000000004 76 62.7 76.7 62.7 C 86 67 95.30000000000001 71.3 104.6 76.3 C 119.6 84.2 146.8 101.3 152.5 111.4 L 152.5 111.4 C 154.6 115 155.4 119.30000000000001 155.4 123.60000000000001 L 156.1 382.6 C 156.1 382.6 156.79999999999998 415.5 233.39999999999998 467.70000000000005 C 234.79999999999998 468.40000000000003 239.09999999999997 469.1 239.79999999999998 467.70000000000005 C 239.79999999999998 467.70000000000005 239.79999999999998 467.70000000000005 239.79999999999998 467.00000000000006 L 239.79999999999998 75.7 C 239 75 239 73.5 237.6 73.5 z" stroke-linecap="round" />
</g>
		<g transform="matrix(1 0 0 1 97.45 -0.05)" id="Layer_1"  >
<path style="stroke: none; stroke-width: 1; stroke-dasharray: none; stroke-linecap: butt; stroke-dashoffset: 0; stroke-linejoin: miter; stroke-miterlimit: 4; fill: rgb(51,144,255); fill-rule: nonzero; opacity: 1;" vector-effect="non-scaling-stroke"  transform=" translate(-353.45, -255.95)" d="M 273.4 73.5 L 351.4 42.7 L 352.79999999999995 42.7 L 433.59999999999997 57.7 C 434.99999999999994 57.7 435.7 59.1 435.7 60.6 C 435.7 61.300000000000004 435 62.7 434.3 62.7 C 425 67 415.7 71.3 406.40000000000003 76.3 C 391.40000000000003 84.2 364.20000000000005 101.3 358.50000000000006 111.4 L 358.50000000000006 111.4 C 356.40000000000003 115.7 355.6000000000001 120 355.6000000000001 124.30000000000001 L 354.9000000000001 383.3 C 354.9000000000001 383.3 354.2000000000001 416.2 277.6000000000001 468.4 C 276.2000000000001 469.09999999999997 271.9000000000001 469.79999999999995 271.2000000000001 468.4 C 271.2000000000001 468.4 271.2000000000001 468.4 271.2000000000001 467.7 L 271.2000000000001 75.69999999999999 C 272 75 272 73.5 273.4 73.5 z" stroke-linecap="round" />
</g>
		<g transform="matrix(1 0 0 1 0.04 -0.02)" id="Layer_1"  >
<path style="stroke: none; stroke-width: 1; stroke-dasharray: none; stroke-linecap: butt; stroke-dashoffset: 0; stroke-linejoin: miter; stroke-miterlimit: 4; fill: rgb(204,225,255); fill-rule: nonzero; opacity: 1;" vector-effect="non-scaling-stroke"  transform=" translate(-256.04, -255.98)" d="M 57.3 181 L 186.8 181 L 204 196.7 C 204.7 197.39999999999998 204.7 197.39999999999998 205.4 197.39999999999998 L 205.4 197.39999999999998 C 206.1 197.39999999999998 206.8 197.39999999999998 206.8 196.7 L 252.60000000000002 146.6 C 253.3 145.9 253.3 145.2 253.3 143.7 C 252.60000000000002 143 251.9 142.29999999999998 251.20000000000002 142.29999999999998 L 83.1 142.29999999999998 C 75.89999999999999 141.6 69.5 143.7 63.8 147.29999999999998 C 58.8 151.6 54.5 158.7 54.5 171.6 L 54.5 178 C 54.5 178.8 55.9 180.2 57.3 181 C 57.3 180.2 57.3 180.2 57.3 181 L 57.3 181 L 57.3 181 z M 487.3 144.5 L 302.7 144.5 L 301.3 145.2 L 267.7 176.7 C 267 177.39999999999998 267 179.6 267.7 180.29999999999998 C 268.4 180.99999999999997 269.09999999999997 180.99999999999997 269.09999999999997 180.99999999999997 L 417.19999999999993 180.99999999999997 L 425.0999999999999 191.69999999999996 C 425.7999999999999 192.39999999999995 427.19999999999993 193.09999999999997 428.69999999999993 192.39999999999995 L 488.79999999999995 149.49999999999994 C 489.49999999999994 148.79999999999995 490.19999999999993 147.39999999999995 488.79999999999995 145.89999999999995 C 488.7 144.5 488 144.5 487.3 144.5 L 487.3 144.5 L 487.3 144.5 z M 425.7 341.2 C 420.7 341.9 415.7 342.59999999999997 410.7 342.59999999999997 C 367.09999999999997 341.2 331.29999999999995 307.49999999999994 327.7 263.9 C 327 258.2 327 252.49999999999997 327 246.7 C 327 232.39999999999998 327.7 217.39999999999998 330.6 203.1 C 330.6 202.4 330.6 201.7 329.90000000000003 201 C 329.20000000000005 200.3 328.50000000000006 200.3 327.8 200.3 L 262 200.3 C 261.3 200.3 259.9 201 259.9 201.70000000000002 C 254.2 218.20000000000002 251.29999999999998 236 251.29999999999998 253.90000000000003 C 251.29999999999998 268.20000000000005 253.39999999999998 275.40000000000003 258.5 292.50000000000006 C 271.4 331.80000000000007 318.6 369.80000000000007 356.5 369.80000000000007 C 413.7 369.80000000000007 428 349.80000000000007 428.7 343.30000000000007 C 428.6 341.9 427.9 341.2 425.7 341.2 L 425.7 341.2 L 425.7 341.2 L 425.7 341.2 z M 148.2 202.4 L 146.1 201.70000000000002 L 71.7 201.70000000000002 C 70.3 201.70000000000002 69.60000000000001 203.10000000000002 69.60000000000001 203.8 C 69.60000000000001 204.5 69.60000000000001 205.20000000000002 70.30000000000001 205.20000000000002 C 70.30000000000001 205.20000000000002 171.20000000000002 321.8 173.3 324.70000000000005 C 173.3 324.70000000000005 173.3 325.40000000000003 174 325.40000000000003 L 173.3 326.1 L 113.9 326.1 C 105.30000000000001 326.1 96.7 323.20000000000005 89.60000000000001 318.20000000000005 C 86.7 316.1 84.60000000000001 313.20000000000005 82.4 310.30000000000007 C 81.7 309.6000000000001 81.7 309.6000000000001 81 309.6000000000001 C 80.3 309.6000000000001 79.6 309.6000000000001 78.9 310.30000000000007 L 23 361.9 C 22.3 362.59999999999997 22.3 364.79999999999995 23 365.5 C 23.7 366.2 23.7 366.2 24.4 366.2 L 232.6 366.2 C 244.79999999999998 366.2 252.6 353.3 253.29999999999998 341.2 C 253.29999999999998 336.2 251.89999999999998 331.2 248.99999999999997 327.59999999999997 C 239.8 318.3 148.2 202.4 148.2 202.4 z" stroke-linecap="round" />
</g>
</g>
</g>
</svg>