<?xml version="1.0" encoding="UTF-8" standalone="no" ?>
<!DOCTYPE svg PUBLIC "-//W3C//DTD SVG 1.1//EN" "http://www.w3.org/Graphics/SVG/1.1/DTD/svg11.dtd">
<svg xmlns="http://www.w3.org/2000/svg" xmlns:xlink="http://www.w3.org/1999/xlink" version="1.1" width="1080" height="1080" viewBox="0 0 1080 1080" xml:space="preserve">
<desc>Created with Fabric.js 5.2.4</desc>
<defs>
</defs>
<rect x="0" y="0" width="100%" height="100%" fill="transparent"></rect>
<g transform="matrix(1 0 0 1 540 540)" id="c13ede39-bfcc-456a-957e-a17291cc78a6"  >
<rect style="stroke: none; stroke-width: 1; stroke-dasharray: none; stroke-linecap: butt; stroke-dashoffset: 0; stroke-linejoin: miter; stroke-miterlimit: 4; fill: rgb(255,255,255); fill-rule: nonzero; opacity: 1; visibility: hidden;" vector-effect="non-scaling-stroke"  x="-540" y="-540" rx="0" ry="0" width="1080" height="1080" />
</g>
<g transform="matrix(1 0 0 1 540 540)" id="e2edc9b0-2ce0-4d1c-affa-7a87703252ae"  >
</g>
<g transform="matrix(2.11 0 0 2.11 540 540)"  >
<g style=""   >
		<g transform="matrix(1 0 0 1 0.15 -9.37)" id="Layer_1"  >
<path style="stroke: none; stroke-width: 1; stroke-dasharray: none; stroke-linecap: butt; stroke-dashoffset: 0; stroke-linejoin: miter; stroke-miterlimit: 4; fill: rgb(44,47,50); fill-rule: nonzero; opacity: 1;" vector-effect="non-scaling-stroke"  transform=" translate(-256.15, -246.63)" d="M 473.5 154 C 478 146.9 473.5 134.6 474.1 126.1 C 475.40000000000003 117.69999999999999 489.70000000000005 96.89999999999999 488.40000000000003 88.5 C 481.3 89.1 469.6 90.4 457.3 88.5 C 444.3 87.2 411.90000000000003 93 400.3 98.2 C 388.6 103.4 402.90000000000003 93.7 393.8 89.8 C 384.7 86.6 347.8 101.5 347.8 101.5 L 312.2 98.9 L 256.5 104.7 L 256.5 104.7 L 256.5 104.7 L 256.5 104.7 L 256.5 104.7 L 256.5 104.7 L 256.5 104.7 L 200.1 99.5 L 164.5 102.1 C 164.5 102.1 127.6 86.5 118.5 90.39999999999999 C 109.4 93.6 124.3 103.39999999999999 112 98.8 C 100.3 93.6 67.9 87.8 55 89.1 C 42.099999999999994 90.39999999999999 31 89.69999999999999 23.9 89.1 C 22.599999999999998 96.89999999999999 37.5 118.3 38.2 126.69999999999999 C 39.5 135.1 34.300000000000004 147.39999999999998 38.800000000000004 154.6 C 43.300000000000004 161.7 35.6 165.6 35.6 174 C 35.6 182.4 53.1 194.7 51.2 201.9 C 49.300000000000004 208.4 48.6 223.3 51.2 235.60000000000002 C 53.800000000000004 247.90000000000003 60.300000000000004 270 58.300000000000004 280.3 C 56.400000000000006 290 49.900000000000006 310.1 51.2 314.7 C 52.5 319.2 53.1 323.09999999999997 53.1 329.59999999999997 C 53.1 335.4 59.6 352.29999999999995 58.300000000000004 360.09999999999997 C 57.00000000000001 367.9 60.2 380.79999999999995 58.900000000000006 384.7 C 57.60000000000001 388.59999999999997 49.800000000000004 406.7 57.00000000000001 404.8 C 63.50000000000001 402.90000000000003 105 401.6 118.60000000000001 401.6 C 125.10000000000001 401.6 154.20000000000002 404.8 186.7 404.8 C 204.79999999999998 404.8 202.29999999999998 404.2 218.5 402.2 C 224.3 404.8 250.9 404.8 253.5 404.09999999999997 C 254.1 404.09999999999997 255.4 403.49999999999994 256.7 403.49999999999994 C 258 403.49999999999994 258.59999999999997 404.09999999999997 259.9 404.09999999999997 C 262.5 404.7 288.4 404.7 294.9 402.2 C 311.09999999999997 404.09999999999997 308.5 404.8 326.7 404.8 C 359.09999999999997 405.40000000000003 388.3 401.6 394.79999999999995 401.6 C 409.09999999999997 401.6 449.9 402.20000000000005 456.4 404.8 C 462.9 406.7 455.09999999999997 389.2 454.5 384.7 C 453.2 380.8 457.1 367.8 455.1 360.09999999999997 C 453.8 352.29999999999995 460.3 335.49999999999994 460.3 329.59999999999997 C 460.3 323.79999999999995 460.90000000000003 319.2 462.2 314.7 C 463.5 310.2 456.4 290.09999999999997 455.09999999999997 280.3 C 453.2 270.6 459.59999999999997 248.5 462.2 235.60000000000002 C 464.8 223.3 464.09999999999997 208.40000000000003 462.2 201.90000000000003 C 460.3 195.40000000000003 477.8 182.50000000000003 477.8 174.00000000000003 C 477.4 165 468.9 161.1 473.5 154 z" stroke-linecap="round" />
</g>
		<g transform="matrix(1 0 0 1 -0.7 -7.65)" id="Layer_1"  >
<path style="stroke: none; stroke-width: 1; stroke-dasharray: none; stroke-linecap: butt; stroke-dashoffset: 0; stroke-linejoin: miter; stroke-miterlimit: 4; fill: rgb(241,189,55); fill-rule: nonzero; opacity: 1;" vector-effect="non-scaling-stroke"  transform=" translate(-255.3, -248.35)" d="M 120.2 127.4 L 198 127.4 C 196.1 135.8 195.4 144.9 195.4 154 C 198.6 188.4 221.3 283.6 221.3 283.6 L 258.2 135.20000000000002 L 295.09999999999997 280.4 C 295.09999999999997 280.4 317.79999999999995 152.7 317.79999999999995 144.29999999999998 C 317.19999999999993 137.79999999999998 313.9 131.99999999999997 308.69999999999993 128.1 L 390.3999999999999 128.1 C 379.3999999999999 138.5 371.5999999999999 150.79999999999998 367.0999999999999 165 C 359.9999999999999 192.9 334.69999999999993 334.8 334.69999999999993 343.9 C 335.29999999999995 353 338.5999999999999 362 344.3999999999999 369.2 L 268.5999999999999 369.2 C 270.4999999999999 362.7 271.19999999999993 355.59999999999997 271.19999999999993 348.5 C 271.19999999999993 335.5 258.8999999999999 274 258.8999999999999 274 C 258.8999999999999 274 243.29999999999993 337.5 243.29999999999993 349.2 C 243.29999999999993 356.3 245.19999999999993 362.8 248.49999999999991 369.3 L 169.39999999999992 369.3 C 169.39999999999992 369.3 184.29999999999993 358.90000000000003 183.69999999999993 348.6 C 181.79999999999993 319.40000000000003 141.59999999999994 169.10000000000002 138.29999999999993 157.40000000000003 C 136.4 145.6 129.9 134.5 120.2 127.4 z" stroke-linecap="round" />
</g>
		<g transform="matrix(1 0 0 1 -140 -9)" id="Layer_1"  >
<path style="stroke: none; stroke-width: 1; stroke-dasharray: none; stroke-linecap: butt; stroke-dashoffset: 0; stroke-linejoin: miter; stroke-miterlimit: 4; fill: rgb(217,64,32); fill-rule: nonzero; opacity: 1;" vector-effect="non-scaling-stroke"  transform=" translate(-116, -247)" d="M 149.4 406.8 C 149.4 404.2 149.4 335.5 149.4 292.70000000000005 L 149.4 292.70000000000005 C 149.4 292.70000000000005 149.4 277.1 149.4 253.80000000000004 C 142.3 224.60000000000005 134.5 196.10000000000002 130.6 179.30000000000004 C 128 168.30000000000004 126.1 161.80000000000004 125.39999999999999 159.90000000000003 L 125.39999999999999 159.30000000000004 C 124.1 150.90000000000003 118.89999999999999 143.70000000000005 112.39999999999999 138.60000000000005 C 107.19999999999999 135.40000000000006 105.3 128.90000000000006 107.19999999999999 123.00000000000006 C 109.1 117.20000000000006 114.29999999999998 113.30000000000005 120.79999999999998 113.30000000000005 L 150 113.30000000000005 C 150 98.40000000000005 150 88.70000000000005 150 87.40000000000006 C 150 81.60000000000007 164.3 68.00000000000006 170.1 64.10000000000007 L 170.1 60 L 168.79999999999998 60 L 119.49999999999999 60 L 118.89999999999999 60 L 116.3 60 L 113.7 60 L 113.10000000000001 60 L 63.8 60 L 61.9 60 L 61.9 63.9 C 67.1 67.8 82 81.4 82 87.2 C 82 89.8 82 128.7 82 171.5 L 82 171.5 C 82 171.5 82 400.3 82 406.8 C 82 412.6 67.7 426.2 61.9 430.1 L 61.9 434 L 63.199999999999996 434 L 112.5 434 L 113.1 434 L 115.69999999999999 434 L 118.29999999999998 434 L 118.89999999999998 434 L 168.2 434 L 169.5 434 L 169.5 430.1 C 163.6 426.2 149.4 412.6 149.4 406.8 z" stroke-linecap="round" />
</g>
		<g transform="matrix(1 0 0 1 0.3 148.85)" id="Layer_1"  >
<path style="stroke: none; stroke-width: 1; stroke-dasharray: none; stroke-linecap: butt; stroke-dashoffset: 0; stroke-linejoin: miter; stroke-miterlimit: 4; fill: rgb(217,64,32); fill-rule: nonzero; opacity: 1;" vector-effect="non-scaling-stroke"  transform=" translate(-256.3, -404.85)" d="M 288.7 406.8 C 288.7 405.5 288.7 396.40000000000003 288.7 383.5 L 268.59999999999997 383.5 C 264.7 383.5 261.49999999999994 378.3 258.9 375.7 C 256.29999999999995 378.3 252.39999999999998 383.5 249.2 383.5 L 222.6 383.5 C 222.6 397.1 222.6 405.5 222.6 406.8 C 222.6 412.6 208.29999999999998 426.2 202.5 430.1 L 202.5 434 L 203.8 434 L 253.10000000000002 434 L 253.70000000000002 434 L 256.3 434 L 258.90000000000003 434 L 259.50000000000006 434 L 308.80000000000007 434 L 310.1000000000001 434 L 310.1000000000001 430.1 C 303.6 426.2 288.7 412.6 288.7 406.8 z" stroke-linecap="round" />
</g>
		<g transform="matrix(1 0 0 1 -1.65 -115.3)" id="Layer_1"  >
<path style="stroke: none; stroke-width: 1; stroke-dasharray: none; stroke-linecap: butt; stroke-dashoffset: 0; stroke-linejoin: miter; stroke-miterlimit: 4; fill: rgb(217,64,32); fill-rule: nonzero; opacity: 1;" vector-effect="non-scaling-stroke"  transform=" translate(-254.35, -140.7)" d="M 221.3 87.2 C 221.3 89.8 221.3 128.7 221.3 171.5 L 221.3 171.5 C 221.3 171.5 221.3 192.2 221.3 221.4 L 243.3 131.3 C 244.60000000000002 124.80000000000001 250.4 120.9 256.90000000000003 120.9 L 256.90000000000003 120.9 C 263.40000000000003 120.9 268.6 125.4 270.50000000000006 131.3 L 292.50000000000006 221.4 C 292.50000000000006 168.9 288.00000000000006 90.5 288.00000000000006 87.20000000000002 C 288.00000000000006 81.40000000000002 302.30000000000007 67.80000000000001 308.1000000000001 63.90000000000002 L 308.1000000000001 60 L 306.80000000000007 60 L 257.50000000000006 60 L 257 60 L 254.4 60 L 251.8 60 L 251.20000000000002 60 L 201.90000000000003 60 L 200.60000000000002 60 L 200.60000000000002 63.9 C 207.1 68.4 221.3 82 221.3 87.2 z" stroke-linecap="round" />
</g>
		<g transform="matrix(1 0 0 1 139.2 -9)" id="Layer_1"  >
<path style="stroke: none; stroke-width: 1; stroke-dasharray: none; stroke-linecap: butt; stroke-dashoffset: 0; stroke-linejoin: miter; stroke-miterlimit: 4; fill: rgb(217,64,32); fill-rule: nonzero; opacity: 1;" vector-effect="non-scaling-stroke"  transform=" translate(-395.2, -247)" d="M 428.1 292.7 C 428.1 292.7 428.1 93.69999999999999 428.1 87.19999999999999 C 428.1 81.39999999999999 442.40000000000003 67.79999999999998 448.20000000000005 63.89999999999999 L 448.20000000000005 60 L 446.90000000000003 60 L 397.6 60 L 397 60 L 394.4 60 L 392.5 60 L 391.9 60 L 342.59999999999997 60 L 341.29999999999995 60 L 341.29999999999995 63.9 C 346.49999999999994 67.8 361.4 81.4 361.4 87.2 C 361.4 88.5 361.4 98.2 361.4 113.1 L 390.59999999999997 113.1 C 396.4 113.1 401.59999999999997 116.3 403.59999999999997 122.19999999999999 C 405.49999999999994 127.39999999999999 404.2 133.89999999999998 400.4 137.79999999999998 C 391.29999999999995 146.2 384.79999999999995 156.6 381.59999999999997 168.29999999999998 C 377.7 183.89999999999998 369.29999999999995 228.59999999999997 362.2 269.4 C 362.2 332.29999999999995 362.2 402.9 362.2 406.79999999999995 C 362.2 412.59999999999997 347.9 426.19999999999993 342.09999999999997 430.09999999999997 L 342.09999999999997 433.99999999999994 L 343.4 433.99999999999994 L 392.7 433.99999999999994 L 392.7 433.99999999999994 L 395.3 433.99999999999994 L 397.90000000000003 433.99999999999994 L 398.50000000000006 433.99999999999994 L 447.80000000000007 433.99999999999994 L 449.1000000000001 433.99999999999994 L 449.1000000000001 430.09999999999997 C 443.9000000000001 426.2 429.00000000000006 412.59999999999997 429.00000000000006 406.79999999999995 C 428.1 404.2 428.1 335.5 428.1 292.7 L 428.1 292.7 z" stroke-linecap="round" />
</g>
</g>
</g>
</svg>