<?xml version="1.0" encoding="UTF-8" standalone="no" ?>
<!DOCTYPE svg PUBLIC "-//W3C//DTD SVG 1.1//EN" "http://www.w3.org/Graphics/SVG/1.1/DTD/svg11.dtd">
<svg xmlns="http://www.w3.org/2000/svg" xmlns:xlink="http://www.w3.org/1999/xlink" version="1.1" width="1080" height="1080" viewBox="0 0 1080 1080" xml:space="preserve">
<desc>Created with Fabric.js 5.2.4</desc>
<defs>
</defs>
<rect x="0" y="0" width="100%" height="100%" fill="transparent"></rect>
<g transform="matrix(1 0 0 1 540 540)" id="c13ede39-bfcc-456a-957e-a17291cc78a6"  >
<rect style="stroke: none; stroke-width: 1; stroke-dasharray: none; stroke-linecap: butt; stroke-dashoffset: 0; stroke-linejoin: miter; stroke-miterlimit: 4; fill: rgb(255,255,255); fill-rule: nonzero; opacity: 1; visibility: hidden;" vector-effect="non-scaling-stroke"  x="-540" y="-540" rx="0" ry="0" width="1080" height="1080" />
</g>
<g transform="matrix(1 0 0 1 540 540)" id="e2edc9b0-2ce0-4d1c-affa-7a87703252ae"  >
</g>
<g transform="matrix(4.08 0 0 4.08 540 540)"  >
<g style=""   >
		<g transform="matrix(1 0 0 1 -49.7 0)" id="Artwork"  >
<path style="stroke: none; stroke-width: 1; stroke-dasharray: none; stroke-linecap: butt; stroke-dashoffset: 0; stroke-linejoin: miter; stroke-miterlimit: 4; fill: rgb(255,255,255); fill-rule: nonzero; opacity: 1;" vector-effect="non-scaling-stroke"  transform=" translate(-82.71, -79.9)" d="M 127.38 0 L 113.46 101.31 L 111.14 101.31 L 102.19 0 L 63.23 0 L 54.28 101.31 L 51.96 101.31 L 38.04 0 L 0 0 L 26.83 159.8 L 72.61 159.8 L 81.13 58.38000000000001 L 84.27 58.38000000000001 L 92.78999999999999 159.8 L 138.57 159.8 L 165.42 0 L 127.38 0 Z" stroke-linecap="round" />
</g>
		<g transform="matrix(1 0 0 1 84.13 0)" id="Artwork"  >
<polygon style="stroke: none; stroke-width: 1; stroke-dasharray: none; stroke-linecap: butt; stroke-dashoffset: 0; stroke-linejoin: miter; stroke-miterlimit: 4; fill: rgb(255,255,255); fill-rule: nonzero; opacity: 1;" vector-effect="non-scaling-stroke"  points="47.84,-48.66 47.84,-79.9 -42.59,-79.9 -48.28,-46.02 3.22,-46.02 -47.81,48.46 -47.81,79.88 48.28,79.9 48.28,46.02 -3.25,46.02 47.84,-48.66 " />
</g>
</g>
</g>
</svg>