<?xml version="1.0" encoding="UTF-8" standalone="no" ?>
<!DOCTYPE svg PUBLIC "-//W3C//DTD SVG 1.1//EN" "http://www.w3.org/Graphics/SVG/1.1/DTD/svg11.dtd">
<svg xmlns="http://www.w3.org/2000/svg" xmlns:xlink="http://www.w3.org/1999/xlink" version="1.1" width="1080" height="1080" viewBox="0 0 1080 1080" xml:space="preserve">
<desc>Created with Fabric.js 5.2.4</desc>
<defs>
</defs>
<rect x="0" y="0" width="100%" height="100%" fill="transparent"></rect>
<g transform="matrix(1 0 0 1 540 540)" id="c13ede39-bfcc-456a-957e-a17291cc78a6"  >
<rect style="stroke: none; stroke-width: 1; stroke-dasharray: none; stroke-linecap: butt; stroke-dashoffset: 0; stroke-linejoin: miter; stroke-miterlimit: 4; fill: rgb(255,255,255); fill-rule: nonzero; opacity: 1; visibility: hidden;" vector-effect="non-scaling-stroke"  x="-540" y="-540" rx="0" ry="0" width="1080" height="1080" />
</g>
<g transform="matrix(1 0 0 1 540 540)" id="e2edc9b0-2ce0-4d1c-affa-7a87703252ae"  >
</g>
<g transform="matrix(22.5 0 0 22.5 540 540)"  >
<g style=""   >
		<g transform="matrix(1 0 0 1 0.24 -4.01)" clip-path="url(#CLIPPATH_4)"  >
<clipPath id="CLIPPATH_4" >
	<rect transform="matrix(1 0 0 1 -0.24 4.01)" id="clip0_1641_233" x="-24" y="-24" rx="0" ry="0" width="48" height="48" />
</clipPath>
<path style="stroke: none; stroke-width: 1; stroke-dasharray: none; stroke-linecap: butt; stroke-dashoffset: 0; stroke-linejoin: miter; stroke-miterlimit: 4; fill: rgb(1,1,0); fill-rule: nonzero; opacity: 1;" vector-effect="non-scaling-stroke"  transform=" translate(-24.24, -19.99)" d="M 24.2371 36.8922 C 33.5719 36.8922 41.1393 29.3249 41.1393 19.9901 C 41.1393 10.6553 33.5719 3.08789 24.2371 3.08789 C 14.9023 3.08789 7.33496 10.6553 7.33496 19.9901 C 7.33496 29.3249 14.9023 36.8922 24.2371 36.8922 Z" stroke-linecap="round" />
</g>
		<g transform="matrix(1 0 0 1 0.23 -4.02)" clip-path="url(#CLIPPATH_5)"  >
<clipPath id="CLIPPATH_5" >
	<rect transform="matrix(1 0 0 1 -0.23 4.02)" id="clip0_1641_233" x="-24" y="-24" rx="0" ry="0" width="48" height="48" />
</clipPath>
<path style="stroke: none; stroke-width: 1; stroke-dasharray: none; stroke-linecap: butt; stroke-dashoffset: 0; stroke-linejoin: miter; stroke-miterlimit: 4; fill: rgb(164,59,0); fill-rule: nonzero; opacity: 1;" vector-effect="non-scaling-stroke"  transform=" translate(-24.23, -19.98)" d="M 39.857 11.0145 L 39.857 6.31297 L 35.952 6.31297 C 32.8047 3.63193 28.7249 2 24.2565 2 C 19.7881 2 15.6889 3.63193 12.561 6.31297 L 8.63658 6.31297 L 8.63658 10.9951 C 7.10179 13.6567 6.22754 16.7068 6.22754 19.9901 C 6.22754 23.254 7.10179 26.3236 8.63658 28.9658 L 8.63658 33.6479 L 12.5416 33.6479 C 15.6889 36.3289 19.7687 37.9608 24.2371 37.9608 C 28.7055 37.9608 32.7853 36.3289 35.9326 33.6479 L 39.8376 33.6479 L 39.8376 28.9658 C 41.353 26.3236 42.2467 23.254 42.2272 19.9901 C 42.2467 16.7263 41.3724 13.6567 39.857 11.0145 Z M 24.2565 35.2604 C 15.8054 35.2604 8.94743 28.4218 8.94743 19.9707 C 8.94743 11.539 15.8054 4.68103 24.2565 4.68103 C 32.7076 4.68103 39.5656 11.5196 39.5656 19.9707 C 39.5462 28.4218 32.7076 35.2604 24.2565 35.2604 Z" stroke-linecap="round" />
</g>
		<g transform="matrix(1 0 0 1 0.26 -2.72)" clip-path="url(#CLIPPATH_6)"  >
<clipPath id="CLIPPATH_6" >
	<rect transform="matrix(1 0 0 1 -0.26 2.72)" id="clip0_1641_233" x="-24" y="-24" rx="0" ry="0" width="48" height="48" />
</clipPath>
<path style="stroke: none; stroke-width: 1; stroke-dasharray: none; stroke-linecap: butt; stroke-dashoffset: 0; stroke-linejoin: miter; stroke-miterlimit: 4; fill: rgb(254,175,81); fill-rule: nonzero; opacity: 1;" vector-effect="non-scaling-stroke"  transform=" translate(-24.26, -21.28)" d="M 27.7343 24.8276 C 27.7148 24.8082 27.676 24.7888 27.6954 24.7111 L 24.4898 12.1024 C 23.3436 16.26 22.5276 20.5341 21.2843 24.6722 L 21.2454 24.5945 C 21.2454 24.5945 19.1083 14.4726 18.8946 13.2875 C 18.6809 12.1024 19.3026 10.8202 19.3026 10.8202 L 13.0469 10.8202 C 13.824 11.2088 14.232 12.083 14.5234 12.8213 L 18.4478 29.704 C 18.5449 30.4423 17.9815 31.1417 17.4181 31.7634 L 23.7127 31.7634 C 23.4796 31.1611 23.2659 30.5977 23.2659 29.8983 L 24.6258 23.7397 C 25.0144 25.5853 25.4029 27.4115 25.7915 29.2572 C 26.0246 30.0926 25.8692 31.0251 25.5195 31.7634 L 31.7753 31.7634 C 31.445 31.1805 30.9399 30.3451 31.0564 29.4515 L 33.5043 14.5503 C 33.8152 12.8407 34.6506 11.9664 35.4665 10.8008 C 33.446 10.8202 31.5033 10.8396 29.2885 10.8396 C 30.0656 11.5585 29.6382 12.7241 29.5799 13.5984 L 27.7343 24.8276 Z" stroke-linecap="round" />
</g>
		<g transform="matrix(1 0 0 1 0.15 19.8)" clip-path="url(#CLIPPATH_7)"  >
<clipPath id="CLIPPATH_7" >
	<rect transform="matrix(1 0 0 1 -0.15 -19.8)" id="clip0_1641_233" x="-24" y="-24" rx="0" ry="0" width="48" height="48" />
</clipPath>
<path style="stroke: none; stroke-width: 1; stroke-dasharray: none; stroke-linecap: butt; stroke-dashoffset: 0; stroke-linejoin: miter; stroke-miterlimit: 4; fill: rgb(254,175,81); fill-rule: nonzero; opacity: 1;" vector-effect="non-scaling-stroke"  transform=" translate(-24.15, -43.8)" d="M 13.7599 44.9803 L 13.7299 44.7303 C 13.7299 44.7303 13.7099 44.5503 13.6599 44.4803 C 13.6099 44.4203 13.5799 44.2903 13.5799 44.2903 L 13.4499 44.0803 C 13.4499 44.0803 13.4499 44.3303 13.4099 44.5603 C 13.3699 44.7903 13.3099 44.8203 13.2799 44.9103 C 13.2499 44.9903 13.2299 45.0503 13.2299 45.0503 L 13.1899 45.1303 C 13.1899 45.1303 13.1599 45.1603 13.1399 45.2003 C 13.1099 45.2403 13.0999 45.2903 13.0999 45.2903 C 13.0999 45.2903 13.0699 45.2603 13.0299 45.3203 C 12.9899 45.3803 12.9799 45.3803 12.9399 45.4003 C 12.8999 45.4203 12.8599 45.4503 12.8299 45.4503 C 12.7999 45.4503 12.7299 45.4503 12.6399 45.5103 C 12.5499 45.5703 12.4599 45.5903 12.4599 45.5903 C 12.4599 45.5903 12.2599 45.6503 12.1999 45.6603 C 12.1399 45.6603 12.0899 45.6903 12.0899 45.6903 L 12.0699 45.7503 L 12.0299 45.7303 L 12.0099 45.7003 C 12.0099 45.7003 11.8399 45.7003 11.7599 45.7003 C 11.6799 45.7203 11.5999 45.7203 11.5999 45.7203 C 11.5999 45.7203 11.3799 45.7203 11.3399 45.7203 C 11.2999 45.7203 11.2099 45.7203 11.1999 45.6903 C 11.1799 45.6703 11.1799 45.6003 11.1799 45.6003 C 11.1799 45.6003 11.2199 45.5103 11.2099 45.4603 C 11.1999 45.4203 11.1799 45.3703 11.1799 45.3703 L 11.1799 45.3403 L 11.1999 45.3103 L 11.1999 45.2803 L 11.1899 45.2003 L 11.1899 45.1103 L 11.1799 45.0503 L 11.1199 45.0503 L 11.0599 45.0803 L 11.0299 45.0503 L 10.9599 45.1003 C 10.9599 45.1003 10.9299 45.1003 10.9199 45.0703 C 10.8999 45.0303 10.8299 44.9603 10.8799 44.9303 C 10.9133 44.9103 10.9399 44.9103 10.9599 44.9303 C 10.9599 44.9303 11.0299 45.0103 11.0599 44.9603 C 11.0899 44.9203 11.1399 44.9103 11.1399 44.9103 L 11.1899 44.8403 L 11.2199 44.8203 C 11.2199 44.8203 11.2299 44.5003 11.2299 44.4103 C 11.2299 44.3203 11.1699 44.2603 11.1699 44.1903 C 11.1699 44.1203 11.1899 43.9203 11.1899 43.7603 C 11.1899 43.6003 11.1799 43.2303 11.1899 43.1603 C 11.1999 43.0903 11.2399 43.0803 11.2499 43.0303 C 11.2599 42.9803 11.2499 42.8303 11.2499 42.7903 C 11.2499 42.7503 11.2099 42.7303 11.2399 42.6703 C 11.2699 42.6103 11.2699 42.5303 11.2699 42.5303 C 11.2699 42.5303 11.2599 42.1803 11.2799 42.0003 C 11.3099 41.8203 11.3799 41.7603 11.4499 41.6903 C 11.5199 41.6103 11.5699 41.5803 11.6099 41.5503 C 11.6499 41.5203 11.7499 41.4803 11.7499 41.4803 L 11.7699 41.4203 L 11.7999 41.4403 C 11.7999 41.4403 11.8599 41.3903 11.8899 41.3703 C 11.9199 41.3503 12.0199 41.3003 12.0199 41.2603 C 12.0199 41.2203 12.0599 41.2203 12.0599 41.2203 C 12.0599 41.2203 11.7699 41.2003 11.6599 41.2203 C 11.5499 41.2303 11.5299 41.2803 11.4599 41.2503 C 11.3899 41.2303 11.1499 41.2503 11.1499 41.2503 L 11.0799 41.2503 L 10.9899 41.2203 L 10.9599 41.2403 L 10.9299 41.3103 L 10.8799 41.3603 L 10.8199 41.4503 L 10.8199 41.5403 C 10.8199 41.5403 10.7799 41.4303 10.7799 41.3903 C 10.7799 41.3503 10.7699 41.2903 10.7699 41.2903 L 10.7299 41.2603 C 10.7299 41.2603 10.6299 41.2703 10.5399 41.2603 C 10.4499 41.2403 10.3699 41.2803 10.3699 41.2803 L 10.2799 41.3503 L 10.1699 41.3503 L 10.1299 41.2703 C 10.1299 41.2703 10.0699 41.2703 10.0199 41.2703 L 9.81992 41.2703 L 9.72992 41.2503 L 9.56992 41.2503 C 9.56992 41.2503 9.56992 41.2703 9.46992 41.2503 C 9.36992 41.2303 9.27992 41.2503 9.27992 41.2503 C 9.27992 41.2503 9.36992 41.3103 9.39992 41.3503 L 9.43992 41.3903 C 9.43992 41.3903 9.45992 41.4203 9.50992 41.4503 C 9.55992 41.4903 9.62992 41.5803 9.62992 41.5803 L 9.68992 41.6403 C 9.68992 41.6403 9.76992 41.6703 9.79992 41.7403 C 9.82992 41.8203 9.84992 41.8803 9.87992 42.0103 C 9.90992 42.1403 9.91992 42.2703 9.91992 42.2703 L 9.95992 42.3503 L 9.93992 42.4303 C 9.93992 42.4303 9.93992 42.4703 9.93992 42.6003 C 9.93992 42.7303 9.98992 42.8703 9.98992 42.8703 L 9.98992 43.2503 C 9.98992 43.3703 9.98992 43.5503 9.98992 43.5503 L 9.98992 43.7403 C 9.98992 43.7403 10.0299 44.0503 10.0099 44.1403 C 9.98992 44.2303 10.0099 44.3303 10.0099 44.3303 C 10.0099 44.3303 10.0399 44.4303 10.0099 44.5003 C 10.0099 44.5003 10.0099 44.8903 9.98992 44.9903 C 9.98992 45.0903 9.98992 45.3803 9.95992 45.4803 C 9.92992 45.5803 9.84992 45.7503 9.81992 45.8003 C 9.78992 45.8503 9.61992 46.0703 9.61992 46.0703 C 9.61992 46.0703 9.50992 46.1203 9.40992 46.1903 C 9.29992 46.2503 9.21992 46.3103 9.21992 46.3103 L 9.08992 46.3903 C 9.08992 46.3903 9.08992 46.4203 9.15992 46.4203 C 9.22992 46.4203 9.33992 46.4303 9.40992 46.4303 C 9.47992 46.4303 9.62992 46.3903 9.62992 46.3903 L 9.70992 46.3403 C 9.70992 46.3403 9.87992 46.2903 9.91992 46.3003 C 9.95992 46.3103 10.0299 46.3103 10.0299 46.3103 L 10.3799 46.3503 C 10.3799 46.3503 10.9499 46.3903 10.9999 46.3603 C 11.0499 46.3303 11.1999 46.3603 11.1999 46.3603 C 11.1999 46.3603 11.2599 46.3103 11.2899 46.3203 C 11.3199 46.3203 11.3699 46.3403 11.3999 46.3303 C 11.4299 46.3303 11.5599 46.4103 11.5599 46.3703 C 11.5599 46.3303 11.5399 46.2403 11.6499 46.2503 L 11.7299 46.2103 L 11.7699 46.2503 L 11.7199 46.2903 L 11.7699 46.3403 C 11.7699 46.3403 11.8999 46.3103 11.9599 46.3103 C 12.0199 46.3103 12.2699 46.3503 12.3299 46.3403 C 12.3899 46.3203 12.5899 46.3703 12.5899 46.3703 C 12.5899 46.3703 12.6499 46.3103 12.6799 46.3203 C 12.7099 46.3203 13.0299 46.3203 13.0299 46.3203 C 13.0299 46.3203 13.1799 46.3103 13.2499 46.3103 C 13.3199 46.3103 13.4399 46.4103 13.4899 46.4803 C 13.4899 46.4803 13.5899 46.2503 13.6499 46.0903 C 13.7199 45.9303 13.7499 45.6603 13.7699 45.5603 C 13.7899 45.4603 13.8199 45.3303 13.8199 45.3303 C 13.8199 45.3303 13.8499 45.3203 13.8399 45.1903 C 13.8399 45.0603 13.8399 44.9303 13.8399 44.9303 L 13.7599 44.9803 Z M 21.3399 46.0403 C 21.3399 46.0403 21.2799 45.9603 21.1399 45.8503 C 20.9999 45.7403 20.9699 45.6603 20.9699 45.6603 L 20.9099 45.5303 L 20.8899 45.4203 L 20.8299 45.3603 L 20.7999 45.2703 L 20.7499 45.2303 L 20.6999 45.0903 C 20.6999 45.0903 20.5999 44.7203 20.5199 44.5703 C 20.4399 44.4103 20.3499 44.1903 20.3499 44.1903 C 20.3499 44.1903 20.2599 43.9803 20.2399 43.9103 C 20.2199 43.8403 20.1799 43.7703 20.1799 43.7703 L 20.1199 43.7003 L 20.0599 43.7203 L 19.9699 43.7203 L 19.9899 43.6003 L 20.0599 43.5103 L 20.0599 43.3803 L 19.9999 43.2803 C 19.9999 43.2803 19.8399 43.0803 19.8199 42.9803 C 19.7899 42.8803 19.6999 42.6903 19.6999 42.6903 L 19.6399 42.5003 C 19.6399 42.5003 19.5299 42.1603 19.5199 42.1203 C 19.5199 42.0903 19.4099 41.8103 19.3699 41.7603 L 19.3099 41.5703 C 19.3099 41.5703 19.3099 41.4103 19.2499 41.3903 C 19.1899 41.3703 19.1499 41.3503 19.1499 41.3503 L 19.1099 41.2503 C 19.1099 41.2503 18.9799 41.0103 18.9599 40.9403 C 18.9599 40.9403 18.7399 41.1803 18.6999 41.2303 C 18.6599 41.2703 18.5399 41.3703 18.5399 41.3703 C 18.5399 41.3703 18.3599 41.4503 18.2899 41.5103 C 18.2299 41.5803 18.1499 41.6303 18.1499 41.6303 C 18.1499 41.6303 17.8699 41.7903 17.8199 41.8303 C 17.7599 41.8703 17.7299 41.9103 17.7299 41.9103 L 17.6599 42.0003 L 17.5899 42.0003 C 17.5899 42.0003 17.4099 42.1303 17.3599 42.1903 C 17.3099 42.2503 17.1899 42.3303 17.1699 42.4303 C 17.1699 42.4303 17.3899 42.3303 17.4499 42.3203 C 17.5099 42.3103 17.6199 42.2903 17.6199 42.2903 L 17.6999 42.2503 L 17.8799 42.2303 C 17.8799 42.2303 17.9399 42.1903 18.0099 42.2303 C 18.0799 42.2703 18.1099 42.2503 18.1799 42.2603 C 18.2399 42.2703 18.3099 42.3203 18.3099 42.3203 L 18.3499 42.3603 C 18.3499 42.3603 18.3899 42.3703 18.4199 42.4203 C 18.4599 42.4603 18.4799 42.5403 18.4799 42.5403 C 18.4799 42.5403 18.4399 42.6203 18.4099 42.6503 C 18.3699 42.6803 18.3299 42.7503 18.3299 42.7503 L 18.2699 42.8103 C 18.2699 42.8103 18.2699 42.7803 18.1999 42.8203 C 18.1199 42.8603 18.0599 42.9203 18.0599 42.9203 L 18.0199 42.9403 C 18.0199 42.9403 17.9599 42.9803 17.9299 43.0403 C 17.9033 43.0803 17.8833 43.1203 17.8699 43.1603 C 17.8399 43.2303 17.8299 43.2803 17.8299 43.2803 C 17.8299 43.2803 17.8299 43.2703 17.7699 43.3403 C 17.7199 43.4103 17.7299 43.4603 17.6799 43.5003 L 17.6199 43.5303 C 17.6199 43.5303 17.6199 43.6003 17.5899 43.7003 C 17.5599 43.8003 17.4999 43.9003 17.4999 43.9003 C 17.4999 43.9003 17.4299 44.0003 17.4399 44.0403 C 17.4399 44.0803 17.4399 44.1303 17.4399 44.1303 L 17.3699 44.1303 C 17.3699 44.1303 17.2899 44.3503 17.2799 44.3903 L 17.2799 44.4203 L 17.1199 44.4103 C 17.1199 44.4103 16.9499 44.4103 16.8199 44.4203 C 16.6899 44.4303 16.7999 44.4303 16.7999 44.4303 L 16.6599 44.4603 C 16.6599 44.4603 16.5899 44.4603 16.4999 44.4903 C 16.4199 44.5203 16.3099 44.5603 16.3099 44.5603 C 16.3099 44.5603 16.2899 44.6303 16.4099 44.6703 C 16.5299 44.7103 16.6899 44.7503 16.6899 44.7503 C 16.6899 44.7503 16.7599 44.7903 16.8599 44.8103 C 16.9499 44.8203 16.8899 44.8303 16.8899 44.8303 C 16.8899 44.8303 16.9499 44.8303 16.9799 44.8603 L 17.0199 44.8903 L 16.9399 44.9503 L 17.1299 44.9703 C 17.1299 44.9703 16.9599 45.4003 16.9099 45.5203 C 16.8599 45.6403 16.7599 45.7603 16.7599 45.7603 C 16.7599 45.7603 16.7599 45.7303 16.6399 45.8603 C 16.5099 45.9903 16.3299 46.1403 16.2499 46.1803 C 16.1699 46.2203 16.0999 46.2703 16.0999 46.2703 C 16.0999 46.2703 16.0099 46.3003 15.9699 46.3803 C 15.9699 46.3803 16.1499 46.4203 16.2399 46.4403 C 16.3199 46.4503 16.4399 46.4303 16.4399 46.4303 C 16.4399 46.4303 16.5499 46.4103 16.6499 46.4103 C 16.7499 46.4103 16.8899 46.4303 16.8899 46.4303 L 17.0599 46.4503 L 17.1899 46.4503 C 17.1899 46.4503 17.2499 46.4803 17.4099 46.4803 C 17.5699 46.4803 17.7799 46.4903 17.7799 46.4903 L 18.1299 46.4903 L 18.2499 46.5003 C 18.2499 46.5003 18.1399 46.4003 18.0699 46.3603 C 17.9999 46.3203 17.8999 46.2403 17.8999 46.2403 C 17.8999 46.2403 17.7799 46.1803 17.7699 46.1203 C 17.7699 46.0503 17.8099 45.8603 17.8099 45.8603 L 17.8099 45.7403 C 17.8099 45.7403 17.7699 45.6503 17.7899 45.5603 C 17.8099 45.4703 17.8299 45.3203 17.8299 45.3203 L 17.8899 44.9803 L 17.9899 45.0603 L 18.1499 45.0603 C 18.2299 45.0603 18.3499 45.0403 18.4299 45.0603 C 18.5099 45.0803 18.7799 45.0903 18.9099 45.0903 C 19.0399 45.0903 19.0799 45.0903 19.1299 45.1003 C 19.1799 45.1103 19.2099 45.1303 19.2699 45.1303 C 19.3299 45.1303 19.3499 45.1303 19.4899 45.1203 C 19.6299 45.1103 19.6599 45.0803 19.6599 45.0803 L 19.7399 45.0803 C 19.7399 45.0803 19.7599 45.1503 19.7599 45.2503 C 19.7599 45.3503 19.7799 45.4403 19.7799 45.5903 L 19.7799 45.8503 C 19.7799 45.8503 19.8299 45.9103 19.7299 46.0203 C 19.6299 46.1303 19.5599 46.2503 19.5599 46.2503 C 19.5599 46.2503 19.4999 46.3203 19.4199 46.3903 L 19.3599 46.4303 C 19.3599 46.4303 19.4299 46.4303 19.5199 46.4603 C 19.5999 46.4903 19.7199 46.4403 19.7199 46.4403 C 19.7199 46.4403 19.8799 46.4403 19.9699 46.4203 C 20.0499 46.4003 20.3499 46.4803 20.3899 46.4803 C 20.4299 46.4803 20.6299 46.4903 20.6299 46.4903 C 20.6299 46.4903 20.7899 46.4303 20.9199 46.4503 C 21.0599 46.4603 21.1199 46.4603 21.1199 46.4603 C 21.1199 46.4603 21.2599 46.4903 21.2999 46.4503 C 21.3499 46.4103 21.3999 46.4603 21.3999 46.4603 L 21.4799 46.4803 L 21.6399 46.4803 C 21.6399 46.4803 21.8299 46.4903 21.8899 46.4903 L 22.0299 46.4903 C 22.0299 46.4903 21.7599 46.2603 21.6499 46.1903 C 21.5399 46.1203 21.3499 46.0303 21.3499 46.0303 L 21.3399 46.0403 Z M 19.0599 44.1903 C 18.9799 44.1903 18.8599 44.2103 18.8599 44.2103 L 18.6999 44.2103 L 18.6399 44.2703 L 18.5799 44.2903 C 18.5799 44.2903 18.5999 44.3203 18.5499 44.3303 C 18.4999 44.3403 18.4599 44.3603 18.4599 44.3603 C 18.4599 44.3603 18.3799 44.3603 18.3799 44.3203 C 18.3799 44.2803 18.3199 44.2203 18.3199 44.2203 L 18.2499 44.2203 L 18.2299 44.1403 L 18.1399 44.1403 C 18.1399 44.1403 18.2499 43.8203 18.3399 43.7003 C 18.4299 43.5803 18.5099 43.3103 18.5099 43.3103 C 18.5099 43.3103 18.5699 43.1503 18.6199 43.1003 C 18.6699 43.0403 18.7199 42.9103 18.7199 42.9103 C 18.7199 42.9103 18.8999 43.1903 18.9399 43.2803 C 18.9799 43.3703 18.9999 43.4203 18.9999 43.4203 C 18.9999 43.4203 19.0199 43.5203 19.0599 43.6003 C 19.0999 43.6803 19.1399 43.8003 19.1399 43.8003 L 19.2399 43.9903 L 19.2999 44.1603 C 19.2999 44.1603 19.1299 44.1903 19.0499 44.1903 L 19.0599 44.1903 Z M 39.3399 41.6603 C 39.5399 41.5503 39.7299 41.4303 39.9299 41.3103 C 39.9299 41.2903 39.9299 41.2703 39.9299 41.2403 C 39.6999 41.2403 39.4699 41.2403 39.2499 41.2403 C 39.2399 41.2403 39.2299 41.2603 39.2199 41.2603 C 39.1099 41.2803 38.9999 41.3103 38.8899 41.3103 C 38.7599 41.3103 38.6299 41.2703 38.4899 41.2803 C 38.2699 41.2803 38.0499 41.3303 37.8399 41.3403 C 37.6899 41.3503 37.5399 41.3403 37.3899 41.3403 C 37.4699 41.4503 37.5599 41.5303 37.6599 41.6003 C 37.7999 41.6903 37.8499 41.8403 37.8599 42.0303 C 37.8599 42.2803 37.9699 42.2803 38.0999 42.4603 C 37.9799 42.6703 37.8799 42.2803 37.8799 42.5603 C 37.8799 42.6903 37.8599 43.2103 37.8599 43.3403 C 37.8499 43.7403 37.8299 44.1403 37.8299 44.5403 C 37.8299 44.8803 37.8699 45.2103 37.8799 45.5503 C 37.8799 46.0303 37.8099 46.1603 37.4599 46.3503 C 37.3599 46.4103 37.2599 46.4903 37.1599 46.5503 C 37.1599 46.5503 37.1699 46.5703 37.1799 46.5703 C 37.4799 46.5703 37.8099 46.6603 38.0699 46.5403 C 38.3799 46.4003 38.6599 46.6303 38.9399 46.5403 C 38.9499 46.5403 39.3799 46.5603 39.3899 46.5603 C 39.5999 46.5803 39.3099 46.4703 39.5199 46.4803 C 39.5599 46.4803 39.7099 46.5803 39.7499 46.5803 C 39.7499 46.5703 39.7699 46.5503 39.7699 46.5303 C 39.6899 46.4403 39.6199 46.3603 39.5399 46.2703 C 39.4599 46.1803 39.3699 46.1003 39.2999 46.0003 C 39.1999 45.8603 39.1199 45.7003 39.1699 45.5003 C 39.2199 45.3103 39.2299 45.1203 39.2099 44.9103 C 39.1899 44.5803 39.1899 44.2603 39.1799 43.9303 C 39.1599 43.5403 39.1299 43.1603 39.1299 42.7703 C 39.1299 42.4703 39.1999 42.1703 39.2199 41.8703 C 39.2199 41.7503 39.2599 41.6803 39.3499 41.6403 L 39.3399 41.6603 Z M 27.0299 43.8203 C 26.9099 43.7503 26.8099 43.6203 26.6799 43.5603 C 26.5599 43.5103 26.4399 43.4703 26.3199 43.4403 C 26.1999 43.4103 26.0999 43.2603 25.9899 43.2503 C 25.9899 43.0603 25.8599 43.1403 25.7799 43.1503 C 25.7799 43.1303 25.7799 43.1003 25.7799 43.0703 C 25.6399 43.0703 25.5099 42.8703 25.3799 42.7903 C 25.2399 42.7003 25.0599 42.5703 24.9099 42.5603 C 24.8899 42.3503 25.1399 41.9703 25.2899 41.9003 C 25.3799 41.8603 25.5199 41.8303 25.6099 41.8003 C 25.7499 41.7503 25.8799 41.8103 26.0299 41.8003 C 26.0299 41.7603 26.1299 41.7103 26.1199 41.7803 C 26.2599 41.7803 26.4299 41.8303 26.5699 41.8703 C 26.6399 41.8903 26.6799 41.9403 26.7299 41.9903 C 26.7999 42.0603 26.8599 42.0603 26.9499 42.1103 C 27.0899 42.1903 27.1899 42.4303 27.2799 42.5703 C 27.3499 42.6803 27.4499 42.7803 27.4699 42.9403 C 27.4499 42.6703 27.4299 42.3803 27.4099 42.1003 C 27.3999 41.9703 27.3699 41.8503 27.3499 41.7203 C 27.3199 41.5303 27.3499 41.3203 27.3299 41.1403 C 27.0799 41.4103 26.6999 41.2903 26.3899 41.3303 C 26.0299 41.3803 25.6999 41.2603 25.3499 41.3003 C 25.2699 41.3003 25.2199 41.3703 25.1699 41.3803 C 25.1099 41.4003 25.0599 41.3603 24.9999 41.3603 C 24.8499 41.3803 24.6699 41.5003 24.5499 41.6103 C 24.3099 41.8103 24.1199 41.9603 23.9699 42.2903 C 23.9099 42.4103 23.8299 42.5403 23.7899 42.6803 C 23.7499 42.7903 23.7699 42.9903 23.7199 43.1003 C 23.6999 43.1503 23.6399 43.1803 23.5899 43.2203 C 23.6799 43.3103 23.8299 43.3303 23.9299 43.3603 C 24.0199 43.3903 24.1199 43.4703 24.1999 43.4903 C 24.2599 43.5003 24.3099 43.4803 24.3699 43.4903 C 24.3499 43.7103 24.6099 43.8203 24.7399 43.9303 C 24.8299 44.0003 24.9099 44.0303 24.9899 44.0903 C 25.0699 44.1403 25.1399 44.2603 25.2299 44.2803 C 25.2299 44.2603 25.2299 44.2503 25.2299 44.2403 C 25.3299 44.2603 25.3999 44.3403 25.4999 44.3503 C 25.5999 44.3503 25.7099 44.3403 25.7099 44.5403 C 25.8699 44.5403 26.0199 44.7303 26.1699 44.8103 C 26.3099 44.8803 26.4899 45.0903 26.6299 45.1003 C 26.4999 45.3603 26.3599 45.6103 26.1299 45.7503 C 25.9499 45.8603 25.8499 45.8503 25.6499 45.8803 C 25.6199 45.8803 25.5899 45.9303 25.5599 45.9303 C 25.5299 45.9303 25.4999 45.8803 25.4699 45.9003 C 25.4099 45.9303 25.3899 45.9403 25.4299 46.0403 C 25.4099 46.0303 25.3899 46.0403 25.3699 46.0403 C 25.3899 46.1003 25.3699 46.2603 25.3199 46.2803 C 25.3199 46.1903 25.3199 46.0203 25.3199 45.9303 C 25.1699 45.8903 24.9699 45.9003 24.8399 45.7703 C 24.6899 45.6303 24.5299 45.4603 24.3599 45.3003 C 24.2699 45.2103 24.1999 45.1903 24.1399 45.0703 C 24.1199 45.0303 24.1199 44.9703 24.0899 44.9303 C 24.0699 44.9003 24.0199 44.9003 24.0099 44.8803 C 23.9499 44.7603 23.8999 44.5103 23.8799 44.3703 C 23.8799 44.5403 23.8299 44.7103 23.8099 44.8703 C 23.7899 45.0303 23.7999 45.2003 23.7799 45.3603 C 23.7499 45.6703 23.6799 46.0103 23.5799 46.2803 C 23.6799 46.1803 23.7299 46.0403 23.8699 46.0103 C 24.0299 45.9703 24.1499 46.1003 24.2999 46.1403 C 24.5399 46.2003 24.7599 46.3803 24.9999 46.4303 C 25.1399 46.4603 25.2499 46.4303 25.3899 46.5003 L 25.3899 46.5103 C 25.5899 46.5103 25.7899 46.4603 25.9999 46.4603 C 26.2699 46.4603 26.5299 46.3003 26.7699 46.1603 C 26.8799 46.0903 26.9299 45.9803 27.0399 45.9003 C 27.1499 45.8203 27.1899 45.7703 27.2699 45.6603 C 27.3899 45.5003 27.5499 45.3903 27.5299 45.1103 C 27.6199 45.1103 27.6899 44.8703 27.7199 44.7703 C 27.7499 44.6703 27.7399 44.6103 27.7999 44.5403 C 27.8499 44.4803 27.9799 44.4303 28.0399 44.4303 C 27.8999 44.3703 27.7799 44.2303 27.6399 44.1603 C 27.4299 44.0503 27.2099 43.9803 27.0099 43.8603 L 27.0299 43.8203 Z M 23.5499 43.2303 C 23.5499 43.2303 23.5699 43.2103 23.5799 43.2003 C 23.5799 43.2003 23.5699 43.1903 23.5599 43.1803 L 23.5599 43.2303 L 23.5499 43.2303 Z M 33.6199 43.8203 C 33.4999 43.7503 33.3999 43.6203 33.2699 43.5603 C 33.1499 43.5103 33.0299 43.4703 32.9099 43.4403 C 32.7999 43.4103 32.8899 43.4103 32.7799 43.3903 C 32.7799 43.2003 32.6499 43.2803 32.5699 43.2903 C 32.5699 43.2703 32.5699 43.2403 32.5699 43.2103 C 32.4299 43.2103 32.0999 42.8703 31.9699 42.7903 C 31.8299 42.7003 31.6499 42.5703 31.4999 42.5603 C 31.4799 42.3503 31.7299 41.9703 31.8799 41.9003 C 31.9699 41.8603 32.0999 41.8303 32.1999 41.8003 C 32.3399 41.7503 32.4699 41.8103 32.6099 41.8003 C 32.6099 41.7603 32.4899 41.6503 32.4899 41.6203 C 32.5399 41.6703 32.7099 41.7103 32.6999 41.7803 C 32.8399 41.7803 33.0099 41.8303 33.1499 41.8703 C 33.2199 41.8903 33.2599 41.9403 33.3099 41.9903 C 33.3799 42.0603 33.4399 42.0603 33.5299 42.1103 C 33.6699 42.1903 33.7699 42.4303 33.8599 42.5703 C 33.9299 42.6803 34.1299 42.8003 34.1599 42.9703 C 34.1399 42.7003 34.0199 42.3803 33.9899 42.1103 C 33.9799 41.9803 33.9499 41.8603 33.9299 41.7303 C 33.8999 41.5403 33.9299 41.3303 33.9099 41.1503 C 33.6599 41.4203 33.2799 41.3003 32.9799 41.3403 C 32.6199 41.3903 32.2999 41.2703 31.9399 41.3103 C 31.8599 41.3103 31.8699 41.4503 31.8099 41.4703 C 31.7499 41.4903 31.6399 41.3703 31.5799 41.3803 C 31.4299 41.4003 31.2499 41.5203 31.1299 41.6303 C 30.8899 41.8303 30.6999 41.9803 30.5499 42.3103 C 30.4899 42.4303 30.4099 42.5603 30.3699 42.7003 C 30.3299 42.8103 30.3499 43.0103 30.2999 43.1203 C 30.2799 43.1703 30.2199 43.1703 30.1799 43.1803 C 30.2699 43.2803 30.4099 43.3503 30.5199 43.3803 C 30.6099 43.4103 30.9899 43.7003 31.0799 43.7203 C 31.1399 43.7303 31.1899 43.7103 31.2499 43.7203 C 31.2299 43.9403 31.1999 43.8303 31.3299 43.9403 C 31.4199 44.0103 31.4899 44.0403 31.5799 44.1003 C 31.6599 44.1503 31.7299 44.2703 31.8199 44.2903 C 31.8199 44.2703 31.6899 43.9903 31.6899 43.9703 C 31.7899 43.9903 31.9899 44.3503 32.0899 44.3503 C 32.1899 44.3503 32.2999 44.3403 32.2999 44.5403 C 32.4599 44.5403 32.6099 44.7303 32.7599 44.8103 C 32.8999 44.8803 33.0799 45.0903 33.2199 45.1003 C 33.0899 45.3603 32.9499 45.6103 32.7199 45.7503 C 32.5399 45.8603 32.4399 45.8503 32.2399 45.8803 C 32.2099 45.8803 32.1799 45.9303 32.1499 45.9303 C 32.1199 45.9303 32.0899 45.9003 32.0599 45.9003 C 32.0099 45.8803 31.9099 46.0103 31.9099 45.9203 C 31.7599 45.8803 31.5699 45.8903 31.4399 45.7603 C 31.2899 45.6203 31.1299 45.4503 30.9599 45.2903 C 30.8699 45.2003 30.7899 45.3003 30.7299 45.1903 C 30.7099 45.1503 30.7099 45.0903 30.6799 45.0503 C 30.6599 45.0203 30.6299 44.9003 30.6099 44.8803 C 30.5499 44.7603 30.4999 44.5103 30.4899 44.3703 C 30.4899 44.5403 30.4399 44.7103 30.4199 44.8703 C 30.3999 45.0303 30.4099 45.2003 30.3899 45.3603 C 30.3599 45.6703 30.2899 46.0103 30.1899 46.2803 C 30.2899 46.1803 30.3399 46.0403 30.4799 46.0103 C 30.6399 45.9703 30.7599 46.1003 30.9099 46.1403 C 31.1499 46.2003 31.3699 46.3803 31.5999 46.4303 C 31.7399 46.4603 31.8699 46.4503 32.0099 46.5203 L 32.0099 46.5303 C 32.2099 46.5303 32.3899 46.4603 32.5999 46.4603 C 32.8699 46.4603 33.1199 46.3003 33.3599 46.1603 C 33.4699 46.0903 33.5199 45.9803 33.6299 45.9003 C 33.7399 45.8203 33.7799 45.7703 33.8599 45.6603 C 33.9799 45.5003 34.1399 45.3903 34.1199 45.1103 C 34.2099 45.1103 34.2799 44.8703 34.3099 44.7703 C 34.3399 44.6703 34.3299 44.7703 34.3799 44.7003 C 34.4299 44.6403 34.5599 44.4303 34.6199 44.4203 C 34.4799 44.3603 34.3599 44.2203 34.2199 44.1503 C 34.0099 44.0403 33.7999 43.9703 33.5899 43.8503 L 33.6199 43.8203 Z M 30.1599 43.1703 C 30.1599 43.1703 30.1799 43.1603 30.1999 43.1503 C 30.1999 43.1503 30.1799 43.1303 30.1799 43.1203 L 30.1799 43.1703 L 30.1599 43.1703 Z M 1.16992 43.5103 C 1.16992 43.5103 1.19992 43.4803 1.20992 43.4603 L 1.16992 43.5103 Z M 6.21992 45.3703 C 6.11992 45.4803 5.98992 45.5703 5.87992 45.6503 C 5.80992 45.7003 5.73992 45.7503 5.66992 45.7603 C 5.61992 45.7703 5.57992 45.7303 5.51992 45.7603 C 5.51992 45.8003 5.49992 45.8303 5.49992 45.8703 C 5.43992 45.8703 5.36992 45.8803 5.30992 45.8903 L 4.99992 45.8603 C 4.99992 45.8603 4.97992 45.8503 4.96992 45.8403 C 4.92992 45.8203 4.88992 45.8203 4.83992 45.8103 L 4.83992 45.8503 L 4.74992 45.8503 C 4.51992 45.8503 4.22992 45.7203 4.02992 45.6003 C 3.90992 45.5303 3.83992 45.3803 3.71992 45.3203 C 3.64992 45.2803 3.55992 45.3203 3.48992 45.2603 C 3.45992 45.2403 3.45992 45.1803 3.43992 45.1603 C 3.21992 44.8903 2.94992 44.7103 2.83992 44.3103 C 2.76992 44.0503 2.75992 43.6803 2.60992 43.4703 C 2.68992 43.3803 2.69992 43.2503 2.75992 43.1403 C 2.80992 43.0403 2.87992 42.9503 2.94992 42.8603 C 3.14992 42.6003 3.36992 42.4203 3.61992 42.2703 C 3.83992 42.1403 4.06992 42.0203 4.30992 41.9603 C 4.35992 41.9503 4.39992 41.9403 4.43992 41.9203 C 4.48992 41.9003 4.48992 41.8603 4.55992 41.8503 C 4.68992 41.8303 4.82992 41.8903 4.96992 41.8903 C 4.96992 41.9303 4.98992 41.9603 4.98992 42.0003 C 5.04992 42.0403 5.07992 42.0003 5.13992 42.0003 C 5.20992 42.0103 5.27992 42.0703 5.34992 42.1103 C 5.46992 42.1903 5.58992 42.2803 5.68992 42.3903 C 5.79992 42.5103 5.85992 42.6603 5.95992 42.7803 C 6.04992 42.8803 6.15992 42.9203 6.22992 43.0203 C 6.16992 42.6603 6.06992 42.2903 6.02992 41.9203 C 6.00992 41.7203 5.90992 41.5503 5.83992 41.3803 C 5.79992 41.2703 5.72992 40.8503 5.64992 40.7903 C 5.49992 41.0603 5.48992 41.2803 5.22992 41.2803 C 4.97992 41.2803 4.73992 41.2003 4.48992 41.2103 C 4.24992 41.2203 4.04992 41.1603 3.80992 41.1903 C 3.70992 41.2003 3.61992 41.2603 3.51992 41.2903 C 3.44992 41.3103 3.31992 41.2903 3.27992 41.3103 C 3.05992 41.3403 2.86992 41.5803 2.66992 41.6803 C 2.68992 41.7903 2.70992 41.9103 2.83992 41.9403 C 2.78992 41.9403 2.47992 41.8203 2.43992 41.8303 C 2.40992 41.8303 2.36992 41.8903 2.33992 41.9103 C 2.13992 42.0503 2.08992 42.2503 1.95992 42.4603 C 1.90992 42.5403 1.85992 42.5603 1.80992 42.6303 C 1.73992 42.7203 1.70992 42.8503 1.65992 42.9803 C 1.57992 43.2103 1.35992 43.2903 1.19992 43.4603 C 1.26992 43.5503 1.42992 43.8003 1.46992 43.9003 C 1.50992 44.0203 1.58992 44.1203 1.61992 44.2403 C 1.65992 44.4003 1.64992 44.4803 1.72992 44.5903 C 1.80992 44.7003 1.85992 44.8303 1.91992 44.9703 C 1.98992 45.1503 2.07992 45.3303 2.16992 45.5003 C 2.26992 45.6803 2.33992 45.7303 2.48992 45.8403 C 2.71992 46.0003 2.89992 46.1603 3.13992 46.2703 C 3.22992 46.5203 3.63992 46.6203 3.82992 46.6003 C 4.06992 46.5703 4.31992 46.5903 4.56992 46.5703 C 4.71992 46.5603 4.86992 46.5103 5.01992 46.5103 L 5.01992 46.5503 C 5.12992 46.5503 5.22992 46.5503 5.32992 46.5303 C 5.42992 46.5403 5.52992 46.5503 5.62992 46.5403 C 5.71992 46.5403 5.79992 46.5103 5.88992 46.4803 C 6.05992 46.5003 6.11992 46.5703 6.22992 46.7803 C 6.30992 46.7203 6.33992 46.4703 6.37992 46.3603 C 6.38992 46.3303 6.39992 46.3003 6.41992 46.2703 C 6.43992 46.2703 6.44992 46.2703 6.46992 46.2703 C 6.45992 46.2603 6.44992 46.2503 6.42992 46.2403 C 6.48992 46.1103 6.54992 45.9703 6.55992 45.8203 C 6.59992 45.4503 6.69992 45.0803 6.74992 44.7203 C 6.67992 44.8303 6.56992 44.8703 6.47992 44.9703 C 6.36992 45.0903 6.31992 45.2403 6.20992 45.3603 L 6.21992 45.3703 Z M 46.8999 45.2203 C 46.7899 45.3403 46.7399 45.2503 46.6299 45.3803 C 46.5299 45.4903 46.4099 45.5803 46.2899 45.6603 C 46.2199 45.7103 46.1499 45.7603 46.0799 45.7703 C 46.0299 45.7803 45.9899 45.7403 45.9299 45.7703 C 45.9299 45.8103 45.9099 45.8403 45.9099 45.8803 C 45.8499 45.8803 45.7799 45.8903 45.7199 45.9003 L 45.4099 45.8703 C 45.4099 45.8703 45.3899 45.8603 45.3799 45.8503 C 45.3399 45.8403 45.2999 45.8303 45.2499 45.8203 L 45.2499 45.8603 L 45.1599 45.8603 C 44.9299 45.8603 44.6399 45.7303 44.4499 45.6103 C 44.3299 45.5403 44.2599 45.3903 44.1499 45.3303 C 44.0799 45.2903 43.9999 45.3303 43.9299 45.2703 C 43.8999 45.2503 43.8999 45.1903 43.8799 45.1703 C 43.6599 44.9003 43.3999 44.7303 43.2899 44.3203 C 43.2199 44.0603 43.2199 43.6903 43.0699 43.4803 C 43.1499 43.3903 43.1599 43.2603 43.2199 43.1503 C 43.2699 43.0503 43.3399 42.9603 43.3999 42.8703 C 43.5999 42.6103 43.8099 42.4303 44.0599 42.2903 C 44.2799 42.1603 44.4999 42.0403 44.7399 41.9803 C 44.7899 41.9703 44.8299 41.9603 44.8699 41.9403 C 44.9199 41.9203 44.9199 41.8803 44.9899 41.8703 C 45.1199 41.8503 45.4699 41.9203 45.6099 41.9203 C 45.6099 41.9603 45.4199 41.9803 45.4099 42.0203 C 45.4699 42.0603 45.4999 42.0203 45.5599 42.0203 C 45.6299 42.0303 45.6999 42.0903 45.7699 42.1303 C 45.8899 42.2103 46.0099 42.3003 46.1099 42.4103 C 46.2199 42.5303 46.2799 42.6803 46.3799 42.8003 C 46.4699 42.9003 46.5799 42.9403 46.6499 43.0403 C 46.5999 42.6803 46.4999 42.3103 46.4499 41.9503 C 46.4299 41.7503 46.3299 41.5803 46.2599 41.4103 C 46.2199 41.3003 46.1799 41.0603 46.1099 41.0003 C 45.9699 41.2603 45.9099 41.3103 45.6499 41.3103 C 45.3999 41.3103 45.1599 41.2303 44.9199 41.2403 C 44.6799 41.2503 44.4899 41.1903 44.2399 41.2203 C 44.1399 41.2303 44.0499 41.2903 43.9499 41.3203 C 43.8799 41.3403 43.7599 41.3203 43.7099 41.3403 C 43.4899 41.3703 43.3099 41.6103 43.0999 41.7103 C 43.1099 41.8203 42.9199 41.8503 42.8799 41.8603 C 42.8499 41.8603 42.8099 41.9203 42.7799 41.9403 C 42.5899 42.0803 42.5699 42.6203 42.4399 42.8303 C 42.3899 42.9103 42.4699 42.2803 42.4199 42.3403 C 42.3499 42.4303 42.1599 42.8703 42.1099 43.0003 C 42.0199 43.2503 41.9299 43.4203 41.7899 43.6303 L 41.7399 43.7603 C 41.8099 43.8403 41.8899 43.8203 41.9299 43.9303 C 41.9699 44.0503 42.0499 44.1503 42.0799 44.2703 C 42.1199 44.4303 42.1099 44.5103 42.1899 44.6203 C 42.2699 44.7303 42.3199 44.8603 42.3699 45.0003 C 42.4399 45.1803 42.5299 45.3603 42.6199 45.5303 C 42.7199 45.7103 42.7899 45.7603 42.9299 45.8603 C 43.1599 46.0203 43.3299 46.1803 43.5799 46.2903 C 43.6699 46.5403 44.0699 46.6403 44.2599 46.6203 C 44.4999 46.5903 44.7499 46.6103 44.9899 46.5903 C 45.1399 46.5803 45.2799 46.5303 45.4299 46.5303 L 45.4299 46.5703 C 45.5399 46.5703 45.6399 46.5703 45.7399 46.5503 C 45.8399 46.5603 45.9399 46.5703 46.0399 46.5603 C 46.1299 46.5603 46.2099 46.5303 46.2899 46.5003 C 46.4499 46.5203 46.5099 46.5903 46.6299 46.8003 C 46.7099 46.7403 46.7399 46.4903 46.7799 46.3803 C 46.7899 46.3503 46.7999 46.3203 46.8099 46.2903 C 46.8299 46.2903 46.8399 46.2903 46.8599 46.2903 C 46.8499 46.2803 46.8399 46.2703 46.8199 46.2603 C 46.8799 46.1303 46.9399 46.0003 46.9499 45.8403 C 46.9899 45.4703 47.0899 45.1003 47.1399 44.7503 C 47.0699 44.8603 46.9599 45.1303 46.8699 45.2303 L 46.8999 45.2203 Z" stroke-linecap="round" />
</g>
</g>
</g>
</svg>