<?xml version="1.0" encoding="UTF-8" standalone="no" ?>
<!DOCTYPE svg PUBLIC "-//W3C//DTD SVG 1.1//EN" "http://www.w3.org/Graphics/SVG/1.1/DTD/svg11.dtd">
<svg xmlns="http://www.w3.org/2000/svg" xmlns:xlink="http://www.w3.org/1999/xlink" version="1.1" width="1080" height="1080" viewBox="0 0 1080 1080" xml:space="preserve">
<desc>Created with Fabric.js 5.2.4</desc>
<defs>
</defs>
<rect x="0" y="0" width="100%" height="100%" fill="transparent"></rect>
<g transform="matrix(1 0 0 1 540 540)" id="c13ede39-bfcc-456a-957e-a17291cc78a6"  >
<rect style="stroke: none; stroke-width: 1; stroke-dasharray: none; stroke-linecap: butt; stroke-dashoffset: 0; stroke-linejoin: miter; stroke-miterlimit: 4; fill: rgb(255,255,255); fill-rule: nonzero; opacity: 1; visibility: hidden;" vector-effect="non-scaling-stroke"  x="-540" y="-540" rx="0" ry="0" width="1080" height="1080" />
</g>
<g transform="matrix(1 0 0 1 540 540)" id="e2edc9b0-2ce0-4d1c-affa-7a87703252ae"  >
</g>
<g transform="matrix(21.6 0 0 21.6 540 540)"  >
<g style=""   >
		<g transform="matrix(1 0 0 1 0 0.05)" id="BG_Check"  >
<rect style="stroke: none; stroke-width: 1; stroke-dasharray: none; stroke-linecap: butt; stroke-dashoffset: 0; stroke-linejoin: miter; stroke-miterlimit: 4; fill: rgb(255,195,69); fill-rule: nonzero; opacity: 1; visibility: hidden;" vector-effect="non-scaling-stroke"  x="-25.9" y="-25.05" rx="0" ry="0" width="51.8" height="50.1" />
</g>
		<g transform="matrix(1 0 0 1 -0.95 -0.05)" id="Bolt_Outer_00000084510211084760089520000005978577460333269168_"  >
<polygon style="stroke: none; stroke-width: 1; stroke-dasharray: none; stroke-linecap: butt; stroke-dashoffset: 0; stroke-linejoin: miter; stroke-miterlimit: 4; fill: rgb(23,131,252); fill-rule: nonzero; opacity: 1;" vector-effect="non-scaling-stroke"  points="-21.05,16.25 0.75,-12.15 2.45,-4.35 21.05,-16.25 -1.45,13.95 -3.05,5.95 " />
</g>
		<g transform="matrix(1 0 0 1 -0.8 -0.05)" id="Bolt_Inner_00000057110097004243105640000016286091061572752517_"  >
<polygon style="stroke: none; stroke-width: 1; stroke-dasharray: none; stroke-linecap: butt; stroke-dashoffset: 0; stroke-linejoin: miter; stroke-miterlimit: 4; fill: rgb(101,250,255); fill-rule: nonzero; opacity: 1;" vector-effect="non-scaling-stroke"  points="-15.3,11.15 -0.3,-7.95 1.2,-1.25 15.3,-11.15 -0.5,9.95 -2,3.25 " />
</g>
		<g transform="matrix(1 0 0 1 4.55 4.85)" id="Gear_Bottom"  >
<path style="stroke: none; stroke-width: 1; stroke-dasharray: none; stroke-linecap: butt; stroke-dashoffset: 0; stroke-linejoin: miter; stroke-miterlimit: 4; fill: rgb(202,154,45); fill-rule: nonzero; opacity: 1;" vector-effect="non-scaling-stroke"  transform=" translate(-29.55, -29.85)" d="M 43.8 20.1 L 47 17.3 L 44.3 12.5 L 38.199999999999996 21 C 38.199999999999996 21 40.99999999999999 27.5 34.8 34.2 C 30.699999999999996 38.7 24.9 37.900000000000006 24.9 37.900000000000006 L 22.2 41.10000000000001 L 20.9 37.10000000000001 C 20.9 37.10000000000001 20.099999999999998 36.70000000000001 18.4 35.50000000000001 C 17.2 34.50000000000001 17.2 34.60000000000001 17.2 34.50000000000001 L 12.1 37.60000000000001 L 21.2 42.900000000000006 L 21.8 47.2 L 29.8 47.2 L 30.5 42.900000000000006 L 39.1 38.00000000000001 L 43.800000000000004 38.50000000000001 L 47.00000000000001 32.900000000000006 L 43.800000000000004 29.900000000000006 C 43.8 29.8 43.8 20.1 43.8 20.1 z M 25.8 45.4 C 24.6 45.4 23.7 44.5 23.7 43.3 C 23.7 42.099999999999994 24.599999999999998 41.199999999999996 25.8 41.199999999999996 C 26.900000000000002 41.199999999999996 27.900000000000002 42.099999999999994 27.900000000000002 43.3 C 27.900000000000002 44.5 26.9 45.4 25.8 45.4 z M 41 35.7 C 39.8 35.7 38.9 34.800000000000004 38.9 33.6 C 38.9 32.4 39.8 31.5 41 31.5 C 42.2 31.5 43.1 32.4 43.1 33.6 C 43.1 34.800000000000004 42.2 35.7 41 35.7 z" stroke-linecap="round" />
</g>
		<g transform="matrix(1 0 0 1 4.55 4.85)" id="Gear_Bottom" clip-path="url(#CLIPPATH_9)"  >
<clipPath id="CLIPPATH_9" >
	<rect transform="matrix(0.8 0.6 -0.6 0.8 7.12 2.81)" id="SVGID_00000075133456212352472110000010580075822202493077_" x="-11.15" y="-10.65" rx="0" ry="0" width="22.3" height="21.3" />
</clipPath>
<path style="stroke: none; stroke-width: 1; stroke-dasharray: none; stroke-linecap: butt; stroke-dashoffset: 0; stroke-linejoin: miter; stroke-miterlimit: 4; fill: rgb(243,192,41); fill-rule: nonzero; opacity: 1;" vector-effect="non-scaling-stroke"  transform=" translate(-29.55, -29.85)" d="M 43.8 20.1 L 47 17.3 L 44.3 12.5 L 38.199999999999996 21 C 38.199999999999996 21 40.99999999999999 27.5 34.8 34.2 C 30.699999999999996 38.7 24.9 37.900000000000006 24.9 37.900000000000006 L 22.2 41.10000000000001 L 20.9 37.10000000000001 C 20.9 37.10000000000001 20.099999999999998 36.70000000000001 18.4 35.50000000000001 C 17.2 34.50000000000001 17.2 34.60000000000001 17.2 34.50000000000001 L 12.1 37.60000000000001 L 21.2 42.900000000000006 L 21.8 47.2 L 29.8 47.2 L 30.5 42.900000000000006 L 39.1 38.00000000000001 L 43.800000000000004 38.50000000000001 L 47.00000000000001 32.900000000000006 L 43.800000000000004 29.900000000000006 C 43.8 29.8 43.8 20.1 43.8 20.1 z M 25.8 45.4 C 24.6 45.4 23.7 44.5 23.7 43.3 C 23.7 42.099999999999994 24.599999999999998 41.199999999999996 25.8 41.199999999999996 C 26.900000000000002 41.199999999999996 27.900000000000002 42.099999999999994 27.900000000000002 43.3 C 27.900000000000002 44.5 26.9 45.4 25.8 45.4 z M 41 35.7 C 39.8 35.7 38.9 34.800000000000004 38.9 33.6 C 38.9 32.4 39.8 31.5 41 31.5 C 42.2 31.5 43.1 32.4 43.1 33.6 C 43.1 34.800000000000004 42.2 35.7 41 35.7 z" stroke-linecap="round" />
</g>
		<g transform="matrix(1 0 0 1 -3.65 -6.05)" id="Gear_Top"  >
<path style="stroke: none; stroke-width: 1; stroke-dasharray: none; stroke-linecap: butt; stroke-dashoffset: 0; stroke-linejoin: miter; stroke-miterlimit: 4; fill: rgb(203,155,46); fill-rule: nonzero; opacity: 1;" vector-effect="non-scaling-stroke"  transform=" translate(-21.35, -18.95)" d="M 15.7 17.1 C 19.799999999999997 12.200000000000001 25.1 11.900000000000002 27.799999999999997 12.200000000000001 C 30.499999999999996 12.500000000000002 33.4 14.5 33.4 14.5 L 38.1 11.5 L 30.6 7.1 L 30 2.9 L 22.3 2.9 L 21.1 7.4 L 13 12.2 L 8.3 11.5 L 5.000000000000001 17.2 L 8 20 L 8.3 29.2 L 4.6000000000000005 31.9 L 6.1000000000000005 35 L 13.4 25.8 C 13.4 25.7 12.4 21 15.7 17.1 z M 25.8 4.9 C 27 4.9 27.900000000000002 5.800000000000001 27.900000000000002 7 C 27.900000000000002 8.2 27.000000000000004 9.1 25.8 9.1 C 24.7 9.1 23.7 8.2 23.7 7 C 23.7 5.800000000000001 24.6 4.9 25.8 4.9 z M 10.3 18.2 C 9.200000000000001 18.2 8.200000000000001 17.3 8.200000000000001 16.099999999999998 C 8.200000000000001 14.899999999999995 9.1 14 10.3 14 C 11.500000000000002 14 12.4 14.9 12.4 16.1 C 12.4 17.300000000000004 11.4 18.2 10.3 18.2 z" stroke-linecap="round" />
</g>
		<g transform="matrix(1 0 0 1 -3.65 -6.05)" id="Gear_Top" clip-path="url(#CLIPPATH_10)"  >
<clipPath id="CLIPPATH_10" >
	<rect transform="matrix(0.8 0.6 -0.6 0.8 -4.5 -1.53)" id="SVGID_00000018927629766040953380000014933339883308610698_" x="-11.15" y="-10.65" rx="0" ry="0" width="22.3" height="21.3" />
</clipPath>
<path style="stroke: none; stroke-width: 1; stroke-dasharray: none; stroke-linecap: butt; stroke-dashoffset: 0; stroke-linejoin: miter; stroke-miterlimit: 4; fill: rgb(243,192,41); fill-rule: nonzero; opacity: 1;" vector-effect="non-scaling-stroke"  transform=" translate(-21.35, -18.95)" d="M 15.7 17.1 C 19.799999999999997 12.200000000000001 25.1 11.900000000000002 27.799999999999997 12.200000000000001 C 30.499999999999996 12.500000000000002 33.4 14.5 33.4 14.5 L 38.1 11.5 L 30.6 7.1 L 30 2.9 L 22.3 2.9 L 21.1 7.4 L 13 12.2 L 8.3 11.5 L 5.000000000000001 17.2 L 8 20 L 8.3 29.2 L 4.6000000000000005 31.9 L 6.1000000000000005 35 L 13.4 25.8 C 13.4 25.7 12.4 21 15.7 17.1 z M 25.8 4.9 C 27 4.9 27.900000000000002 5.800000000000001 27.900000000000002 7 C 27.900000000000002 8.2 27.000000000000004 9.1 25.8 9.1 C 24.7 9.1 23.7 8.2 23.7 7 C 23.7 5.800000000000001 24.6 4.9 25.8 4.9 z M 10.3 18.2 C 9.200000000000001 18.2 8.200000000000001 17.3 8.200000000000001 16.099999999999998 C 8.200000000000001 14.899999999999995 9.1 14 10.3 14 C 11.500000000000002 14 12.4 14.9 12.4 16.1 C 12.4 17.300000000000004 11.4 18.2 10.3 18.2 z" stroke-linecap="round" />
</g>
</g>
</g>
</svg>